<svg width="153" height="97" viewBox="0 0 153 97" fill="none" xmlns="http://www.w3.org/2000/svg">
<mask id="path-1-inside-1" fill="white">
<path d="M151.487 43.1957C153.448 44.3264 153.454 46.1645 151.487 47.2952L80.2632 88.8024C79.1696 89.3629 77.9588 89.6552 76.7304 89.6552C75.502 89.6552 74.2912 89.3629 73.1975 88.8024L1.47547 47.3015C-0.484766 46.1645 -0.491069 44.3264 1.47547 43.1957L72.6996 1.6885C73.7942 1.13094 75.0046 0.840332 76.2325 0.840332C77.4603 0.840332 78.6708 1.13094 79.7653 1.6885L151.487 43.1957Z"/>
</mask>
<path d="M151.487 43.1957C153.448 44.3264 153.454 46.1645 151.487 47.2952L80.2632 88.8024C79.1696 89.3629 77.9588 89.6552 76.7304 89.6552C75.502 89.6552 74.2912 89.3629 73.1975 88.8024L1.47547 47.3015C-0.484766 46.1645 -0.491069 44.3264 1.47547 43.1957L72.6996 1.6885C73.7942 1.13094 75.0046 0.840332 76.2325 0.840332C77.4603 0.840332 78.6708 1.13094 79.7653 1.6885L151.487 43.1957Z" fill="white"/>
<path d="M151.487 43.1957L150.986 44.0612L150.988 44.0619L151.487 43.1957ZM151.487 47.2952L150.989 46.4283L150.984 46.4312L151.487 47.2952ZM80.2632 88.8024L80.7193 89.6923L80.7434 89.68L80.7667 89.6664L80.2632 88.8024ZM76.7304 89.6552V88.6552V89.6552ZM73.1975 88.8024L72.6967 89.668L72.7188 89.6807L72.7414 89.6923L73.1975 88.8024ZM1.47547 47.3015L0.973732 48.1666L0.97464 48.1671L1.47547 47.3015ZM1.47547 43.1957L1.97393 44.0626L1.97898 44.0597L1.47547 43.1957ZM72.6996 1.6885L72.2457 0.79744L72.2205 0.810271L72.1961 0.824505L72.6996 1.6885ZM76.2325 0.840332V1.84033V0.840332ZM79.7653 1.6885L80.2662 0.822985L80.243 0.809584L80.2192 0.79744L79.7653 1.6885ZM150.988 44.0619C151.786 44.5223 151.96 44.9873 151.96 45.2465C151.96 45.5044 151.789 45.9683 150.989 46.4283L151.986 48.1621C153.152 47.4915 153.961 46.471 153.96 45.2444C153.959 44.0192 153.149 42.9998 151.987 42.3294L150.988 44.0619ZM150.984 46.4312L79.7597 87.9384L80.7667 89.6664L151.991 48.1592L150.984 46.4312ZM79.8071 87.9125C78.8546 88.4007 77.8001 88.6552 76.7304 88.6552V90.6552C78.1175 90.6552 79.4846 90.3252 80.7193 89.6923L79.8071 87.9125ZM76.7304 88.6552C75.6607 88.6552 74.6062 88.4007 73.6536 87.9125L72.7414 89.6923C73.9762 90.3252 75.3433 90.6552 76.7304 90.6552V88.6552ZM73.6984 87.9369L1.97631 46.436L0.97464 48.1671L72.6967 89.668L73.6984 87.9369ZM1.97722 46.4365C1.17814 45.973 1.00321 45.5062 1.00293 45.2452C1.00266 44.9864 1.17401 44.5225 1.97392 44.0626L0.977026 42.3288C-0.189607 42.9995 -0.99837 44.0201 -0.997069 45.2473C-0.99577 46.4723 -0.187432 47.493 0.973732 48.1666L1.97722 46.4365ZM1.97898 44.0597L73.2031 2.55249L72.1961 0.824505L0.971967 42.3317L1.97898 44.0597ZM73.1535 2.57955C74.1075 2.09358 75.1625 1.84033 76.2325 1.84033V-0.159668C74.8468 -0.159668 73.4808 0.16831 72.2457 0.79744L73.1535 2.57955ZM76.2325 1.84033C77.3024 1.84033 78.3574 2.09358 79.3114 2.57955L80.2192 0.79744C78.9841 0.168309 77.6181 -0.159668 76.2325 -0.159668V1.84033ZM79.2644 2.55401L150.986 44.0612L151.988 42.3302L80.2662 0.822985L79.2644 2.55401Z" fill="#001021" mask="url(#path-1-inside-1)"/>
<path d="M151.756 47.3858C152.023 47.2614 152.269 47.0987 152.487 46.9039L152.5 52.2742L152.5 52.2772C152.504 52.7792 152.179 53.378 151.292 53.8937L151.292 53.8938L80.0361 95.394C79.0156 95.913 77.8873 96.1835 76.7428 96.1835C75.5981 96.1835 74.4696 95.9129 73.4489 95.3936L1.72568 53.8994L1.70383 53.8868L1.68081 53.8764C1.35619 53.73 1.07577 53.5003 0.868023 53.2102C0.664718 52.9264 0.538105 52.5947 0.500391 52.2474V46.8926C0.721642 47.092 0.972214 47.2586 1.24471 47.3859L72.9469 88.8816L72.9585 88.8883L72.9704 88.8944C74.1352 89.4877 75.4235 89.797 76.7302 89.797C78.037 89.797 79.3252 89.4877 80.49 88.8944L80.5026 88.888L80.5147 88.8809L151.756 47.3858Z" stroke="#001021"/>
</svg>
