<svg width="60" height="65" viewBox="0 0 60 65" fill="none" xmlns="http://www.w3.org/2000/svg">
<path d="M4.57143 59.5714H14.8571V49.2857H4.57143V59.5714ZM17.1429 59.5714H28.5714V49.2857H17.1429V59.5714ZM4.57143 47H14.8571V35.5714H4.57143V47ZM17.1429 47H28.5714V35.5714H17.1429V47ZM4.57143 33.2857H14.8571V23H4.57143V33.2857ZM30.8571 59.5714H42.2857V49.2857H30.8571V59.5714ZM17.1429 33.2857H28.5714V23H17.1429V33.2857ZM44.5714 59.5714H54.8571V49.2857H44.5714V59.5714ZM30.8571 47H42.2857V35.5714H30.8571V47ZM18.2857 16.1429V5.85714C18.2857 5.54762 18.1667 5.28571 17.9286 5.07143C17.7143 4.83333 17.4524 4.71428 17.1429 4.71428H14.8571C14.5476 4.71428 14.2738 4.83333 14.0357 5.07143C13.8214 5.28571 13.7143 5.54762 13.7143 5.85714V16.1429C13.7143 16.4524 13.8214 16.7262 14.0357 16.9643C14.2738 17.1786 14.5476 17.2857 14.8571 17.2857H17.1429C17.4524 17.2857 17.7143 17.1786 17.9286 16.9643C18.1667 16.7262 18.2857 16.4524 18.2857 16.1429ZM44.5714 47H54.8571V35.5714H44.5714V47ZM30.8571 33.2857H42.2857V23H30.8571V33.2857ZM44.5714 33.2857H54.8571V23H44.5714V33.2857ZM45.7143 16.1429V5.85714C45.7143 5.54762 45.5952 5.28571 45.3571 5.07143C45.1429 4.83333 44.881 4.71428 44.5714 4.71428H42.2857C41.9762 4.71428 41.7024 4.83333 41.4643 5.07143C41.25 5.28571 41.1429 5.54762 41.1429 5.85714V16.1429C41.1429 16.4524 41.25 16.7262 41.4643 16.9643C41.7024 17.1786 41.9762 17.2857 42.2857 17.2857H44.5714C44.881 17.2857 45.1429 17.1786 45.3571 16.9643C45.5952 16.7262 45.7143 16.4524 45.7143 16.1429ZM59.4286 13.8571V59.5714C59.4286 60.8095 58.9762 61.881 58.0714 62.7857C57.1667 63.6905 56.0952 64.1429 54.8571 64.1429H4.57143C3.33333 64.1429 2.2619 63.6905 1.35714 62.7857C0.452381 61.881 0 60.8095 0 59.5714V13.8571C0 12.619 0.452381 11.5476 1.35714 10.6429C2.2619 9.73809 3.33333 9.28571 4.57143 9.28571H9.14286V5.85714C9.14286 4.28571 9.70238 2.94047 10.8214 1.82143C11.9405 0.702377 13.2857 0.142853 14.8571 0.142853H17.1429C18.7143 0.142853 20.0595 0.702377 21.1786 1.82143C22.2976 2.94047 22.8571 4.28571 22.8571 5.85714V9.28571H36.5714V5.85714C36.5714 4.28571 37.131 2.94047 38.25 1.82143C39.369 0.702377 40.7143 0.142853 42.2857 0.142853H44.5714C46.1429 0.142853 47.4881 0.702377 48.6071 1.82143C49.7262 2.94047 50.2857 4.28571 50.2857 5.85714V9.28571H54.8571C56.0952 9.28571 57.1667 9.73809 58.0714 10.6429C58.9762 11.5476 59.4286 12.619 59.4286 13.8571Z" fill="white"/>
</svg>
