<svg width="64" height="48" viewBox="0 0 64 48" fill="none" xmlns="http://www.w3.org/2000/svg">
<path d="M49.5 36H52.375C53.125 36 54 35.25 54 34.5V5.625C54 4.875 53.125 4 52.375 4H49.5C48.75 4 48 4.875 48 5.625V34.5C48 35.25 48.75 36 49.5 36ZM25.5 36H28.375C29.125 36 30 35.25 30 34.5V9.625C30 8.875 29.125 8 28.375 8H25.5C24.75 8 24 8.875 24 9.625V34.5C24 35.25 24.75 36 25.5 36ZM37.5 36H40.375C41.125 36 42 35.25 42 34.5V17.625C42 16.875 41.125 16 40.375 16H37.5C36.75 16 36 16.875 36 17.625V34.5C36 35.25 36.75 36 37.5 36ZM62 42H6V2C6 1 5 0 4 0H2C0.875 0 0 1 0 2V44C0 46.25 1.75 48 4 48H62C63 48 64 47.125 64 46V44C64 43 63 42 62 42ZM13.5 36H16.375C17.125 36 18 35.25 18 34.5V25.625C18 24.875 17.125 24 16.375 24H13.5C12.75 24 12 24.875 12 25.625V34.5C12 35.25 12.75 36 13.5 36Z" fill="white"/>
</svg>
