<svg width="90" height="90" viewBox="0 0 90 90" fill="none" xmlns="http://www.w3.org/2000/svg">
<g clip-path="url(#clip0)">
<path d="M88.207 1.08908e-05H1.81805C1.57907 -0.000817479 1.34227 0.0456171 1.12132 0.13669C0.900372 0.227762 0.69963 0.361667 0.530643 0.530654C0.361656 0.699642 0.22777 0.900384 0.136697 1.12133C0.0456248 1.34228 -0.000848005 1.57906 -1.96355e-05 1.81804V88.1757C-0.000848005 88.4147 0.0456248 88.6515 0.136697 88.8724C0.22777 89.0934 0.361656 89.2941 0.530643 89.4631C0.69963 89.632 0.900372 89.7659 1.12132 89.857C1.34227 89.9481 1.57907 89.9945 1.81805 89.9937H88.207C88.6892 89.9937 89.1516 89.8022 89.4926 89.4612C89.8335 89.1203 90.0251 88.6579 90.0251 88.1757V1.81804C90.0251 1.33586 89.8335 0.873443 89.4926 0.532491C89.1516 0.19154 88.6892 1.08908e-05 88.207 1.08908e-05ZM86.3576 86.3388H3.6361V3.63611H86.3576V86.3388Z" fill="#E1E1E1"/>
<path d="M44.9937 79.0852C51.7369 79.0865 58.3291 77.0879 63.9364 73.3424C69.5437 69.5968 73.9143 64.2724 76.4954 58.0427C79.0765 51.813 79.7521 44.9578 78.4369 38.3441C77.1217 31.7304 73.8746 25.6553 69.1064 20.8871C64.3383 16.1189 58.2631 12.8719 51.6494 11.5566C45.0357 10.2414 38.1805 10.917 31.9508 13.4981C25.7211 16.0792 20.3967 20.4498 16.6512 26.0571C12.9056 31.6644 10.9071 38.2566 10.9083 44.9998C10.9183 54.0368 14.5126 62.7008 20.9027 69.0909C27.2928 75.481 35.9568 79.0753 44.9937 79.0852ZM22.2304 24.8006L27.7034 30.2736C24.6132 33.9054 22.7503 38.4212 22.3809 43.1755H14.6008C15.0032 36.3663 17.6914 29.8922 22.2304 24.8006ZM75.3929 43.1755H67.6442C67.2659 38.4176 65.3918 33.9014 62.2903 30.2736L67.7633 24.8006C72.2998 29.8937 74.9876 36.367 75.3929 43.1755ZM67.7633 65.1928L62.2903 59.7198C65.3869 56.0987 67.2607 51.5921 67.6442 46.8429H75.3929C74.982 53.6427 72.2946 60.1063 67.7633 65.1928ZM44.9937 38.6304C46.2537 38.6291 47.4858 39.0016 48.5341 39.7008C49.5824 40.3999 50.3997 41.3942 50.8828 42.558C51.3659 43.7217 51.4929 45.0026 51.2478 46.2386C51.0028 47.4746 50.3966 48.6101 49.5061 49.5015C48.6156 50.3929 47.4806 51.0001 46.2449 51.2464C45.0092 51.4927 43.7282 51.3669 42.5639 50.885C41.3997 50.4031 40.4046 49.5867 39.7044 48.5391C39.0042 47.4916 38.6305 46.2598 38.6305 44.9998C38.6322 43.3121 39.3029 41.6939 40.4957 40.5C41.6885 39.306 43.306 38.6337 44.9937 38.6304ZM39.3515 53.2312C40.5066 54.0269 41.8158 54.5715 43.1945 54.8298V64.0016C39.401 63.6381 35.8041 62.1443 32.8692 59.7135L39.3515 53.2312ZM46.8306 54.8298C48.2118 54.5736 49.5235 54.0289 50.6799 53.2312L57.1621 59.7135C54.2255 62.1455 50.6262 63.6394 46.8306 64.0016V54.8298ZM53.2502 50.6609C54.0459 49.5057 54.5905 48.1966 54.8488 46.8179H64.0143C63.6557 50.6114 62.1637 54.2091 59.7325 57.1432L53.2502 50.6609ZM54.8488 43.1755C54.5905 41.7968 54.0459 40.4876 53.2502 39.3325L59.7325 32.8502C62.1637 35.7842 63.6557 39.382 64.0143 43.1755H54.8488ZM50.6799 36.7621C49.5235 35.9644 48.2118 35.4197 46.8306 35.1635V25.998C50.6263 26.3554 54.2264 27.8475 57.1621 30.2798L50.6799 36.7621ZM43.1945 35.1635C41.8158 35.4218 40.5066 35.9664 39.3515 36.7621L32.8504 30.2798C35.7844 27.8486 39.3822 26.3566 43.1757 25.998L43.1945 35.1635ZM36.7623 39.32C35.9666 40.4751 35.422 41.7843 35.1637 43.1629H25.9919C26.3527 39.3689 27.8469 35.7711 30.28 32.8376L36.7623 39.32ZM35.1637 46.8429C35.422 48.2216 35.9666 49.5308 36.7623 50.6859L30.28 57.1682C27.8469 54.2348 26.3527 50.637 25.9919 46.8429H35.1637ZM30.2737 62.3152C33.9016 65.4167 38.4178 67.2908 43.1757 67.6691V75.4177C36.3672 75.0125 29.8939 72.3247 24.8008 67.7882L30.2737 62.3152ZM46.8118 67.6691C51.5718 67.2921 56.0904 65.4179 59.72 62.3152L65.1929 67.7882C60.0997 72.313 53.6316 74.9917 46.8306 75.3927L46.8118 67.6691ZM59.72 27.7283C56.0987 24.6201 51.587 22.7373 46.8306 22.3493V14.6007C53.6409 15.006 60.1162 17.6937 65.2118 22.2302L59.72 27.7283ZM43.1757 22.3744C38.4178 22.7527 33.9016 24.6268 30.2737 27.7283L24.8008 22.2553C29.8939 17.7188 36.3672 15.031 43.1757 14.6257V22.3744ZM22.3809 46.8429C22.7592 51.6008 24.6332 56.117 27.7347 59.7449L22.2618 65.2178C17.7114 60.1306 15.0119 53.656 14.6008 46.8429H22.3809Z" fill="#E1E1E1"/>
<path d="M13.6354 16.3624C14.174 16.3624 14.7005 16.2029 15.1486 15.9041C15.5966 15.6052 15.9461 15.1804 16.1531 14.6832C16.36 14.186 16.4151 13.6386 16.3114 13.1101C16.2077 12.5817 15.9498 12.0957 15.5703 11.7136C15.1908 11.3315 14.7066 11.0703 14.1789 10.9629C13.6511 10.8556 13.1034 10.9069 12.6048 11.1104C12.1062 11.314 11.679 11.6606 11.3771 12.1066C11.0751 12.5525 10.9121 13.0779 10.9084 13.6165C10.9059 13.9762 10.9746 14.3328 11.1105 14.6659C11.2464 14.9989 11.4469 15.3018 11.7004 15.557C11.9539 15.8122 12.2554 16.0148 12.5875 16.153C12.9196 16.2912 13.2757 16.3624 13.6354 16.3624Z" fill="#E1E1E1"/>
<path d="M13.6354 79.0855C14.1748 79.0855 14.702 78.9256 15.1505 78.6259C15.599 78.3263 15.9485 77.9003 16.1549 77.402C16.3613 76.9037 16.4153 76.3554 16.3101 75.8264C16.2049 75.2974 15.9451 74.8114 15.5637 74.43C15.1824 74.0487 14.6964 73.789 14.1674 73.6837C13.6384 73.5785 13.0901 73.6325 12.5918 73.8389C12.0935 74.0454 11.6676 74.3949 11.3679 74.8434C11.0683 75.2918 10.9083 75.819 10.9083 76.3584C10.9083 77.0817 11.1956 77.7753 11.7071 78.2867C12.2185 78.7982 12.9121 79.0855 13.6354 79.0855Z" fill="#E1E1E1"/>
<path d="M76.3583 73.6313C75.8189 73.6313 75.2917 73.7913 74.8432 74.091C74.3948 74.3906 74.0452 74.8165 73.8388 75.3148C73.6324 75.8131 73.5784 76.3614 73.6836 76.8904C73.7888 77.4194 74.0486 77.9054 74.43 78.2868C74.8114 78.6682 75.2973 78.9279 75.8263 79.0331C76.3553 79.1384 76.9036 79.0844 77.4019 78.8779C77.9002 78.6715 78.3262 78.322 78.6258 77.8735C78.9255 77.425 79.0854 76.8978 79.0854 76.3584C79.0854 75.6351 78.7981 74.9415 78.2867 74.4301C77.7752 73.9186 77.0816 73.6313 76.3583 73.6313Z" fill="#E1E1E1"/>
<path d="M76.3583 16.3624C76.8977 16.3624 77.4249 16.2024 77.8734 15.9028C78.3218 15.6031 78.6714 15.1772 78.8778 14.6789C79.0842 14.1806 79.1382 13.6322 79.033 13.1032C78.9277 12.5742 78.668 12.0883 78.2866 11.7069C77.9052 11.3256 77.4193 11.0658 76.8903 10.9606C76.3613 10.8554 75.813 10.9094 75.3147 11.1158C74.8164 11.3222 74.3905 11.6717 74.0908 12.1202C73.7912 12.5687 73.6312 13.0959 73.6312 13.6353C73.6312 14.3586 73.9186 15.0522 74.43 15.5636C74.9414 16.075 75.635 16.3624 76.3583 16.3624Z" fill="#E1E1E1"/>
</g>
<defs>
<clipPath id="clip0">
<rect width="90" height="90" fill="white"/>
</clipPath>
</defs>
</svg>
