<svg width="46" height="46" viewBox="0 0 46 46" fill="none" xmlns="http://www.w3.org/2000/svg">
<g clip-path="url(#clip0)">
<path d="M38.8509 36.8289L36.8287 38.8511L38.8509 40.8733L40.8731 38.8511L38.8509 36.8289Z" fill="#E1E1E1"/>
<path d="M43.906 33.7967L32.2236 22.1113L34.2412 20.0936C36.052 20.4195 37.9177 20.2391 39.6325 19.5724C41.3474 18.9056 42.8449 17.7784 43.96 16.3149C45.0751 14.8514 45.7646 13.1085 45.9524 11.2782C46.1402 9.44785 45.819 7.60124 45.0244 5.94179L44.1552 4.1148L39.0376 9.23844C38.7654 9.49894 38.4032 9.64434 38.0265 9.64434C37.6498 9.64434 37.2876 9.49894 37.0154 9.23844C36.8826 9.10571 36.7772 8.94807 36.7053 8.77459C36.6333 8.6011 36.5963 8.41516 36.5963 8.22736C36.5963 8.03956 36.6333 7.85361 36.7053 7.68013C36.7772 7.50664 36.8826 7.34904 37.0154 7.21631L42.136 2.09418L40.3106 1.22347C38.6511 0.429772 36.8049 0.109397 34.9751 0.297639C33.1452 0.485882 31.4029 1.17544 29.9398 2.29037C28.4767 3.40529 27.3497 4.90234 26.6828 6.61667C26.016 8.33101 25.8351 10.1961 26.1602 12.0067L22.1205 16.0464L15.2464 9.17386V4.75281L3.36136 0L0.00616455 3.35367L4.76049 15.2388H9.18154L16.0541 22.1128L1.9307 36.2361C1.3997 36.7671 0.978502 37.3975 0.691127 38.0913C0.403752 38.7851 0.255847 39.5287 0.255847 40.2796C0.255847 41.0306 0.403752 41.7742 0.691127 42.468C0.978502 43.1618 1.3997 43.7922 1.9307 44.3232C2.4617 44.8542 3.0921 45.2754 3.78588 45.5627C4.47967 45.8501 5.22327 45.998 5.97421 45.998C6.72516 45.998 7.46876 45.8501 8.16255 45.5627C8.85633 45.2754 9.48671 44.8542 10.0177 44.3232L22.119 32.2219L33.8028 43.9043C34.4665 44.5681 35.2544 45.0946 36.1216 45.4539C36.9888 45.8132 37.9182 45.9981 38.8569 45.9982C39.7955 45.9983 40.725 45.8134 41.5922 45.4543C42.4594 45.0952 43.2474 44.5687 43.9112 43.905C44.575 43.2414 45.1016 42.4535 45.4608 41.5863C45.8201 40.7191 46.005 39.7897 46.0051 38.851C46.0052 37.9124 45.8204 36.9829 45.4612 36.1157C45.1021 35.2484 44.5756 34.4604 43.912 33.7967H43.906ZM10.3645 12.379H6.69555L3.36286 4.04424L4.05191 3.35518L12.3866 6.68789V10.3583L20.0983 18.0685L18.0762 20.0921L10.3645 12.379ZM7.99558 42.3025C7.45084 42.8221 6.72698 43.1119 5.97421 43.1119C5.22145 43.1119 4.49759 42.8221 3.95284 42.3025C3.68641 42.0375 3.47497 41.7224 3.3307 41.3753C3.18643 41.0283 3.11215 40.6562 3.11215 40.2804C3.11215 39.9046 3.18643 39.5325 3.3307 39.1854C3.47497 38.8384 3.68641 38.5233 3.95284 38.2583L29.3232 12.8878L29.1116 12.0907C28.8256 11.0327 28.7874 9.92303 29 8.84789C29.2127 7.77274 29.6703 6.76111 30.3375 5.89162C31.0047 5.02213 31.8634 4.31818 32.8469 3.83453C33.8304 3.35088 34.9121 3.10056 36.0081 3.10298C36.3451 3.10332 36.6817 3.12689 37.0154 3.17354L34.9843 5.19416C34.1801 5.99847 33.7284 7.08927 33.7284 8.22662C33.7284 9.36397 34.1801 10.4547 34.9843 11.2591C36.6041 12.8789 39.4294 12.8789 41.0507 11.2591L43.0653 9.24445C43.2342 10.4137 43.11 11.6065 42.7038 12.7158C42.2976 13.8251 41.6221 14.8161 40.7381 15.5998C39.8541 16.3835 38.7893 16.9352 37.6393 17.2055C36.4893 17.4758 35.2901 17.4561 34.1496 17.1483L33.3525 16.9366L7.99558 42.3025ZM41.8898 41.8822C40.27 43.502 37.4448 43.502 35.825 41.8822L24.1411 30.1998L30.2075 24.1334L41.8898 35.8173C42.2882 36.2154 42.6042 36.6882 42.8198 37.2085C43.0354 37.7288 43.1464 38.2865 43.1464 38.8498C43.1464 39.413 43.0354 39.9706 42.8198 40.491C42.6042 41.0113 42.2882 41.484 41.8898 41.8822Z" fill="#E1E1E1"/>
</g>
<defs>
<clipPath id="clip0">
<rect width="46" height="46" fill="white"/>
</clipPath>
</defs>
</svg>
