<svg width="691" height="434" viewBox="0 0 691 434" fill="none" xmlns="http://www.w3.org/2000/svg">
<mask id="path-1-inside-1" fill="white">
<path d="M684.169 192.153C693.021 197.259 693.049 205.56 684.169 210.666L362.545 398.098C357.606 400.629 352.139 401.949 346.592 401.949C341.045 401.949 335.577 400.629 330.639 398.098L6.76615 210.694C-2.08563 205.56 -2.11409 197.259 6.76615 192.153L328.39 4.72113C333.333 2.20342 338.799 0.891113 344.343 0.891113C349.888 0.891113 355.354 2.20342 360.296 4.72113L684.169 192.153Z"/>
</mask>
<path d="M684.169 192.153C693.021 197.259 693.049 205.56 684.169 210.666L362.545 398.098C357.606 400.629 352.139 401.949 346.592 401.949C341.045 401.949 335.577 400.629 330.639 398.098L6.76615 210.694C-2.08563 205.56 -2.11409 197.259 6.76615 192.153L328.39 4.72113C333.333 2.20342 338.799 0.891113 344.343 0.891113C349.888 0.891113 355.354 2.20342 360.296 4.72113L684.169 192.153Z" fill="white"/>
<path d="M684.169 192.153L683.668 193.019L683.669 193.02L684.169 192.153ZM684.169 210.666L683.67 209.799L683.665 209.802L684.169 210.666ZM362.545 398.098L363.001 398.988L363.025 398.975L363.048 398.962L362.545 398.098ZM346.592 401.949V400.949V401.949ZM330.639 398.098L330.138 398.963L330.16 398.976L330.182 398.988L330.639 398.098ZM6.76615 210.694L6.2644 211.559L6.26531 211.56L6.76615 210.694ZM6.76615 192.153L7.2646 193.02L7.26965 193.017L6.76615 192.153ZM328.39 4.72113L327.936 3.83008L327.911 3.84291L327.887 3.85714L328.39 4.72113ZM344.343 0.891113V1.89111V0.891113ZM360.296 4.72113L360.797 3.85562L360.774 3.84222L360.75 3.83008L360.296 4.72113ZM683.669 193.02C687.913 195.468 689.815 198.542 689.818 201.411C689.821 204.278 687.927 207.351 683.67 209.799L684.667 211.533C689.291 208.874 691.822 205.244 691.818 201.408C691.814 197.574 689.276 193.945 684.668 191.287L683.669 193.02ZM683.665 209.802L362.041 397.234L363.048 398.962L684.672 211.53L683.665 209.802ZM362.089 397.208C357.291 399.667 351.98 400.949 346.592 400.949V402.949C352.297 402.949 357.921 401.591 363.001 398.988L362.089 397.208ZM346.592 400.949C341.203 400.949 335.892 399.667 331.095 397.208L330.182 398.988C335.262 401.591 340.886 402.949 346.592 402.949V400.949ZM331.139 397.232L7.26698 209.829L6.26531 211.56L330.138 398.963L331.139 397.232ZM7.26789 209.829C3.02305 207.367 1.11969 204.285 1.11664 201.412C1.1136 198.541 3.00784 195.468 7.26459 193.02L6.2677 191.286C1.64422 193.945 -0.887428 197.575 -0.883357 201.414C-0.879288 205.251 1.65747 208.887 6.2644 211.559L7.26789 209.829ZM7.26965 193.017L328.894 5.58512L327.887 3.85714L6.26264 191.289L7.26965 193.017ZM328.844 5.61219C333.646 3.16605 338.957 1.89111 344.343 1.89111V-0.108887C338.641 -0.108887 333.019 1.24078 327.936 3.83008L328.844 5.61219ZM344.343 1.89111C349.73 1.89111 355.04 3.16605 359.842 5.61219L360.75 3.83008C355.667 1.24078 350.045 -0.108887 344.343 -0.108887V1.89111ZM359.795 5.58664L683.668 193.019L684.67 191.288L360.797 3.85562L359.795 5.58664Z" fill="#001021" mask="url(#path-1-inside-1)"/>
<path d="M690.427 203.564L690.5 233.144V233.147C690.526 236.269 688.495 239.466 684.174 241.981L684.425 242.413L684.173 241.981L362.374 429.4C362.37 429.402 362.366 429.404 362.362 429.406C357.495 431.891 352.111 433.186 346.649 433.186C341.186 433.186 335.802 431.891 330.935 429.406L7.01658 242.009L6.99472 241.996L6.97171 241.986C5.22307 241.197 3.71314 239.96 2.59486 238.399C1.48121 236.844 0.795345 235.023 0.606014 233.118V203.473C0.842597 204.013 1.11986 204.537 1.43648 205.04C2.66718 206.995 4.43921 208.55 6.53632 209.513L330.388 396.933L330.4 396.94L330.412 396.946C335.425 399.5 340.968 400.831 346.592 400.831C352.215 400.831 357.759 399.5 362.772 396.946L362.784 396.94L362.797 396.933L684.57 209.513C686.665 208.554 688.433 206.998 689.65 205.038C689.945 204.564 690.204 204.071 690.427 203.564Z" stroke="#001021"/>
</svg>
