<svg width="51" height="39" viewBox="0 0 51 39" fill="none" xmlns="http://www.w3.org/2000/svg">
<g clip-path="url(#clip0)">
<path d="M51 17.3836L45.7772 9.3949C45.1967 8.5023 44.4084 7.77022 43.4827 7.26405C42.557 6.75789 41.5227 6.49342 40.4723 6.49426H31.8758C31.8741 4.77084 31.2017 3.11854 30.0063 1.90006C28.811 0.681576 27.1903 -0.0035278 25.5 -0.00488281H6.37415V3.24554H25.5C26.3423 3.24869 27.1493 3.59125 27.7449 4.19854C28.3405 4.80584 28.6765 5.6286 28.6795 6.48744V30.875H25.2657C24.9186 29.4806 24.1255 28.244 23.0119 27.3607C21.8982 26.4774 20.5276 25.9978 19.1166 25.9978C17.7057 25.9978 16.335 26.4774 15.2214 27.3607C14.1077 28.244 13.3146 29.4806 12.9675 30.875H9.5537V19.4994H6.37415V34.1254H12.9759C13.323 35.5198 14.1161 36.7565 15.2297 37.6398C16.3434 38.5231 17.7141 39.0026 19.125 39.0026C20.5359 39.0026 21.9066 38.5231 23.0203 37.6398C24.1339 36.7565 24.927 35.5198 25.2741 34.1254H35.288C35.6351 35.5198 36.4282 36.7565 37.5418 37.6398C38.6555 38.5231 40.0261 39.0026 41.4371 39.0026C42.848 39.0026 44.2187 38.5231 45.3323 37.6398C46.446 36.7565 47.2391 35.5198 47.5862 34.1254H51V17.3836ZM19.1242 35.7583C18.4953 35.7583 17.8806 35.5682 17.3577 35.212C16.8348 34.8557 16.4273 34.3494 16.1866 33.7571C15.946 33.1647 15.883 32.5128 16.0057 31.884C16.1284 31.2551 16.4312 30.6775 16.8759 30.2241C17.3205 29.7707 17.8871 29.4619 18.5038 29.3368C19.1206 29.2117 19.7599 29.2759 20.3409 29.5213C20.9219 29.7667 21.4185 30.1822 21.7678 30.7153C22.1172 31.2485 22.3037 31.8753 22.3037 32.5164C22.3011 33.3754 21.9652 34.1984 21.3695 34.8058C20.7738 35.4132 19.9666 35.7556 19.1242 35.7583ZM40.4723 9.75833C40.9972 9.75754 41.5142 9.88926 41.977 10.1417C42.4398 10.3942 42.8341 10.7596 43.1247 11.2052L46.4281 16.2592H31.8691V9.75833H40.4723ZM41.4379 35.7583C40.8091 35.7583 40.1943 35.5682 39.6715 35.212C39.1486 34.8557 38.741 34.3494 38.5004 33.7571C38.2597 33.1647 38.1968 32.5128 38.3195 31.884C38.4421 31.2551 38.745 30.6775 39.1896 30.2241C39.6343 29.7707 40.2008 29.4619 40.8176 29.3368C41.4344 29.2117 42.0737 29.2759 42.6547 29.5213C43.2357 29.7667 43.7322 30.1822 44.0816 30.7153C44.431 31.2485 44.6175 31.8753 44.6175 32.5164C44.6144 33.3753 44.2784 34.198 43.6828 34.8053C43.0872 35.4126 42.2802 35.7552 41.4379 35.7583ZM47.5895 30.875C47.2424 29.4806 46.4493 28.244 45.3357 27.3607C44.222 26.4774 42.8514 25.9978 41.4404 25.9978C40.0295 25.9978 38.6588 26.4774 37.5452 27.3607C36.4315 28.244 35.6384 29.4806 35.2913 30.875H31.8758V19.4994H47.8121V30.875H47.5895Z" fill="#E1E1E1"/>
<path d="M19.1258 13H3.18793V16.2504H19.1258V13Z" fill="#E1E1E1"/>
<path d="M15.9379 6.50098H0V9.7514H15.9379V6.50098Z" fill="#E1E1E1"/>
</g>
<defs>
<clipPath id="clip0">
<rect width="51" height="39" fill="white"/>
</clipPath>
</defs>
</svg>
