<svg width="90" height="89" viewBox="0 0 90 89" fill="none" xmlns="http://www.w3.org/2000/svg">
<g clip-path="url(#clip0)">
<path d="M71.1242 88.9979C67.7793 88.9967 64.5272 87.895 61.8678 85.862C59.2084 83.829 57.2888 80.9772 56.4039 77.7447C55.5191 74.5123 55.718 71.0782 56.97 67.97C58.222 64.8618 60.4579 62.2516 63.3341 60.5404V20.4021C63.3177 19.366 63.5072 18.3369 63.8916 17.3748C64.276 16.4127 64.8475 15.5369 65.573 14.7984C66.2985 14.0598 67.1633 13.4733 68.1172 13.0729C69.0711 12.6725 70.0949 12.4663 71.1291 12.4663C72.1633 12.4663 73.1871 12.6725 74.141 13.0729C75.0949 13.4733 75.9597 14.0598 76.6852 14.7984C77.4106 15.5369 77.9822 16.4127 78.3666 17.3748C78.751 18.3369 78.9405 19.366 78.9241 20.4021V60.5404C81.7996 62.2529 84.0343 64.8641 85.2851 67.9729C86.5359 71.0816 86.7336 74.5158 85.8477 77.748C84.9618 80.9802 83.0413 83.8315 80.3814 85.8639C77.7215 87.8963 74.4692 88.9973 71.1242 88.9979ZM71.1242 15.7219C69.8872 15.7245 68.7017 16.2188 67.828 17.0962C66.9542 17.9736 66.4634 19.1626 66.4634 20.4021V62.4258L65.6107 62.8609C63.1862 64.1022 61.2492 66.1251 60.1115 68.6036C58.9737 71.0822 58.7014 73.8724 59.3385 76.5248C59.9756 79.1773 61.4849 81.5378 63.6235 83.2262C65.7621 84.9146 68.4055 85.8327 71.1281 85.8327C73.8507 85.8327 76.4941 84.9146 78.6327 83.2262C80.7713 81.5378 82.2806 79.1773 82.9177 76.5248C83.5548 73.8724 83.2825 71.0822 82.1448 68.6036C81.007 66.1251 79.07 64.1022 76.6455 62.8609L75.7948 62.4239V20.4021C75.7922 19.1622 75.2991 17.9739 74.4236 17.0977C73.5481 16.2215 72.3616 15.7288 71.1242 15.7278V15.7219Z" fill="#E1E1E1"/>
<path d="M71.1261 82.2365C69.4309 82.2368 67.7738 81.7335 66.3641 80.79C64.9544 79.8466 63.8556 78.5054 63.2066 76.9362C62.5576 75.3669 62.3876 73.6401 62.7181 71.974C63.0486 70.3079 63.8647 68.7774 65.0632 67.5762C66.2617 66.3749 67.7888 65.5568 69.4514 65.2252C71.114 64.8937 72.8373 65.0637 74.4035 65.7136C75.9696 66.3636 77.3083 67.4643 78.2501 68.8767C79.1919 70.2891 79.6947 71.9496 79.6947 73.6483C79.6921 75.9248 78.7885 78.1075 77.1822 79.7175C75.5759 81.3274 73.398 82.2333 71.1261 82.2365ZM71.1261 68.1978C70.0498 68.1974 68.9975 68.5169 68.1024 69.1159C67.2073 69.7149 66.5096 70.5664 66.0975 71.5628C65.6855 72.5591 65.5776 73.6556 65.7875 74.7134C65.9973 75.7712 66.5156 76.743 67.2767 77.5056C68.0378 78.2683 69.0075 78.7876 70.0631 78.9979C71.1188 79.2082 72.213 79.1001 73.2073 78.6872C74.2016 78.2743 75.0514 77.5751 75.6491 76.6782C76.2469 75.7812 76.5657 74.7268 76.5653 73.6483C76.5632 72.2033 75.9895 70.8182 74.9699 69.7965C73.9503 68.7748 72.568 68.1999 71.1261 68.1978Z" fill="#E1E1E1"/>
<path d="M72.6889 49.8062H69.5595V66.6317H72.6889V49.8062Z" fill="#E1E1E1"/>
<path d="M89.9981 23.9692H83.268V27.105H89.9981V23.9692Z" fill="#E1E1E1"/>
<path d="M89.9981 32.1245H83.268V35.2603H89.9981V32.1245Z" fill="#E1E1E1"/>
<path d="M89.9981 40.2793H83.268V43.4151H89.9981V40.2793Z" fill="#E1E1E1"/>
<path d="M25.4025 0H22.2731V25.5372H25.4025V0Z" fill="#E1E1E1"/>
<path d="M30.0082 1.50002L22.7336 8.78955L24.9464 11.0069L32.2209 3.71737L30.0082 1.50002Z" fill="#E1E1E1"/>
<path d="M17.6679 1.52728L15.4551 3.74463L22.7297 11.0342L24.9425 8.81683L17.6679 1.52728Z" fill="#E1E1E1"/>
<path d="M2.54887 11.4113L0.984192 14.127L23.0562 26.8965L24.6209 24.1808L2.54887 11.4113Z" fill="#E1E1E1"/>
<path d="M9.19276 7.36613L6.17004 8.17773L8.83271 18.1354L11.8554 17.3238L9.19276 7.36613Z" fill="#E1E1E1"/>
<path d="M9.92735 16.2298L-0.00982666 18.8979L0.800108 21.9269L10.7373 19.2588L9.92735 16.2298Z" fill="#E1E1E1"/>
<path d="M23.0502 24.1957L0.978149 36.9653L2.54282 39.681L24.6148 26.9114L23.0502 24.1957Z" fill="#E1E1E1"/>
<path d="M0.808103 29.1581L-0.00183105 32.187L9.93537 34.8552L10.7453 31.8262L0.808103 29.1581Z" fill="#E1E1E1"/>
<path d="M8.83863 32.9568L6.17596 42.9146L9.19868 43.7262L11.8613 33.7684L8.83863 32.9568Z" fill="#E1E1E1"/>
<path d="M25.4025 25.5371H22.2731V51.0743H25.4025V25.5371Z" fill="#E1E1E1"/>
<path d="M22.735 40.0137L15.4605 47.3032L17.6733 49.5206L24.9478 42.231L22.735 40.0137Z" fill="#E1E1E1"/>
<path d="M24.944 40.0405L22.7313 42.2578L30.0058 49.5474L32.2186 47.33L24.944 40.0405Z" fill="#E1E1E1"/>
<path d="M24.6195 24.1779L23.0549 26.8936L45.1252 39.6622L46.6899 36.9465L24.6195 24.1779Z" fill="#E1E1E1"/>
<path d="M38.8424 32.9379L35.8196 33.7495L38.4823 43.7072L41.505 42.8956L38.8424 32.9379Z" fill="#E1E1E1"/>
<path d="M46.8775 29.1443L36.9403 31.8125L37.7502 34.8415L47.6874 32.1733L46.8775 29.1443Z" fill="#E1E1E1"/>
<path d="M45.1213 11.4287L23.051 24.1973L24.6156 26.913L46.686 14.1443L45.1213 11.4287Z" fill="#E1E1E1"/>
<path d="M37.7418 16.223L36.9319 19.252L46.8691 21.9201L47.679 18.8912L37.7418 16.223Z" fill="#E1E1E1"/>
<path d="M40.8485 6.33186L38.1736 16.3315L41.2091 17.1469L43.8839 7.14717L40.8485 6.33186Z" fill="#E1E1E1"/>
</g>
<defs>
<clipPath id="clip0">
<rect width="90" height="89" fill="white"/>
</clipPath>
</defs>
</svg>
