<svg width="90" height="87" viewBox="0 0 90 87" fill="none" xmlns="http://www.w3.org/2000/svg">
<path d="M71.5221 87.0001C68.2471 86.9997 65.0628 85.9288 62.4588 83.952C59.8548 81.9751 57.9752 79.2018 57.1089 76.0583C56.2426 72.9149 56.4376 69.5752 57.6638 66.5527C58.8901 63.5303 61.0797 60.9922 63.8962 59.3289V20.3023C63.8962 18.2883 64.7 16.3568 66.1309 14.9327C67.5617 13.5086 69.5024 12.7085 71.5259 12.7085C73.5495 12.7085 75.4901 13.5086 76.921 14.9327C78.3518 16.3568 79.1557 18.2883 79.1557 20.3023V59.3308C81.9703 60.9958 84.1579 63.5345 85.3824 66.5569C86.6069 69.5794 86.8005 72.9183 85.9335 76.0609C85.0666 79.2035 83.1869 81.9758 80.5833 83.952C77.9798 85.9283 74.7964 86.9991 71.5221 87.0001ZM71.5221 15.7536C70.3115 15.7562 69.1513 16.2365 68.296 17.0892C67.4407 17.9419 66.9601 19.0974 66.9596 20.3023V61.1621L66.1248 61.587C63.7515 62.794 61.8553 64.7608 60.7415 67.1707C59.6278 69.5806 59.3612 72.2935 59.9849 74.8725C60.6085 77.4515 62.0861 79.7466 64.1795 81.3882C66.273 83.0299 68.8607 83.9226 71.5259 83.9226C74.1911 83.9226 76.7788 83.0299 78.8723 81.3882C80.9658 79.7466 82.4433 77.4515 83.067 74.8725C83.6906 72.2935 83.4241 69.5806 82.3103 67.1707C81.1966 64.7608 79.3004 62.794 76.927 61.587L76.0923 61.1621V20.3023C76.0913 19.0962 75.6094 17.9399 74.7526 17.087C73.8957 16.2342 72.7339 15.7546 71.5221 15.7536Z" fill="#E1E1E1"/>
<path d="M71.524 80.4239C69.865 80.4239 68.2433 79.9343 66.8639 79.0169C65.4846 78.0996 64.4095 76.7958 63.7746 75.2703C63.1398 73.7448 62.9736 72.0662 63.2973 70.4468C63.6209 68.8274 64.4198 67.3398 65.5929 66.1723C66.766 65.0047 68.2605 64.2096 69.8876 63.8875C71.5147 63.5653 73.2012 63.7307 74.7339 64.3626C76.2666 64.9944 77.5766 66.0644 78.4983 67.4373C79.42 68.8102 79.9119 70.4243 79.9119 72.0755C79.9094 74.2888 79.0249 76.4108 77.4524 77.9759C75.8799 79.541 73.7479 80.4214 71.524 80.4239ZM71.524 66.776C70.4709 66.776 69.4415 67.0868 68.5659 67.6691C67.6902 68.2514 67.0078 69.0791 66.6048 70.0475C66.2018 71.0158 66.0964 72.0814 66.3018 73.1094C66.5072 74.1374 67.0144 75.0816 67.759 75.8227C68.5037 76.5639 69.4524 77.0686 70.4852 77.2731C71.5181 77.4776 72.5887 77.3727 73.5616 76.9715C74.5345 76.5704 75.3662 75.8912 75.9512 75.0197C76.5363 74.1482 76.8486 73.1236 76.8486 72.0755C76.845 70.6716 76.2827 69.3263 75.2848 68.3341C74.2868 67.3419 72.9346 66.7837 71.524 66.7817V66.776Z" fill="#E1E1E1"/>
<path d="M73.0538 27.0405H69.9904V65.2496H73.0538V27.0405Z" fill="#E1E1E1"/>
<path d="M90 23.7725H83.4118V26.8214H90V23.7725Z" fill="#E1E1E1"/>
<path d="M90 31.6997H83.4118V34.7487H90V31.6997Z" fill="#E1E1E1"/>
<path d="M90 39.6289H83.4118V42.6779H90V39.6289Z" fill="#E1E1E1"/>
<path d="M5.02965 54.1075L3.07676 51.7597C3.10739 51.7331 6.65326 48.7298 7.01512 44.4232C7.23722 41.7973 6.23011 39.16 4.02448 36.5855C-0.698857 31.0726 -0.415469 26.2153 0.652883 23.111C1.3749 21.0444 2.58503 19.1805 4.18149 17.6763L6.20142 19.963C5.91422 20.2164 -0.765836 26.2876 6.35459 34.6017C9.11929 37.8279 10.3752 41.2294 10.0651 44.7014C9.57686 50.3 5.21537 53.955 5.02965 54.1075Z" fill="#E1E1E1"/>
<path d="M48.1945 54.1075L46.2416 51.7597C46.2742 51.7331 49.8181 48.7298 50.1819 44.4232C50.4021 41.7973 49.3969 39.16 47.1893 36.5855C42.4679 31.0726 42.7494 26.2153 43.8177 23.111C44.5408 21.0444 45.7516 19.1807 47.3483 17.6763L49.3624 19.9725L48.3553 18.8292L49.3682 19.9725C49.081 20.226 42.4009 26.2972 49.5214 34.6113C52.2861 37.8375 53.542 41.2389 53.2299 44.7109C52.7436 50.3001 48.3802 53.955 48.1945 54.1075Z" fill="#E1E1E1"/>
<path d="M26.613 36.4331L24.6582 34.0835C24.6908 34.0568 28.2347 31.0536 28.5985 26.7488C28.8187 24.121 27.8135 21.4837 25.6079 18.9092C20.8845 13.3963 21.166 8.53898 22.2344 5.43476C22.9581 3.3685 24.1688 1.5049 25.7649 0L27.7848 2.28672C27.4976 2.54207 20.8176 8.61331 27.938 16.9255C30.7027 20.1536 31.9586 23.5532 31.6485 27.0252C31.1603 32.6257 26.7988 36.2787 26.613 36.4331Z" fill="#E1E1E1"/>
</svg>
