<svg width="90" height="54" viewBox="0 0 90 54" fill="none" xmlns="http://www.w3.org/2000/svg">
<g clip-path="url(#clip0)">
<path d="M22.2515 54H21.9707C20.6683 53.9986 19.4197 53.4773 18.4987 52.5503C17.5776 51.6233 17.0593 50.3663 17.0575 49.0552V4.94661C17.0593 3.63526 17.5776 2.37815 18.4986 1.45088C19.4196 0.523618 20.6682 0.0018581 21.9707 0H22.2515C23.5541 0.00139447 24.803 0.523003 25.7241 1.45037C26.6452 2.37774 27.1633 3.63512 27.1646 4.94661V49.0622C27.1614 50.3723 26.6425 51.6277 25.7215 52.5533C24.8006 53.4788 23.5527 53.9991 22.2515 54ZM21.9707 2.80957C21.4079 2.81004 20.8682 3.03534 20.4703 3.43601C20.0723 3.83668 19.8485 4.37998 19.8481 4.94661V49.0622C19.849 49.6285 20.073 50.1713 20.4709 50.5716C20.8688 50.9719 21.4082 51.197 21.9707 51.1975H22.2515C22.8141 51.1975 23.3537 50.9725 23.7518 50.5722C24.1498 50.1718 24.3736 49.6287 24.3741 49.0622V4.94661C24.3736 4.38028 24.1501 3.83725 23.7525 3.43663C23.3549 3.03601 22.8157 2.8105 22.2532 2.80957H21.9707Z" fill="#E1E1E1"/>
<path d="M33.8516 54H33.5708C32.2685 53.9986 31.0198 53.4773 30.0988 52.5503C29.1777 51.6233 28.6595 50.3663 28.6576 49.0552V4.94661C28.6595 3.63526 29.1777 2.37815 30.0987 1.45088C31.0197 0.523618 32.2683 0.0018581 33.5708 0H33.8516C35.1539 0.0018591 36.4024 0.523675 37.3231 1.45099C38.2438 2.37831 38.7616 3.63542 38.763 4.94661V49.0622C38.7598 50.372 38.2411 51.6271 37.3205 52.5527C36.3999 53.4782 35.1526 53.9986 33.8516 54ZM33.5708 2.80957C33.008 2.81004 32.4684 3.03534 32.0704 3.43601C31.6724 3.83668 31.4487 4.37998 31.4482 4.94661V49.0622C31.4491 49.6285 31.6731 50.1713 32.071 50.5716C32.4689 50.9719 33.0083 51.197 33.5708 51.1975H33.8516C34.4139 51.197 34.9531 50.9719 35.3508 50.5715C35.7484 50.1712 35.972 49.6284 35.9724 49.0622V4.94661C35.972 4.38028 35.7485 3.83725 35.3509 3.43663C34.9533 3.03601 34.4141 2.8105 33.8516 2.80957H33.5708Z" fill="#E1E1E1"/>
<path d="M45.4517 54H45.1709C43.8687 53.9986 42.6203 53.4772 41.6995 52.5502C40.7788 51.6231 40.2608 50.3662 40.2595 49.0552V4.94661C40.2608 3.63542 40.7787 2.37831 41.6994 1.45099C42.6201 0.523675 43.8686 0.0018591 45.1709 0H45.4517C46.7536 0.00278652 48.0013 0.524961 48.9216 1.45213C49.8418 2.37929 50.3596 3.63587 50.3614 4.94661V49.0622C50.3577 50.3715 49.8391 51.6261 48.919 52.5515C47.9989 53.4769 46.7522 53.9977 45.4517 54ZM45.1709 2.80957C44.6084 2.8105 44.0692 3.03601 43.6716 3.43663C43.2741 3.83725 43.0505 4.38028 43.0501 4.94661V49.0622C43.0505 49.6284 43.2741 50.1712 43.6718 50.5715C44.0694 50.9719 44.6086 51.197 45.1709 51.1975H45.4517C46.0136 51.1961 46.5521 50.9706 46.9492 50.5704C47.3464 50.1702 47.5699 49.6279 47.5708 49.0622V4.94661C47.5704 4.37998 47.3466 3.83668 46.9486 3.43601C46.5507 3.03534 46.011 2.81004 45.4482 2.80957H45.1709Z" fill="#E1E1E1"/>
<path d="M57.0519 54H56.7711C55.4689 53.9986 54.2205 53.4772 53.2997 52.5502C52.3789 51.6231 51.861 50.3662 51.8596 49.0552V4.94661C51.861 3.63542 52.3789 2.37831 53.2996 1.45099C54.2203 0.523675 55.4687 0.0018591 56.7711 0H57.0519C58.3544 0.0018581 59.603 0.523618 60.524 1.45088C61.445 2.37815 61.9632 3.63526 61.9651 4.94661V49.0622C61.9614 50.3722 61.4423 51.6273 60.5214 52.5528C59.6006 53.4782 58.353 53.9986 57.0519 54ZM56.7711 2.80957C56.2086 2.8105 55.6694 3.03601 55.2718 3.43663C54.8742 3.83725 54.6507 4.38028 54.6502 4.94661V49.0622C54.6507 49.6284 54.8743 50.1712 55.2719 50.5715C55.6696 50.9719 56.2087 51.197 56.7711 51.1975H57.0519C57.6144 51.197 58.1537 50.9719 58.5516 50.5716C58.9495 50.1713 59.1735 49.6285 59.1745 49.0622V4.94661C59.174 4.37998 58.9502 3.83668 58.5523 3.43601C58.1543 3.03534 57.6147 2.81004 57.0519 2.80957H56.7711Z" fill="#E1E1E1"/>
<path d="M68.652 54H68.3729C67.0717 53.9991 65.8239 53.4788 64.9029 52.5533C63.982 51.6277 63.463 50.3723 63.4598 49.0622V4.94661C63.4612 3.63512 63.9793 2.37774 64.9004 1.45037C65.8214 0.523003 67.0703 0.00139447 68.3729 0H68.652C69.9533 0.00371408 71.2001 0.526294 72.1196 1.45336C73.0391 2.38042 73.5563 3.63648 73.5582 4.94661V49.0622C73.5545 50.3709 73.0364 51.625 72.117 52.5503C71.1977 53.4755 69.9519 53.9968 68.652 54ZM68.3729 2.80957C67.8101 2.81004 67.2705 3.03534 66.8726 3.43601C66.4746 3.83668 66.2508 4.37998 66.2504 4.94661V49.0622C66.2513 49.6285 66.4753 50.1713 66.8732 50.5716C67.2711 50.9719 67.8104 51.197 68.3729 51.1975H68.652C69.2133 51.1951 69.7509 50.9693 70.1473 50.5692C70.5437 50.1691 70.7667 49.6273 70.7676 49.0622V4.94661C70.7671 4.37998 70.5434 3.83668 70.1454 3.43601C69.7475 3.03534 69.2078 2.81004 68.645 2.80957H68.3729Z" fill="#E1E1E1"/>
<path d="M18.4528 16.0125H14.0314C12.8455 16.0112 11.7086 15.5361 10.8702 14.6917C10.0318 13.8473 9.56043 12.7024 9.55951 11.5085V10.3407C9.56089 9.14706 10.0325 8.00268 10.8708 7.15862C11.7092 6.31457 12.8458 5.83977 14.0314 5.83838H18.4528V8.64795H14.0314C13.5856 8.64842 13.1583 8.82691 12.8431 9.14427C12.5278 9.46162 12.3506 9.89192 12.3501 10.3407V11.5085C12.3506 11.9574 12.5278 12.3879 12.843 12.7055C13.1581 13.0232 13.5855 13.202 14.0314 13.203H18.4528V16.0125Z" fill="#E1E1E1"/>
<path d="M30.0529 13.2017H25.7676V16.0112H30.0529V13.2017Z" fill="#E1E1E1"/>
<path d="M41.6547 13.2017H37.3694V16.0112H41.6547V13.2017Z" fill="#E1E1E1"/>
<path d="M53.2549 13.2017H48.9696V16.0112H53.2549V13.2017Z" fill="#E1E1E1"/>
<path d="M64.855 13.2017H60.5697V16.0112H64.855V13.2017Z" fill="#E1E1E1"/>
<path d="M75.9686 16.0125H72.1629V13.203H75.9616C76.4075 13.202 76.8349 13.0232 77.1501 12.7055C77.4652 12.3879 77.6425 11.9574 77.6429 11.5085V10.3407C77.6425 9.89192 77.4652 9.46162 77.15 9.14427C76.8348 8.82691 76.4074 8.64842 75.9616 8.64795H72.1629V5.83838H75.9616C77.1472 5.83977 78.2838 6.31457 79.1222 7.15862C79.9605 8.00268 80.4321 9.14706 80.4335 10.3407V11.5085C80.4326 12.7012 79.9622 13.845 79.1253 14.6892C78.2884 15.5334 77.1533 16.0093 75.9686 16.0125Z" fill="#E1E1E1"/>
<path d="M64.855 5.83691H60.5697V8.64649H64.855V5.83691Z" fill="#E1E1E1"/>
<path d="M53.2549 5.83691H48.9696V8.64649H53.2549V5.83691Z" fill="#E1E1E1"/>
<path d="M41.6547 5.83691H37.3694V8.64649H41.6547V5.83691Z" fill="#E1E1E1"/>
<path d="M30.0529 5.83691H25.7676V8.64649H30.0529V5.83691Z" fill="#E1E1E1"/>
<path d="M18.4528 48.4774H14.0314C12.8458 48.476 11.7092 48.0012 10.8708 47.1572C10.0325 46.3131 9.56089 45.1687 9.55951 43.9751V42.8056C9.56089 41.6119 10.0325 40.4675 10.8708 39.6235C11.7092 38.7794 12.8458 38.3046 14.0314 38.3032H18.4528V41.1128H14.0314C13.5856 41.1133 13.1583 41.2918 12.8431 41.6091C12.5278 41.9265 12.3506 42.3568 12.3501 42.8056V43.9698C12.351 44.4184 12.5284 44.8485 12.8435 45.1657C13.1587 45.483 13.5858 45.6616 14.0314 45.6626H18.4528V48.4774Z" fill="#E1E1E1"/>
<path d="M30.0529 45.668H25.7676V48.4775H30.0529V45.668Z" fill="#E1E1E1"/>
<path d="M41.6547 45.668H37.3694V48.4775H41.6547V45.668Z" fill="#E1E1E1"/>
<path d="M53.2549 45.668H48.9696V48.4775H53.2549V45.668Z" fill="#E1E1E1"/>
<path d="M64.855 45.668H60.5697V48.4775H64.855V45.668Z" fill="#E1E1E1"/>
<path d="M75.9686 48.4774H72.1629V45.6678H75.9616C76.4072 45.6669 76.8343 45.4883 77.1495 45.171C77.4646 44.8537 77.642 44.4237 77.6429 43.9751V42.8056C77.6425 42.3568 77.4652 41.9265 77.15 41.6091C76.8348 41.2918 76.4074 41.1133 75.9616 41.1128H72.1629V38.3032H75.9616C77.1472 38.3046 78.2838 38.7794 79.1222 39.6235C79.9605 40.4675 80.4321 41.6119 80.4335 42.8056V43.9698C80.4335 45.1632 79.9635 46.3078 79.1265 47.1528C78.2895 47.9978 77.1539 48.4741 75.9686 48.4774Z" fill="#E1E1E1"/>
<path d="M64.855 38.3032H60.5697V41.1128H64.855V38.3032Z" fill="#E1E1E1"/>
<path d="M53.2549 38.3032H48.9696V41.1128H53.2549V38.3032Z" fill="#E1E1E1"/>
<path d="M41.6547 38.3032H37.3694V41.1128H41.6547V38.3032Z" fill="#E1E1E1"/>
<path d="M30.0529 38.3032H25.7676V41.1128H30.0529V38.3032Z" fill="#E1E1E1"/>
<path d="M10.9565 42.5684H5.10327V45.3779H10.9565V42.5684Z" fill="#E1E1E1"/>
<path d="M6.49856 31.627H3.70798V52.1439H6.49856V31.627Z" fill="#E1E1E1"/>
<path d="M5.1033 33.2829C4.09396 33.2829 3.10729 32.9815 2.26806 32.4169C1.42883 31.8524 0.774728 31.0499 0.388472 30.1111C0.00221608 29.1722 -0.0988527 28.1391 0.0980589 27.1425C0.29497 26.1458 0.781019 25.2303 1.49473 24.5117C2.20843 23.7932 3.11775 23.3038 4.10769 23.1056C5.09763 22.9073 6.12373 23.0091 7.05623 23.3979C7.98874 23.7868 8.78576 24.4454 9.34652 25.2903C9.90727 26.1353 10.2066 27.1286 10.2066 28.1448C10.2052 29.5071 9.66709 30.8132 8.71033 31.7764C7.75358 32.7397 6.45635 33.2815 5.1033 33.2829ZM5.1033 25.8182C4.64581 25.8182 4.1986 25.9548 3.81824 26.2107C3.43789 26.4666 3.14147 26.8304 2.96648 27.2559C2.79148 27.6815 2.74578 28.1498 2.83516 28.6015C2.92453 29.0532 3.14498 29.4681 3.46859 29.7937C3.7922 30.1192 4.20444 30.3409 4.65317 30.4305C5.10191 30.5202 5.56698 30.4738 5.98954 30.2973C6.4121 30.1208 6.77317 29.8221 7.02709 29.4389C7.281 29.0558 7.41634 28.6054 7.416 28.1448C7.41508 27.5278 7.17106 26.9362 6.73749 26.5C6.30393 26.0639 5.71622 25.8186 5.1033 25.8182Z" fill="#E1E1E1"/>
<path d="M84.8985 42.5684H79.0452V45.3779H84.8985V42.5684Z" fill="#E1E1E1"/>
<path d="M86.2937 31.627H83.5031V52.1439H86.2937V31.627Z" fill="#E1E1E1"/>
<path d="M84.895 33.2829C83.8856 33.2829 82.899 32.9815 82.0597 32.4169C81.2205 31.8524 80.5664 31.0499 80.1802 30.1111C79.7939 29.1722 79.6928 28.1391 79.8897 27.1425C80.0867 26.1458 80.5727 25.2303 81.2864 24.5117C82.0001 23.7932 82.9094 23.3038 83.8994 23.1056C84.8893 22.9073 85.9154 23.0091 86.8479 23.3979C87.7804 23.7868 88.5774 24.4454 89.1382 25.2903C89.699 26.1353 89.9982 27.1286 89.9982 28.1448C89.9973 29.5072 89.4594 30.8136 88.5025 31.7769C87.5457 32.7403 86.2482 33.2819 84.895 33.2829ZM84.895 25.8182C84.4375 25.8182 83.9903 25.9548 83.6099 26.2107C83.2296 26.4666 82.9331 26.8304 82.7581 27.2559C82.5832 27.6815 82.5375 28.1498 82.6268 28.6015C82.7162 29.0532 82.9367 29.4681 83.2603 29.7937C83.5839 30.1192 83.9961 30.3409 84.4448 30.4305C84.8936 30.5202 85.3586 30.4738 85.7812 30.2973C86.2038 30.1208 86.5648 29.8221 86.8187 29.4389C87.0727 29.0558 87.208 28.6054 87.2077 28.1448C87.2072 27.5276 86.9633 26.9358 86.5297 26.4995C86.096 26.0632 85.508 25.8182 84.895 25.8182Z" fill="#E1E1E1"/>
</g>
<defs>
<clipPath id="clip0">
<rect width="90" height="54" fill="white"/>
</clipPath>
</defs>
</svg>
