<svg width="582" height="523" viewBox="0 0 582 523" fill="none" xmlns="http://www.w3.org/2000/svg">
<path d="M317.051 163.572L317.05 163.573C310.239 167.535 301.316 169.502 292.41 169.502C283.504 169.502 274.561 167.535 267.707 163.573L267.707 163.573L11.5465 15.2476C11.5465 15.2476 11.5464 15.2475 11.5464 15.2475C6.75737 12.4763 3.5848 9.07189 2.09366 5.44029L1.11127 353.653C1.11127 353.654 1.11127 353.654 1.11127 353.654C1.11157 358.577 4.34229 363.629 11.0498 367.482L11.0513 367.483L267.212 515.809C273.878 519.662 282.638 521.603 291.414 521.603C300.191 521.603 308.929 519.662 315.551 515.809L570.06 367.484L317.051 163.572ZM317.051 163.572L571.56 15.2468C576.21 12.5388 579.325 9.22194 580.814 5.66382M317.051 163.572L580.814 5.66382M580.814 5.66382L579.831 353.822C579.804 358.69 576.629 363.629 570.061 367.484L580.814 5.66382Z" fill="white" stroke="#001021"/>
<path d="M391.484 284.71L391.541 300.855L328.611 337.252L328.554 321.107L391.484 284.71Z" fill="#001021"/>
<path d="M391.399 250.653L391.456 266.798L328.525 303.194L328.468 287.078L391.399 250.653Z" fill="#001021"/>
<path d="M391.285 216.566L391.342 232.654L328.412 269.108L328.383 252.963L391.285 216.566Z" fill="#001021"/>
<path d="M391.199 182.508L391.256 198.624L328.326 235.021L328.269 218.905L391.199 182.508Z" fill="#001021"/>
<path d="M391.114 148.394L391.171 164.51L328.241 200.935L328.184 184.79L391.114 148.394Z" fill="#001021"/>
<path d="M470.296 136.727L470.353 152.872L407.423 189.269L407.394 173.152L470.296 136.727Z" fill="#001021"/>
<path d="M470.211 102.641L470.268 118.757L407.337 155.154L407.28 139.037L470.211 102.641Z" fill="#001021"/>
<path d="M549.962 295.378L550.019 311.495L487.089 347.92L487.06 331.804L549.962 295.378Z" fill="#001021"/>
<path d="M549.877 261.349L549.934 277.437L487.004 313.862L486.947 297.746L549.877 261.349Z" fill="#001021"/>
<path d="M549.791 227.234L549.848 243.351L486.918 279.747L486.861 263.631L549.791 227.234Z" fill="#001021"/>
<path d="M549.677 193.176L549.734 209.292L486.804 245.718L486.776 229.573L549.677 193.176Z" fill="#001021"/>
<path d="M549.592 159.147L549.649 175.263L486.719 211.66L486.662 195.544L549.592 159.147Z" fill="#001021"/>
<path d="M549.507 125.032L549.535 141.148L486.605 177.545L486.576 161.429L549.507 125.032Z" fill="#001021"/>
<path d="M549.393 90.9741L549.45 107.09L486.519 143.487L486.491 127.371L549.393 90.9741Z" fill="#001021"/>
<path d="M549.307 56.8594L549.336 72.9755L486.434 109.401L486.377 93.2848L549.307 56.8594Z" fill="#001021"/>
<path d="M470.382 170.785L470.438 186.901L407.508 223.327L407.48 207.211L470.382 170.785Z" fill="#001021"/>
<path d="M470.78 307.102L470.837 323.218L407.907 359.615L407.85 343.499L470.78 307.102Z" fill="#001021"/>
<path d="M470.695 272.987L470.723 289.103L407.821 325.5L407.764 309.412L470.695 272.987Z" fill="#001021"/>
<path d="M391.683 352.883L391.74 368.999L328.81 405.396L328.753 389.28L391.683 352.883Z" fill="#001021"/>
<path d="M391.598 318.768L391.626 334.884L328.696 371.281L328.668 355.165L391.598 318.768Z" fill="#001021"/>
<path d="M391.797 386.913L391.825 403.029L328.895 439.454L328.867 423.338L391.797 386.913Z" fill="#001021"/>
<path d="M470.894 341.16L470.922 357.276L407.992 393.673L407.964 377.557L470.894 341.16Z" fill="#001021"/>
<path d="M190.626 282.257L190.569 298.402L253.499 334.799L253.556 318.654L190.626 282.257Z" fill="#001021"/>
<path d="M190.739 248.228L190.682 264.316L253.613 300.741L253.641 284.625L190.739 248.228Z" fill="#001021"/>
<path d="M190.825 214.113L190.768 230.229L253.726 266.626L253.755 250.539L190.825 214.113Z" fill="#001021"/>
<path d="M190.939 180.055L190.882 196.171L253.812 232.597L253.84 216.452L190.939 180.055Z" fill="#001021"/>
<path d="M191.024 145.94L190.967 162.085L253.897 198.482L253.954 182.366L191.024 145.94Z" fill="#001021"/>
<path d="M111.813 134.303L111.785 150.419L174.687 186.816L174.744 170.7L111.813 134.303Z" fill="#001021"/>
<path d="M111.899 100.188L111.87 116.304L174.801 152.701L174.857 136.584L111.899 100.188Z" fill="#001021"/>
<path d="M32.1475 292.925L32.119 309.07L95.0206 345.467L95.0776 329.351L32.1475 292.925Z" fill="#001021"/>
<path d="M32.2329 258.896L32.2044 275.012L95.1061 311.437L95.163 295.293L32.2329 258.896Z" fill="#001021"/>
<path d="M32.3468 224.781L32.2899 240.897L95.22 277.323L95.2769 261.207L32.3468 224.781Z" fill="#001021"/>
<path d="M32.4321 190.752L32.4037 206.868L95.3053 243.265L95.3623 227.149L32.4321 190.752Z" fill="#001021"/>
<path d="M32.546 156.666L32.4891 172.782L95.4192 209.207L95.4477 193.091L32.546 156.666Z" fill="#001021"/>
<path d="M32.6313 122.579L32.5744 138.695L95.5045 175.121L95.5615 158.976L32.6313 122.579Z" fill="#001021"/>
<path d="M32.7168 88.521L32.6883 104.637L95.6184 141.063L95.6469 124.946L32.7168 88.521Z" fill="#001021"/>
<path d="M32.8306 54.4062L32.7737 70.5509L95.7038 106.948L95.7607 90.8316L32.8306 54.4062Z" fill="#001021"/>
<path d="M111.728 168.332L111.671 184.477L174.601 220.874L174.658 204.757L111.728 168.332Z" fill="#001021"/>
<path d="M111.33 304.649L111.301 320.765L174.231 357.19L174.26 341.074L111.33 304.649Z" fill="#001021"/>
<path d="M111.443 270.534L111.387 286.678L174.317 323.075L174.374 306.959L111.443 270.534Z" fill="#001021"/>
<path d="M111.529 236.504L111.472 252.621L174.402 289.017L174.459 272.901L111.529 236.504Z" fill="#001021"/>
<path d="M111.643 202.447L111.586 218.563L174.516 254.988L174.544 238.872L111.643 202.447Z" fill="#001021"/>
<path d="M190.455 350.43L190.398 366.546L253.328 402.943L253.356 386.827L190.455 350.43Z" fill="#001021"/>
<path d="M190.54 316.315L190.483 332.432L253.413 368.828L253.47 352.712L190.54 316.315Z" fill="#001021"/>
<path d="M190.341 384.459L190.312 400.604L253.214 437.001L253.271 420.885L190.341 384.459Z" fill="#001021"/>
<path d="M111.244 338.707L111.187 354.823L174.117 391.22L174.174 375.103L111.244 338.707Z" fill="#001021"/>
<path d="M420.686 279.975C410.81 279.975 404.434 274.042 404.406 264.886C404.406 251.822 418.068 234.023 436.284 223.498C442.88 219.313 450.434 216.888 458.228 216.452C468.076 216.452 474.452 222.357 474.48 231.484C474.48 244.605 460.818 262.405 442.602 272.93C436.019 277.12 428.473 279.546 420.686 279.975Z" fill="#001021"/>
<path d="M439.471 228.889C455.382 219.704 468.304 220.873 468.332 231.513C468.361 242.152 455.496 258.354 439.585 267.539C423.675 276.724 410.753 275.583 410.696 264.858C410.639 254.133 423.476 238.102 439.471 228.889Z" fill="#EB1C24"/>
<path d="M420.686 270.62C413.741 270.62 413.742 266.284 413.742 264.915C413.742 255.445 426.18 240.184 440.923 231.656C446.132 228.35 452.078 226.39 458.228 225.951C465.116 225.951 465.144 230.258 465.144 231.656C465.144 241.183 452.706 256.443 437.934 265C432.734 268.268 426.81 270.198 420.686 270.62Z" fill="url(#paint0_linear)"/>
<defs>
<linearGradient id="paint0_linear" x1="439.443" y1="270.62" x2="439.443" y2="225.808" gradientUnits="userSpaceOnUse">
<stop stop-color="#EB1C24"/>
<stop offset="1" stop-color="#BA1B22"/>
</linearGradient>
</defs>
</svg>
