<svg width="51" height="51" viewBox="0 0 51 51" fill="none" xmlns="http://www.w3.org/2000/svg">
<g clip-path="url(#clip0)">
<path d="M31.8741 35.0638C30.1135 35.0638 28.6862 33.6366 28.6862 31.8759C28.6862 30.1153 30.1135 28.688 31.8741 28.688C33.6348 28.688 35.0621 30.1153 35.0621 31.8759C35.0621 33.6366 33.6348 35.0638 31.8741 35.0638Z" fill="#E1E1E1"/>
<path d="M18.6205 35.0424C16.8823 34.7621 15.7004 33.1258 15.9807 31.3877C16.261 29.6495 17.8973 28.4676 19.6355 28.7479C21.3737 29.0282 22.5555 30.6644 22.2752 32.4026C21.9949 34.1408 20.3587 35.3227 18.6205 35.0424Z" fill="#E1E1E1"/>
<path d="M6.3742 22.3138V20.719H6.41938L6.3742 15.9379C6.37907 11.7124 8.05983 7.66137 11.0477 4.67349C14.0356 1.68561 18.0866 0.00487192 22.3121 0H28.688C32.9132 0.00531472 36.9638 1.68624 39.9513 4.67407C42.9388 7.66191 44.6193 11.7127 44.6242 15.9379V22.3138C46.3145 22.3151 47.9352 22.987 49.1305 24.1821C50.3259 25.3771 50.9983 26.9976 51.0001 28.6879V31.8675C50.9983 33.5579 50.326 35.1786 49.1307 36.3739C47.9354 37.5692 46.3146 38.2415 44.6242 38.2433H43.5181C42.2031 41.9717 39.764 45.2004 36.5368 47.4842C33.3097 49.768 29.4535 50.9945 25.5 50.9945C21.5465 50.9945 17.6904 49.768 14.4633 47.4842C11.2362 45.2004 8.79698 41.9717 7.48204 38.2433H6.3742C4.68392 38.2415 3.0634 37.5692 1.86835 36.3738C0.673298 35.1784 0.00138855 33.5578 6.10352e-05 31.8675V28.6879C0.00138855 26.9978 0.67337 25.3773 1.86847 24.1822C3.06357 22.9871 4.68407 22.3151 6.3742 22.3138ZM28.688 3.18792H22.3121C18.9318 3.1919 15.6911 4.53649 13.3009 6.92671C10.9107 9.31694 9.56611 12.5576 9.56212 15.9379V18.4799C12.6396 17.5026 18.6356 15.9379 25.5 15.9379C32.3645 15.9379 38.3605 17.5026 41.438 18.4799V15.9379C41.434 12.5576 40.0894 9.31694 37.6992 6.92671C35.3089 4.53649 32.0683 3.1919 28.688 3.18792ZM9.95372 21.708C10.6398 23.5638 11.7594 25.5 12.75 25.5C13.7407 25.5 14.8904 25.0314 16.3279 24.434C18.6088 23.4902 21.4486 22.3138 25.5 22.3138C29.5515 22.3138 32.3896 23.4852 34.6722 24.434C36.1097 25.0314 37.246 25.5 38.2501 25.5C39.2541 25.5 40.3603 23.5638 41.0464 21.7063C38.4157 20.8378 32.3629 19.1258 25.5 19.1258C18.6372 19.1258 12.5877 20.8394 9.95372 21.708ZM3.18799 31.8758C3.18887 32.7196 3.52385 33.5287 4.1197 34.1261C4.71555 34.7235 5.52377 35.0607 6.36754 35.0638H9.84329L10.178 36.2234C11.1209 39.5605 13.1276 42.4985 15.8931 44.5908C18.6585 46.6831 22.0315 47.8153 25.4992 47.8153C28.967 47.8153 32.3399 46.6831 35.1054 44.5908C37.8708 42.4985 39.8775 39.5605 40.8205 36.2234L41.1552 35.0638H44.6292C45.4743 35.0624 46.2844 34.7261 46.882 34.1286C47.4795 33.531 47.8158 32.7209 47.8172 31.8758V28.6963C47.8136 27.8527 47.4764 27.0447 46.879 26.449C46.2817 25.8532 45.4729 25.5181 44.6292 25.5167H42.8002C41.7877 27.2019 40.3117 28.6963 38.2551 28.6963C36.6167 28.6963 35.0755 28.0604 33.4573 27.3876C31.332 26.5074 28.9222 25.5084 25.5051 25.5084C22.0879 25.5084 19.6781 26.5124 17.5512 27.3876C15.9262 28.057 14.3917 28.6963 12.7551 28.6963C10.6984 28.6963 9.22244 27.1902 8.21001 25.5167H6.37922C5.5369 25.5198 4.72998 25.8558 4.13437 26.4514C3.53875 27.047 3.20276 27.854 3.19967 28.6963L3.18799 31.8758Z" fill="#E1E1E1"/>
<path d="M25.5 12.7499C22.8595 12.7499 20.719 11.3226 20.719 9.56194C20.719 7.8013 22.8595 6.37402 25.5 6.37402C28.1405 6.37402 30.2811 7.8013 30.2811 9.56194C30.2811 11.3226 28.1405 12.7499 25.5 12.7499Z" fill="#E1E1E1"/>
</g>
<defs>
<clipPath id="clip0">
<rect width="51" height="51" fill="white" transform="matrix(-1 0 0 1 51 0)"/>
</clipPath>
</defs>
</svg>
