<svg width="25" height="25" viewBox="0 0 25 25" fill="none" xmlns="http://www.w3.org/2000/svg">
<path d="M10.054 14.0749C10.054 15.1149 9.299 15.4439 8.372 15.4439H5.941V12.5929H8.42C9.423 12.5979 10.054 13.0129 10.054 14.0749ZM9.639 9.63788C9.639 8.68388 8.9 8.45688 8.081 8.45688H5.946V10.8719H8.246C9.06 10.8719 9.637 10.5159 9.637 9.63788H9.639ZM16.771 10.8889C16.5521 10.875 16.3327 10.906 16.1263 10.98C15.9199 11.0541 15.7308 11.1696 15.5707 11.3195C15.4106 11.4694 15.2829 11.6505 15.1954 11.8516C15.1079 12.0527 15.0625 12.2696 15.062 12.4889H18.415C18.4246 12.2724 18.3883 12.0564 18.3084 11.855C18.2286 11.6536 18.1071 11.4713 17.9518 11.3202C17.7965 11.1691 17.611 11.0526 17.4075 10.9782C17.204 10.9039 16.9871 10.8734 16.771 10.8889ZM24.151 2.58888V21.5679C24.1507 22.2541 23.878 22.9121 23.3926 23.3972C22.9073 23.8824 22.2492 24.1549 21.563 24.1549H2.588C1.90179 24.1549 1.24368 23.8824 0.758361 23.3972C0.273046 22.9121 0.00026515 22.2541 0 21.5679V2.59288C0 1.9065 0.272664 1.24823 0.758008 0.762891C1.24335 0.277546 1.90162 0.00488281 2.588 0.00488281H21.563C22.2494 0.00488281 22.9076 0.277546 23.393 0.762891C23.8783 1.24823 24.151 1.9065 24.151 2.59288V2.58888ZM14.651 8.24888H18.845V7.23388H14.647L14.651 8.24888ZM12.333 14.1949C12.383 13.5855 12.2231 12.9773 11.8799 12.4712C11.5367 11.9652 11.0307 11.5918 10.446 11.4129C10.8677 11.2815 11.2345 11.0149 11.4896 10.6544C11.7448 10.2938 11.8743 9.8593 11.858 9.41788C11.858 7.35888 10.322 6.85688 8.548 6.85688H3.666V17.2069H8.684C10.566 17.2019 12.329 16.3009 12.329 14.1989L12.333 14.1949ZM20.489 13.3949C20.489 11.1789 19.189 9.32988 16.845 9.32988C16.3272 9.31933 15.8128 9.4158 15.334 9.61325C14.8552 9.81071 14.4224 10.1049 14.0625 10.4774C13.7027 10.8499 13.4237 11.2927 13.2429 11.778C13.0621 12.2633 12.9835 12.7808 13.012 13.2979C12.971 13.8163 13.0412 14.3376 13.2179 14.8267C13.3946 15.3159 13.6737 15.7616 14.0366 16.1342C14.3995 16.5067 14.8378 16.7975 15.3221 16.987C15.8064 17.1764 16.3256 17.2603 16.845 17.2329C17.6339 17.2959 18.4196 17.077 19.0622 16.6149C19.7048 16.1529 20.1626 15.4778 20.354 14.7099H18.533C18.3889 15.0156 18.1572 15.2716 17.8674 15.4454C17.5775 15.6192 17.2425 15.7029 16.905 15.6859C16.6522 15.7101 16.3972 15.677 16.1589 15.5891C15.9207 15.5012 15.7052 15.3608 15.5287 15.1783C15.3521 14.9958 15.2189 14.7758 15.139 14.5348C15.0591 14.2937 15.0345 14.0377 15.067 13.7859H20.467C20.474 13.6649 20.485 13.5309 20.485 13.4009L20.489 13.3949Z" fill="#222222"/>
</svg>
