<svg width="25" height="25" viewBox="0 0 25 25" fill="none" xmlns="http://www.w3.org/2000/svg">
<path d="M21.563 0.00488301H2.588C1.90162 0.00488301 1.24335 0.277547 0.758008 0.762891C0.272664 1.24823 0 1.9065 0 2.59288L0 21.5679C0.00026515 22.2541 0.273046 22.9121 0.758361 23.3972C1.24368 23.8824 1.90179 24.1549 2.588 24.1549H9.988V15.9449H6.59V12.0799H9.99V9.13488C9.99 5.78488 11.985 3.93488 15.04 3.93488C16.0427 3.94883 17.043 4.03606 18.033 4.19588V7.48288H16.343C16.0557 7.44467 15.7635 7.47158 15.488 7.56162C15.2125 7.65167 14.9608 7.80254 14.7516 8.00307C14.5423 8.20359 14.3808 8.44862 14.2791 8.72002C14.1774 8.99142 14.1381 9.28222 14.164 9.57088V12.0799H17.872L17.279 15.9449H14.164V24.1549H21.564C22.2504 24.1549 22.9086 23.8822 23.394 23.3969C23.8793 22.9115 24.152 22.2533 24.152 21.5669V2.59288C24.152 2.25294 24.085 1.91632 23.9549 1.60227C23.8248 1.28821 23.6341 1.00287 23.3936 0.762537C23.1532 0.522206 22.8678 0.331596 22.5537 0.201596C22.2396 0.0715954 21.9029 0.00475165 21.563 0.00488301Z" fill="#222222"/>
</svg>
