<svg width="25" height="25" viewBox="0 0 25 25" fill="none" xmlns="http://www.w3.org/2000/svg">
<path d="M24.886 2.588V21.567C24.8857 22.2533 24.6129 22.9114 24.1277 23.3967C23.6424 23.882 22.9843 24.1547 22.298 24.155H9.05596C9.68288 23.1558 10.1793 22.0803 10.533 20.955C10.695 20.335 11.358 17.806 11.358 17.806C11.6961 18.2935 12.1513 18.6881 12.6818 18.9537C13.2123 19.2193 13.8011 19.3473 14.394 19.326C18.394 19.326 21.263 15.654 21.263 11.093C21.263 6.72 17.694 3.447 13.1 3.447C7.38496 3.447 4.35396 7.281 4.35396 11.459C4.35396 13.4 5.38896 15.816 7.03896 16.587C7.29196 16.706 7.42196 16.652 7.48096 16.409C7.52396 16.226 7.75096 15.325 7.84796 14.909C7.86676 14.8436 7.86816 14.7744 7.85203 14.7083C7.83589 14.6422 7.80278 14.5814 7.75596 14.532C7.11777 13.6544 6.77241 12.5981 6.76896 11.513C6.76592 10.7375 6.9203 9.96954 7.22273 9.25549C7.52516 8.54143 7.96935 7.89618 8.52843 7.3588C9.0875 6.82142 9.74981 6.40309 10.4753 6.12914C11.2007 5.85518 11.9742 5.7313 12.749 5.765C13.4742 5.72239 14.2003 5.83138 14.881 6.08502C15.5617 6.33866 16.1821 6.73138 16.7026 7.23814C17.2231 7.7449 17.6323 8.35458 17.904 9.02828C18.1758 9.70198 18.3042 10.4249 18.281 11.151C18.281 14.731 16.475 17.211 14.119 17.211C13.8183 17.2259 13.5183 17.1701 13.2431 17.0481C12.9679 16.9261 12.7252 16.7413 12.5343 16.5086C12.3434 16.2758 12.2098 16.0015 12.1441 15.7078C12.0784 15.414 12.0824 15.1089 12.156 14.817C12.531 13.25 13.251 11.55 13.251 10.412C13.251 7.554 9.17996 7.948 9.17996 11.76C9.17228 12.4363 9.3065 13.1068 9.57396 13.728C7.88096 20.888 7.62796 20.98 7.97396 24.113L8.09296 24.156H3.31896C2.63248 24.1557 1.97422 23.8828 1.4889 23.3973C1.00359 22.9118 0.730957 22.2535 0.730957 21.567L0.730957 2.588C0.731222 1.9017 1.00397 1.24359 1.48926 0.7583C1.97454 0.273014 2.63266 0.000265032 3.31896 0H22.298C22.9843 0.000265032 23.6424 0.273014 24.1277 0.7583C24.6129 1.24359 24.8857 1.9017 24.886 2.588Z" fill="black"/>
</svg>
