<svg width="25" height="25" viewBox="0 0 25 25" fill="none" xmlns="http://www.w3.org/2000/svg">
<path d="M12.085 5.88573C10.8599 5.88573 9.66238 6.249 8.64379 6.9296C7.62519 7.61021 6.83129 8.57758 6.36248 9.70939C5.89367 10.8412 5.77101 12.0866 6.01 13.2881C6.249 14.4896 6.83892 15.5933 7.70517 16.4595C8.57141 17.3258 9.67508 17.9157 10.8766 18.1547C12.0781 18.3937 13.3235 18.271 14.4553 17.8022C15.5871 17.3334 16.5545 16.5395 17.2351 15.5209C17.9157 14.5023 18.279 13.3048 18.279 12.0797C18.2803 11.2659 18.121 10.4599 17.8102 9.70783C17.4994 8.95574 17.0432 8.2724 16.4677 7.69697C15.8923 7.12154 15.209 6.66535 14.4569 6.35453C13.7048 6.04372 12.8988 5.88441 12.085 5.88573ZM12.085 16.1067C11.2885 16.1067 10.5099 15.8705 9.84771 15.4281C9.18547 14.9856 8.66932 14.3566 8.36452 13.6208C8.05973 12.885 7.97998 12.0753 8.13537 11.2941C8.29075 10.5129 8.67428 9.79539 9.23747 9.23221C9.80065 8.66902 10.5182 8.28549 11.2994 8.1301C12.0805 7.97472 12.8902 8.05447 13.6261 8.35926C14.3619 8.66406 14.9908 9.18021 15.4333 9.84245C15.8758 10.5047 16.112 11.2833 16.112 12.0797C16.1101 13.1472 15.6853 14.1704 14.9305 14.9252C14.1757 15.68 13.1524 16.1049 12.085 16.1067ZM19.978 5.63273C19.978 5.91852 19.8932 6.1979 19.7345 6.43553C19.5757 6.67315 19.35 6.85836 19.086 6.96773C18.8219 7.0771 18.5314 7.10572 18.2511 7.04996C17.9708 6.99421 17.7133 6.85658 17.5112 6.6545C17.3091 6.45241 17.1715 6.19493 17.1158 5.91463C17.06 5.63433 17.0886 5.34379 17.198 5.07975C17.3074 4.81571 17.4926 4.59003 17.7302 4.43125C17.9678 4.27247 18.2472 4.18773 18.533 4.18773C18.7229 4.1872 18.911 4.22421 19.0866 4.29665C19.2621 4.36908 19.4216 4.47549 19.5559 4.60978C19.6902 4.74407 19.7966 4.90357 19.8691 5.07913C19.9415 5.25468 19.9785 5.44282 19.978 5.63273ZM24.078 7.09873C24.1179 5.22061 23.417 3.40225 22.127 2.03673C20.7588 0.751522 18.9428 0.0514592 17.066 0.0857266C15.071 -0.0272734 9.09299 -0.0272734 7.09899 0.0857266C5.22225 0.0483555 3.40539 0.746816 2.03699 2.03173C0.74906 3.39859 0.048573 5.21605 0.0859883 7.09373C-0.0280117 9.08773 -0.0280117 15.0627 0.0859883 17.0627C0.0466234 18.9401 0.747422 20.7577 2.03699 22.1227C3.40576 23.4076 5.22193 24.1076 7.09899 24.0737C9.09399 24.1867 15.072 24.1867 17.066 24.0737C18.9441 24.1136 20.7625 23.4128 22.128 22.1227C23.4133 20.755 24.1137 18.9393 24.08 17.0627C24.193 15.0677 24.193 9.09473 24.08 7.10073L24.078 7.09873ZM21.506 19.2007C21.301 19.7214 20.991 20.1943 20.5953 20.59C20.1996 20.9857 19.7267 21.2957 19.206 21.5007C17.616 22.1317 13.842 21.9857 12.085 21.9857C10.328 21.9857 6.54899 22.1257 4.96399 21.5007C4.4433 21.2957 3.97038 20.9857 3.57468 20.59C3.17899 20.1943 2.86899 19.7214 2.66399 19.2007C2.03299 17.6107 2.17899 13.8367 2.17899 12.0797C2.17899 10.3227 2.03899 6.54373 2.66399 4.95873C2.86899 4.43803 3.17899 3.96512 3.57468 3.56942C3.97038 3.17373 4.4433 2.86373 4.96399 2.65873C6.55399 2.02773 10.328 2.17373 12.085 2.17373C13.842 2.17373 17.621 2.03373 19.206 2.65873C19.7267 2.86373 20.1996 3.17373 20.5953 3.56942C20.991 3.96512 21.301 4.43803 21.506 4.95873C22.137 6.54873 21.991 10.3227 21.991 12.0797C21.991 13.8367 22.134 17.6157 21.506 19.2007Z" fill="#222222"/>
</svg>
