<svg width="25" height="25" viewBox="0 0 25 25" fill="none" xmlns="http://www.w3.org/2000/svg">
<path d="M22.426 0.00488281H1.72002C1.26119 0.00805564 0.822362 0.19317 0.499883 0.519586C0.177404 0.846002 -0.00237164 1.28704 2.3632e-05 1.74588V22.4149C-0.00210592 22.8736 0.177787 23.3143 0.500237 23.6405C0.822688 23.9667 1.26136 24.1517 1.72002 24.1549H22.426C22.8853 24.1517 23.3247 23.9668 23.6479 23.6405C23.9712 23.3142 24.1521 22.8732 24.151 22.4139V1.74588C24.1521 1.28658 23.9712 0.845552 23.6479 0.51928C23.3247 0.193008 22.8853 0.00805465 22.426 0.00488281ZM7.30002 20.7059H3.72002V9.17988H7.30002V20.7059ZM5.51002 7.60588C5.09963 7.60588 4.69845 7.48419 4.35722 7.25618C4.01598 7.02818 3.75003 6.70411 3.59297 6.32495C3.43592 5.94579 3.39483 5.52858 3.47489 5.12607C3.55496 4.72356 3.75258 4.35383 4.04278 4.06364C4.33297 3.77344 4.7027 3.57582 5.10521 3.49575C5.50772 3.41569 5.92494 3.45678 6.30409 3.61383C6.68325 3.77088 7.00732 4.03684 7.23532 4.37807C7.46333 4.71931 7.58502 5.12049 7.58502 5.53088C7.58476 6.0813 7.36592 6.60908 6.97662 6.99819C6.58733 7.3873 6.05944 7.60588 5.50902 7.60588H5.51002ZM20.717 20.7059H17.137V15.0989C17.137 13.7619 17.11 12.0419 15.277 12.0419C13.412 12.0419 13.126 13.4979 13.126 15.0019V20.7019H9.54702V9.17988H12.981V10.7549H13.03C13.3746 10.1675 13.8718 9.6844 14.4688 9.3569C15.0659 9.02941 15.7405 8.86975 16.421 8.89488C20.044 8.89488 20.721 11.2829 20.721 14.3879L20.717 20.7059Z" fill="#222222"/>
</svg>
