<svg width="60" height="61" viewBox="0 0 60 61" fill="none" xmlns="http://www.w3.org/2000/svg">
<path d="M36.4286 37.1786C39.5714 34.0357 41.1429 30.2619 41.1429 25.8571C41.1429 21.4524 39.5714 17.6905 36.4286 14.5714C33.3095 11.4286 29.5476 9.85714 25.1429 9.85714C20.7381 9.85714 16.9643 11.4286 13.8214 14.5714C10.7024 17.6905 9.14286 21.4524 9.14286 25.8571C9.14286 30.2619 10.7024 34.0357 13.8214 37.1786C16.9643 40.2976 20.7381 41.8571 25.1429 41.8571C29.5476 41.8571 33.3095 40.2976 36.4286 37.1786ZM59.4286 55.5714C59.4286 56.8095 58.9762 57.881 58.0714 58.7857C57.1667 59.6905 56.0952 60.1429 54.8571 60.1429C53.5714 60.1429 52.5 59.6905 51.6429 58.7857L39.3929 46.5714C35.131 49.5238 30.381 51 25.1429 51C21.7381 51 18.4762 50.3452 15.3571 49.0357C12.2619 47.7024 9.58333 45.9167 7.32143 43.6786C5.08333 41.4167 3.29762 38.7381 1.96429 35.6429C0.654762 32.5238 0 29.2619 0 25.8571C0 22.4524 0.654762 19.2024 1.96429 16.1071C3.29762 12.9881 5.08333 10.3095 7.32143 8.07143C9.58333 5.80952 12.2619 4.02381 15.3571 2.71428C18.4762 1.38095 21.7381 0.714283 25.1429 0.714283C28.5476 0.714283 31.7976 1.38095 34.8929 2.71428C38.0119 4.02381 40.6905 5.80952 42.9286 8.07143C45.1905 10.3095 46.9762 12.9881 48.2857 16.1071C49.6191 19.2024 50.2857 22.4524 50.2857 25.8571C50.2857 31.0952 48.8095 35.8452 45.8571 40.1071L58.1071 52.3571C58.9881 53.2381 59.4286 54.3095 59.4286 55.5714Z" fill="white"/>
</svg>
