<svg width="402" height="176" viewBox="0 0 402 176" fill="none" xmlns="http://www.w3.org/2000/svg">
<path d="M337.797 174.998H301.87C301.112 174.998 300.385 174.697 299.849 174.161C299.313 173.626 299.012 172.899 299.012 172.141V71.1752C299.012 70.4173 299.313 69.6904 299.849 69.1545C300.385 68.6186 301.112 68.3175 301.87 68.3175H337.797C338.555 68.3175 339.281 68.6186 339.817 69.1545C340.353 69.6904 340.654 70.4173 340.654 71.1752V172.138C340.648 172.894 340.345 173.618 339.81 174.152C339.276 174.687 338.553 174.99 337.797 174.996V174.998ZM400.246 172.141V104.586C400.246 94.967 396.425 85.7419 389.624 78.9403C382.822 72.1386 373.597 68.3175 363.978 68.3175H361.242C360.543 68.3175 359.872 68.5954 359.377 69.0902C358.882 69.5849 358.604 70.2559 358.604 70.9556V172.141C358.611 172.897 358.914 173.62 359.448 174.154C359.983 174.689 360.706 174.992 361.462 174.998H397.389C398.147 174.998 398.873 174.697 399.409 174.161C399.945 173.626 400.246 172.899 400.246 172.141V172.141ZM102.283 172.141V71.1752C102.283 70.4173 101.982 69.6904 101.446 69.1545C100.911 68.6186 100.184 68.3175 99.4258 68.3175H63.4498C63.0757 68.3175 62.7053 68.3916 62.3599 68.5355C62.0146 68.6794 61.7012 68.8903 61.4378 69.156C61.1744 69.4216 60.9662 69.7369 60.8253 70.0834C60.6843 70.43 60.6135 70.8011 60.6167 71.1752V172.138C60.6167 172.892 60.9144 173.615 61.445 174.15C61.9756 174.686 62.6962 174.99 63.4498 174.996H99.4004C100.156 174.99 100.879 174.687 101.414 174.152C101.949 173.618 102.252 172.894 102.258 172.138L102.283 172.141ZM161.876 172.141V104.586C161.876 99.8191 160.937 95.099 159.111 90.6956C157.285 86.2922 154.61 82.2919 151.237 78.9234C147.864 75.555 143.86 72.8844 139.454 71.0646C135.048 69.2447 130.327 68.3112 125.56 68.3175H122.849C122.499 68.311 122.15 68.3744 121.825 68.504C121.499 68.6337 121.202 68.827 120.952 69.0726C120.702 69.3182 120.503 69.6112 120.367 69.9345C120.232 70.2579 120.162 70.605 120.162 70.9556V172.141C120.162 172.899 120.463 173.626 120.999 174.161C121.535 174.697 122.262 174.998 123.02 174.998H158.994C159.752 174.998 160.479 174.697 161.015 174.161C161.551 173.626 161.852 172.899 161.852 172.141H161.876ZM42.6667 172.141V70.9556C42.6704 70.6105 42.6056 70.268 42.476 69.9481C42.3465 69.6282 42.1548 69.3372 41.912 69.0918C41.6692 68.8465 41.3802 68.6517 41.0617 68.5188C40.7432 68.3859 40.4014 68.3175 40.0563 68.3175H37.293C32.5281 68.3143 27.8093 69.25 23.4061 71.0712C19.003 72.8924 15.0019 75.5634 11.6315 78.9316C8.26103 82.2997 5.58732 86.299 3.76312 90.7009C1.93892 95.1028 0.999999 99.821 1 104.586V172.141C1.00642 172.897 1.30955 173.62 1.84409 174.154C2.37862 174.689 3.10176 174.992 3.85768 174.998H39.7837C40.5416 174.998 41.2685 174.697 41.8044 174.161C42.3403 173.626 42.6414 172.899 42.6414 172.141H42.6667ZM281.063 138.705V104.513C281.053 99.7502 280.106 95.0358 278.274 90.6392C276.443 86.2426 273.763 82.2498 270.389 78.8887C267.014 75.5276 263.01 72.8641 258.606 71.0503C254.202 69.2365 249.484 68.3079 244.722 68.3175H242.034C241.689 68.3175 241.347 68.3859 241.029 68.5188C240.71 68.6517 240.421 68.8465 240.179 69.0918C239.936 69.3372 239.744 69.6282 239.615 69.9481C239.485 70.268 239.42 70.6105 239.424 70.9556V172.362C239.424 173.057 239.698 173.724 240.187 174.218C240.675 174.712 241.339 174.993 242.034 175H244.722C249.49 175.006 254.214 174.072 258.621 172.251C263.029 170.429 267.033 167.756 270.407 164.385C273.78 161.014 276.455 157.011 278.279 152.605C280.104 148.199 281.041 143.476 281.038 138.707L281.063 138.705ZM221.446 171.946V3.57124C221.443 3.1133 221.319 2.66438 221.085 2.27028C220.852 1.87618 220.518 1.55101 220.118 1.32793C219.719 1.10485 219.267 0.99185 218.809 1.00046C218.351 1.00906 217.903 1.13897 217.512 1.37692C181.536 21.1319 182.636 20.5216 182.636 20.5216C181.705 20.8916 180.922 21.559 180.41 22.4199C179.897 23.2808 179.684 24.287 179.802 25.2818V171.943C179.802 172.753 180.124 173.53 180.697 174.102C181.269 174.675 182.046 174.996 182.855 174.996H218.391C219.2 174.996 219.977 174.675 220.549 174.103C221.121 173.531 221.443 172.755 221.444 171.946H221.446Z" stroke="#EB1C24" stroke-width="2"/>
</svg>
