<svg width="212" height="93" viewBox="0 0 212 93" fill="none" xmlns="http://www.w3.org/2000/svg">
<path d="M159.76 92.3864H178.84V92.3952C179.241 92.392 179.625 92.231 179.909 91.9471C180.193 91.6632 180.354 91.2791 180.357 90.8776V37.2663C180.357 36.8639 180.197 36.4779 179.913 36.1933C179.628 35.9087 179.242 35.7488 178.84 35.7488H159.76C159.357 35.7488 158.971 35.9087 158.687 36.1933C158.402 36.4779 158.242 36.8639 158.242 37.2663V90.8688C158.242 91.2713 158.402 91.6573 158.687 91.9419C158.971 92.2265 159.357 92.3864 159.76 92.3864Z" fill="#EB1C24"/>
<path d="M212 55.0055V90.8688V90.8776C212 91.2792 211.841 91.6644 211.557 91.9488C211.274 92.2333 210.889 92.3938 210.488 92.3952H191.408C191.006 92.392 190.622 92.231 190.338 91.9471C190.054 91.6632 189.893 91.2791 189.89 90.8776V37.1497C189.89 36.7782 190.038 36.4218 190.301 36.1591C190.563 35.8964 190.92 35.7488 191.291 35.7488H192.743C197.851 35.7488 202.749 37.7776 206.36 41.3889C209.971 45.0003 212 49.8983 212 55.0055Z" fill="#EB1C24"/>
<path d="M148.713 54.9665V73.1296H148.7C148.701 75.6616 148.203 78.1689 147.234 80.5081C146.265 82.8473 144.845 84.9724 143.053 86.7619C141.262 88.5513 139.135 89.97 136.795 90.9366C134.455 91.9032 131.947 92.3988 129.415 92.3951H127.99C127.621 92.3914 127.268 92.2422 127.008 91.9798C126.748 91.7175 126.603 91.3633 126.603 90.9942V37.1479C126.601 36.9646 126.635 36.7828 126.704 36.6129C126.773 36.443 126.875 36.2884 127.004 36.1581C127.133 36.0279 127.287 35.9244 127.456 35.8539C127.625 35.7833 127.806 35.7469 127.99 35.747H129.415C131.945 35.7416 134.45 36.2345 136.789 37.1976C139.127 38.1606 141.253 39.5749 143.045 41.3596C144.837 43.1444 146.26 45.2646 147.232 47.5993C148.205 49.934 148.708 52.4374 148.713 54.9665Z" fill="#EB1C24"/>
<path d="M117.056 1.36762V90.7733C117.056 91.2035 116.885 91.616 116.581 91.9201C116.277 92.2243 115.864 92.3951 115.434 92.3951H96.5589C96.1288 92.3951 95.7163 92.2243 95.4121 91.9201C95.108 91.616 94.9371 91.2035 94.9371 90.7733V12.8951C94.8739 12.3667 94.9872 11.8322 95.2595 11.3749C95.5318 10.9176 95.9476 10.5633 96.4423 10.367C96.4423 10.367 95.8646 10.6921 114.968 0.199852C115.176 0.0735074 115.413 0.00461899 115.657 0.000224291C115.9 -0.00417041 116.14 0.0560861 116.352 0.174838C116.565 0.293591 116.742 0.466583 116.865 0.676143C116.989 0.885703 117.055 1.12432 117.056 1.36762Z" fill="#EB1C24"/>
<path d="M53.7809 36.5193V90.1218L53.7685 90.1306C53.7653 90.5321 53.6043 90.9162 53.3204 91.2001C53.0365 91.484 52.6524 91.645 52.2509 91.6482H33.1603C32.76 91.6449 32.3772 91.4836 32.0952 91.1993C31.8133 90.9151 31.6551 90.531 31.6551 90.1306V36.5193C31.6535 36.3206 31.6912 36.1236 31.7661 35.9395C31.8411 35.7555 31.9517 35.5881 32.0916 35.447C32.2315 35.3059 32.398 35.1939 32.5815 35.1175C32.7649 35.0411 32.9616 35.0018 33.1603 35.0018H52.2633C52.6658 35.0018 53.0518 35.1617 53.3364 35.4463C53.621 35.7309 53.7809 36.1169 53.7809 36.5193Z" fill="#EB1C24"/>
<path d="M85.4254 54.2584V90.1218L85.4166 90.1306C85.4166 90.3299 85.3773 90.5273 85.3011 90.7114C85.2248 90.8955 85.113 91.0628 84.9721 91.2037C84.8312 91.3446 84.6639 91.4564 84.4798 91.5327C84.2956 91.6089 84.0983 91.6482 83.899 91.6482H64.7925C64.5932 91.6482 64.3959 91.6089 64.2118 91.5327C64.0276 91.4564 63.8603 91.3446 63.7194 91.2037C63.5785 91.0628 63.4667 90.8955 63.3905 90.7114C63.3142 90.5273 63.2749 90.3299 63.2749 90.1306V36.4027C63.2749 36.2167 63.312 36.0324 63.3839 35.8608C63.4558 35.6892 63.5613 35.5337 63.694 35.4033C63.8267 35.2728 63.9841 35.1702 64.1569 35.1012C64.3298 35.0323 64.5146 34.9985 64.7006 35.0018H66.1405C68.6717 34.9981 71.1788 35.4934 73.5184 36.4595C75.8579 37.4256 77.9841 38.8434 79.7753 40.6319C81.5664 42.4204 82.9874 44.5445 83.9569 46.8827C84.9264 49.2209 85.4254 51.7272 85.4254 54.2584Z" fill="#EB1C24"/>
<path d="M22.1257 36.401V90.1218H22.1151C22.1151 90.3211 22.0759 90.5184 21.9996 90.7025C21.9234 90.8867 21.8116 91.054 21.6707 91.1949C21.5297 91.3358 21.3624 91.4476 21.1783 91.5238C20.9942 91.6001 20.7969 91.6394 20.5976 91.6394H1.51757C1.11608 91.6361 0.731959 91.4752 0.448058 91.1913C0.164156 90.9074 0.00323243 90.5233 0 90.1218V54.2584C-0.000232919 51.7281 0.498211 49.2226 1.46684 46.885C2.43547 44.5474 3.85529 42.4237 5.64514 40.6352C7.435 38.8466 9.55979 37.4283 11.8981 36.4614C14.2363 35.4945 16.7423 34.9979 19.2726 35H20.7389C20.9222 35 21.1037 35.0363 21.2729 35.1069C21.4421 35.1775 21.5956 35.2809 21.7246 35.4112C21.8535 35.5415 21.9554 35.696 22.0243 35.8659C22.0931 36.0358 22.1276 36.2177 22.1257 36.401Z" fill="#EB1C24"/>
</svg>
