<svg width="129" height="117" viewBox="0 0 129 117" fill="none" xmlns="http://www.w3.org/2000/svg">
<path d="M128.165 3.32137C127.778 3.74595 127.287 4.13412 126.704 4.47365C126.704 4.47368 126.704 4.4737 126.704 4.47372L70.3428 37.3206L70.3425 37.3208C68.7605 38.2412 66.7127 38.6867 64.6902 38.6867C62.6675 38.6867 60.6156 38.2411 59.0248 37.3215L59.0245 37.3213L2.29746 4.47443C1.68912 4.1224 1.18088 3.71863 0.784654 3.27724L0.570801 79.078C0.570801 79.0783 0.570801 79.0785 0.570801 79.0787C0.571092 79.9825 1.16491 80.992 2.57634 81.8028L2.57783 81.8037L59.3047 114.65C60.7079 115.462 62.5765 115.881 64.4696 115.881C66.3627 115.881 68.2257 115.462 69.6187 114.651L128.165 3.32137ZM128.165 3.32137L127.951 79.1131C127.951 79.1136 127.951 79.114 127.951 79.1144C127.945 80.0077 127.362 80.9935 125.98 81.8048C125.979 81.8049 125.979 81.805 125.979 81.8051L69.619 114.651L128.165 3.32137Z" fill="white" stroke="#001021"/>
<path d="M86.6308 63.8105L86.6434 67.3858L72.7074 75.446L72.6948 71.8707L86.6308 63.8105Z" fill="#001021"/>
<path d="M86.6118 56.2683L86.6244 59.8436L72.6884 67.9037L72.6758 64.3348L86.6118 56.2683Z" fill="#001021"/>
<path d="M86.5864 48.72L86.599 52.2826L72.663 60.3554L72.6567 56.7801L86.5864 48.72Z" fill="#001021"/>
<path d="M86.5673 41.1777L86.5799 44.7467L72.644 52.8068L72.6313 49.2379L86.5673 41.1777Z" fill="#001021"/>
<path d="M86.5478 33.6228L86.5604 37.1918L72.6244 45.2582L72.6118 41.6829L86.5478 33.6228Z" fill="#001021"/>
<path d="M104.084 31.0393L104.097 34.6146L90.1606 42.6747L90.1543 39.1058L104.084 31.0393Z" fill="#001021"/>
<path d="M104.064 23.491L104.077 27.0599L90.141 35.1201L90.1284 31.5511L104.064 23.491Z" fill="#001021"/>
<path d="M121.726 66.1729L121.738 69.7418L107.802 77.8083L107.796 74.2393L121.726 66.1729Z" fill="#001021"/>
<path d="M121.707 58.6372L121.72 62.1998L107.784 70.2663L107.771 66.6973L121.707 58.6372Z" fill="#001021"/>
<path d="M121.688 51.0823L121.701 54.6512L107.765 62.7114L107.752 59.1424L121.688 51.0823Z" fill="#001021"/>
<path d="M121.663 43.54L121.675 47.109L107.739 55.1754L107.733 51.6002L121.663 43.54Z" fill="#001021"/>
<path d="M121.643 36.0044L121.656 39.5733L107.72 47.6335L107.708 44.0645L121.643 36.0044Z" fill="#001021"/>
<path d="M121.625 28.4495L121.631 32.0184L107.695 40.0785L107.689 36.5096L121.625 28.4495Z" fill="#001021"/>
<path d="M121.6 20.9072L121.613 24.4762L107.677 32.5363L107.67 28.9674L121.6 20.9072Z" fill="#001021"/>
<path d="M121.581 13.3525L121.587 16.9215L107.657 24.988L107.645 21.419L121.581 13.3525Z" fill="#001021"/>
<path d="M104.103 38.5815L104.115 42.1505L90.1792 50.217L90.1729 46.648L104.103 38.5815Z" fill="#001021"/>
<path d="M104.191 68.769L104.204 72.338L90.268 80.3981L90.2554 76.8292L104.191 68.769Z" fill="#001021"/>
<path d="M104.172 61.2144L104.178 64.7833L90.2484 72.8434L90.2358 69.2808L104.172 61.2144Z" fill="#001021"/>
<path d="M86.6748 78.9075L86.6874 82.4764L72.7514 90.5366L72.7388 86.9676L86.6748 78.9075Z" fill="#001021"/>
<path d="M86.6562 71.3525L86.6625 74.9215L72.7265 82.9816L72.7202 79.4127L86.6562 71.3525Z" fill="#001021"/>
<path d="M86.7001 86.4434L86.7064 90.0123L72.7705 98.0788L72.7642 94.5098L86.7001 86.4434Z" fill="#001021"/>
<path d="M104.216 76.3113L104.223 79.8802L90.2866 87.9404L90.2803 84.3714L104.216 76.3113Z" fill="#001021"/>
<path d="M42.1498 63.2673L42.1372 66.8426L56.0732 74.9028L56.0858 71.3275L42.1498 63.2673Z" fill="#001021"/>
<path d="M42.1752 55.7314L42.1626 59.2941L56.0986 67.3605L56.1049 63.7916L42.1752 55.7314Z" fill="#001021"/>
<path d="M42.1942 48.1765L42.1816 51.7455L56.1239 59.8056L56.1302 56.243L42.1942 48.1765Z" fill="#001021"/>
<path d="M42.2196 40.6345L42.207 44.2035L56.143 52.2699L56.1493 48.6947L42.2196 40.6345Z" fill="#001021"/>
<path d="M42.2382 33.0796L42.2256 36.6549L56.1616 44.715L56.1742 41.146L42.2382 33.0796Z" fill="#001021"/>
<path d="M24.6972 30.5024L24.6909 34.0714L38.6206 42.1315L38.6332 38.5626L24.6972 30.5024Z" fill="#001021"/>
<path d="M24.7158 22.9475L24.7095 26.5165L38.6454 34.5766L38.6581 31.0077L24.7158 22.9475Z" fill="#001021"/>
<path d="M7.05513 65.6296L7.04883 69.2049L20.9785 77.265L20.9911 73.6961L7.05513 65.6296Z" fill="#001021"/>
<path d="M7.07369 58.0938L7.06738 61.6627L20.9971 69.7291L21.0097 66.1539L7.07369 58.0938Z" fill="#001021"/>
<path d="M7.09903 50.5391L7.08643 54.108L21.0224 62.1745L21.035 58.6055L7.09903 50.5391Z" fill="#001021"/>
<path d="M7.11763 43.0032L7.11133 46.5721L21.041 54.6323L21.0536 51.0633L7.11763 43.0032Z" fill="#001021"/>
<path d="M7.14347 35.4546L7.13086 39.0235L21.0668 47.09L21.0731 43.521L7.14347 35.4546Z" fill="#001021"/>
<path d="M7.16251 27.9062L7.1499 31.4752L21.0859 39.5417L21.0985 35.9664L7.16251 27.9062Z" fill="#001021"/>
<path d="M7.18111 20.364L7.1748 23.933L21.1108 31.9994L21.1171 28.4305L7.18111 20.364Z" fill="#001021"/>
<path d="M7.20645 12.8093L7.19385 16.3846L21.1298 24.4447L21.1424 20.8758L7.20645 12.8093Z" fill="#001021"/>
<path d="M24.6781 38.0383L24.6655 41.6136L38.6015 49.6737L38.6141 46.1048L24.6781 38.0383Z" fill="#001021"/>
<path d="M24.5893 68.2258L24.583 71.7948L38.519 79.8612L38.5253 76.2923L24.5893 68.2258Z" fill="#001021"/>
<path d="M24.6156 60.6711L24.603 64.2464L38.539 72.3066L38.5516 68.7376L24.6156 60.6711Z" fill="#001021"/>
<path d="M24.6342 53.1353L24.6216 56.7042L38.5576 64.7643L38.5702 61.1954L24.6342 53.1353Z" fill="#001021"/>
<path d="M24.6596 45.593L24.647 49.162L38.583 57.2284L38.5893 53.6595L24.6596 45.593Z" fill="#001021"/>
<path d="M42.1117 78.3643L42.0991 81.9332L56.0351 89.9933L56.0414 86.4244L42.1117 78.3643Z" fill="#001021"/>
<path d="M42.1308 70.8096L42.1182 74.3785L56.0541 82.4387L56.0667 78.8697L42.1308 70.8096Z" fill="#001021"/>
<path d="M42.0869 85.9001L42.0806 89.4754L56.0102 97.5356L56.0229 93.9666L42.0869 85.9001Z" fill="#001021"/>
<path d="M24.5712 75.7681L24.5586 79.337L38.4946 87.3972L38.5072 83.8282L24.5712 75.7681Z" fill="#001021"/>
<path d="M93.0975 62.7619C90.9104 62.7619 89.4985 61.448 89.4922 59.4204C89.4922 56.5273 92.5176 52.5857 96.5516 50.2548C98.0123 49.3281 99.6851 48.7911 101.411 48.6946C103.592 48.6946 105.004 50.0021 105.01 52.0235C105.01 54.9292 101.985 58.8708 97.9508 61.2017C96.4931 62.1296 94.8219 62.6669 93.0975 62.7619Z" fill="#001021"/>
<path d="M97.2581 51.4487C100.782 49.4147 103.643 49.6737 103.649 52.0298C103.656 54.3859 100.807 57.9738 97.2834 60.0078C93.76 62.0418 90.8984 61.7891 90.8858 59.414C90.8732 57.039 93.7158 53.489 97.2581 51.4487Z" fill="#EB1C24"/>
<path d="M93.097 60.6901C91.5591 60.6901 91.5591 59.7299 91.5591 59.4267C91.5591 57.3296 94.3135 53.9501 97.5785 52.0614C98.7321 51.3295 100.049 50.8954 101.411 50.7981C102.936 50.7981 102.942 51.7519 102.942 52.0614C102.942 54.1712 100.188 57.5507 96.9167 59.4457C95.765 60.1692 94.453 60.5967 93.097 60.6901Z" fill="url(#paint0_linear)"/>
<defs>
<linearGradient id="paint0_linear" x1="97.2507" y1="60.6901" x2="97.2507" y2="50.7665" gradientUnits="userSpaceOnUse">
<stop stop-color="#EB1C24"/>
<stop offset="1" stop-color="#BA1B22"/>
</linearGradient>
</defs>
</svg>
