<svg width="581" height="522" viewBox="0 0 581 522" fill="none" xmlns="http://www.w3.org/2000/svg">
<path d="M316.439 163.02L316.439 163.02C309.627 166.983 300.705 168.949 291.799 168.949C282.893 168.949 273.95 166.983 267.096 163.021L267.096 163.02L10.9353 14.6949C10.9352 14.6948 10.9352 14.6948 10.9351 14.6948C6.1461 11.9235 2.97354 8.51915 1.48239 4.88756L0.5 353.101C0.5 353.101 0.5 353.101 0.5 353.101C0.500301 358.025 3.73102 363.076 10.4386 366.929L10.44 366.93L266.601 515.256C273.266 519.109 282.027 521.05 290.803 521.05C299.579 521.05 308.317 519.109 314.94 515.256L569.448 366.932L316.439 163.02ZM316.439 163.02L570.949 14.6941C575.599 11.986 578.713 8.66919 580.202 5.11106M316.439 163.02L580.202 5.11106M580.202 5.11106L579.22 353.269C579.193 358.138 576.017 363.077 569.45 366.931L580.202 5.11106Z" fill="white" stroke="#001021"/>
<path d="M390.873 284.158L390.929 300.303L327.999 336.699L327.942 320.555L390.873 284.158Z" fill="#001021"/>
<path d="M390.788 250.1L390.845 266.245L327.914 302.641L327.857 286.525L390.788 250.1Z" fill="#001021"/>
<path d="M390.674 216.014L390.731 232.101L327.8 268.555L327.772 252.41L390.674 216.014Z" fill="#001021"/>
<path d="M390.588 181.956L390.645 198.072L327.715 234.469L327.658 218.352L390.588 181.956Z" fill="#001021"/>
<path d="M390.503 147.841L390.56 163.957L327.63 200.382L327.573 184.238L390.503 147.841Z" fill="#001021"/>
<path d="M469.685 136.174L469.742 152.319L406.812 188.716L406.783 172.6L469.685 136.174Z" fill="#001021"/>
<path d="M469.6 102.088L469.657 118.204L406.726 154.601L406.669 138.485L469.6 102.088Z" fill="#001021"/>
<path d="M549.351 294.826L549.408 310.942L486.478 347.367L486.449 331.251L549.351 294.826Z" fill="#001021"/>
<path d="M549.266 260.797L549.323 276.884L486.392 313.31L486.335 297.193L549.266 260.797Z" fill="#001021"/>
<path d="M549.18 226.681L549.237 242.798L486.307 279.194L486.25 263.078L549.18 226.681Z" fill="#001021"/>
<path d="M549.066 192.624L549.123 208.74L486.193 245.165L486.165 229.021L549.066 192.624Z" fill="#001021"/>
<path d="M548.981 158.594L549.038 174.711L486.108 211.107L486.051 194.991L548.981 158.594Z" fill="#001021"/>
<path d="M548.895 124.479L548.924 140.596L485.994 176.992L485.965 160.876L548.895 124.479Z" fill="#001021"/>
<path d="M548.782 90.4216L548.838 106.538L485.908 142.935L485.88 126.818L548.782 90.4216Z" fill="#001021"/>
<path d="M548.696 56.3066L548.725 72.4228L485.823 108.848L485.766 92.732L548.696 56.3066Z" fill="#001021"/>
<path d="M469.77 170.232L469.827 186.348L406.897 222.774L406.869 206.658L469.77 170.232Z" fill="#001021"/>
<path d="M470.168 306.549L470.225 322.665L407.295 359.062L407.238 342.946L470.168 306.549Z" fill="#001021"/>
<path d="M470.083 272.434L470.112 288.55L407.21 324.947L407.153 308.859L470.083 272.434Z" fill="#001021"/>
<path d="M391.072 352.33L391.129 368.447L328.199 404.843L328.142 388.727L391.072 352.33Z" fill="#001021"/>
<path d="M390.987 318.216L391.015 334.332L328.085 370.729L328.057 354.612L390.987 318.216Z" fill="#001021"/>
<path d="M391.186 386.36L391.214 402.476L328.284 438.901L328.256 422.785L391.186 386.36Z" fill="#001021"/>
<path d="M470.283 340.607L470.311 356.723L407.381 393.12L407.353 377.004L470.283 340.607Z" fill="#001021"/>
<path d="M190.014 281.704L189.958 297.849L252.888 334.246L252.945 318.101L190.014 281.704Z" fill="#001021"/>
<path d="M190.128 247.675L190.071 263.763L253.001 300.188L253.03 284.072L190.128 247.675Z" fill="#001021"/>
<path d="M190.214 213.561L190.157 229.677L253.115 266.074L253.144 249.986L190.214 213.561Z" fill="#001021"/>
<path d="M190.327 179.503L190.271 195.619L253.201 232.044L253.229 215.899L190.327 179.503Z" fill="#001021"/>
<path d="M190.413 145.388L190.356 161.532L253.286 197.929L253.343 181.813L190.413 145.388Z" fill="#001021"/>
<path d="M111.202 133.75L111.174 149.866L174.075 186.263L174.132 170.147L111.202 133.75Z" fill="#001021"/>
<path d="M111.288 99.6349L111.259 115.751L174.189 152.148L174.246 136.032L111.288 99.6349Z" fill="#001021"/>
<path d="M31.5363 292.373L31.5078 308.517L94.4095 344.914L94.4664 328.798L31.5363 292.373Z" fill="#001021"/>
<path d="M31.6217 258.343L31.5933 274.46L94.4949 310.885L94.5519 294.74L31.6217 258.343Z" fill="#001021"/>
<path d="M31.7356 224.229L31.6787 240.345L94.6088 276.77L94.6658 260.654L31.7356 224.229Z" fill="#001021"/>
<path d="M31.8209 190.199L31.7925 206.315L94.6942 242.712L94.7511 226.596L31.8209 190.199Z" fill="#001021"/>
<path d="M31.9349 156.113L31.8779 172.229L94.8081 208.654L94.8365 192.538L31.9349 156.113Z" fill="#001021"/>
<path d="M32.0203 122.026L31.9634 138.143L94.8935 174.568L94.9504 158.423L32.0203 122.026Z" fill="#001021"/>
<path d="M32.1056 87.9685L32.0771 104.085L95.0073 140.51L95.0357 124.394L32.1056 87.9685Z" fill="#001021"/>
<path d="M32.2195 53.8536L32.1626 69.9983L95.0927 106.395L95.1497 90.279L32.2195 53.8536Z" fill="#001021"/>
<path d="M111.117 167.779L111.06 183.924L173.99 220.321L174.047 204.205L111.117 167.779Z" fill="#001021"/>
<path d="M110.718 304.096L110.69 320.212L173.62 356.638L173.649 340.522L110.718 304.096Z" fill="#001021"/>
<path d="M110.832 269.981L110.775 286.126L173.706 322.523L173.762 306.407L110.832 269.981Z" fill="#001021"/>
<path d="M110.918 235.952L110.861 252.068L173.791 288.465L173.848 272.349L110.918 235.952Z" fill="#001021"/>
<path d="M111.032 201.894L110.975 218.01L173.905 254.436L173.933 238.319L111.032 201.894Z" fill="#001021"/>
<path d="M189.844 349.877L189.787 365.994L252.717 402.39L252.745 386.274L189.844 349.877Z" fill="#001021"/>
<path d="M189.929 315.763L189.872 331.879L252.802 368.276L252.859 352.159L189.929 315.763Z" fill="#001021"/>
<path d="M189.73 383.907L189.701 400.051L252.603 436.448L252.66 420.332L189.73 383.907Z" fill="#001021"/>
<path d="M110.633 338.154L110.576 354.27L173.506 390.667L173.563 374.551L110.633 338.154Z" fill="#001021"/>
<path d="M420.075 279.423C410.198 279.423 403.823 273.49 403.794 264.333C403.794 251.269 417.456 233.47 435.672 222.945C442.268 218.76 449.822 216.335 457.617 215.899C467.465 215.899 473.84 221.804 473.869 230.932C473.869 244.053 460.207 261.852 441.991 272.377C435.408 276.567 427.862 278.993 420.075 279.423Z" fill="#001021"/>
<path d="M438.86 228.336C454.77 219.151 467.692 220.321 467.721 230.96C467.749 241.6 454.884 257.801 438.974 266.986C423.063 276.171 410.142 275.03 410.085 264.305C410.028 253.58 422.864 237.549 438.86 228.336Z" fill="#EB1C24"/>
<path d="M420.075 270.067C413.13 270.067 413.13 265.731 413.13 264.362C413.13 254.892 425.568 239.632 440.312 231.103C445.521 227.798 451.467 225.838 457.617 225.398C464.505 225.398 464.533 229.705 464.533 231.103C464.533 240.63 452.095 255.89 437.323 264.448C432.123 267.715 426.198 269.645 420.075 270.067V270.067Z" fill="url(#paint0_linear)"/>
<defs>
<linearGradient id="paint0_linear" x1="438.832" y1="270.067" x2="438.832" y2="225.255" gradientUnits="userSpaceOnUse">
<stop stop-color="#EB1C24"/>
<stop offset="1" stop-color="#BA1B22"/>
</linearGradient>
</defs>
</svg>
