<svg width="372" height="176" viewBox="0 0 372 176" fill="none" xmlns="http://www.w3.org/2000/svg">
<path d="M237.219 55.7023L237.111 61.8763C238.887 61.9073 240.858 61.9634 243.024 62.0445C245.233 62.1264 247.376 62.2289 249.455 62.3518L247.751 70.5783C244.547 70.3924 240.952 70.2646 236.966 70.1951L236.797 79.8786L238.157 80.1624C242.563 81.0194 245.788 82.4409 247.834 84.4269C249.88 86.3696 250.873 89.0957 250.812 92.6051L250.803 93.125C250.771 94.9448 250.503 96.6303 249.999 98.1818C249.54 99.6907 248.758 101.021 247.654 102.171C246.551 103.322 245.061 104.25 243.185 104.954C241.352 105.659 239.07 106.074 236.337 106.2L236.225 112.634L230.701 112.537L230.812 106.168C227.173 106.105 224.248 106.032 222.039 105.95C219.873 105.912 218.227 105.862 217.101 105.799L218.805 97.5723C219.454 97.627 220.212 97.6835 221.078 97.742C221.987 97.7578 222.984 97.7969 224.066 97.8591C225.149 97.878 226.276 97.8977 227.445 97.9181C228.615 97.9385 229.785 97.959 230.955 97.9794L231.135 87.646L229.061 87.2847C227.03 86.9459 225.24 86.4596 223.691 85.8258C222.185 85.1927 220.943 84.3692 219.963 83.3553C218.984 82.3414 218.247 81.115 217.752 79.6762C217.301 78.1948 217.094 76.4359 217.129 74.3995L217.137 73.9446C217.208 72.3856 217.45 70.9162 217.864 69.5366C218.322 68.1577 219.08 66.9357 220.139 65.8707C221.241 64.7631 222.709 63.8786 224.541 63.2171C226.373 62.5124 228.721 62.0766 231.585 61.9099L231.695 55.6058L237.219 55.7023ZM236.645 88.5873L236.481 97.9458C238.347 97.805 239.59 97.3933 240.208 96.7107C240.827 96.0281 241.149 94.9502 241.175 93.4771C241.202 91.9173 240.94 90.8076 240.388 90.1478C239.837 89.4448 238.719 88.9485 237.034 88.6591L236.645 88.5873ZM227.075 74.4431C227.061 75.223 227.094 75.852 227.172 76.3301C227.251 76.8082 227.417 77.2011 227.672 77.509C227.97 77.8176 228.355 78.0627 228.829 78.2443C229.346 78.4267 230.037 78.5904 230.901 78.7355L231.29 78.8073L231.44 70.1636C230.529 70.2344 229.79 70.3732 229.223 70.58C228.657 70.7435 228.218 71.0175 227.908 71.4022C227.599 71.7435 227.375 72.173 227.236 72.6906C227.141 73.1657 227.087 73.7499 227.075 74.4431Z" fill="white"/>
<path d="M186.541 155.662L186.749 157.36C187.237 157.3 187.78 157.239 188.377 157.178C188.986 157.115 189.578 157.061 190.152 157.014L190.002 159.336C189.116 159.408 188.126 159.512 187.03 159.646L187.357 162.308L187.741 162.334C188.982 162.399 189.921 162.664 190.559 163.13C191.195 163.584 191.572 164.293 191.691 165.258L191.708 165.401C191.77 165.901 191.761 166.374 191.683 166.819C191.615 167.25 191.452 167.645 191.193 168.003C190.935 168.361 190.562 168.673 190.075 168.939C189.6 169.202 188.99 169.404 188.245 169.544L188.462 171.313L186.944 171.499L186.729 169.748C185.728 169.871 184.924 169.964 184.315 170.027C183.719 170.1 183.266 170.149 182.955 170.175L183.105 167.854C183.285 167.844 183.495 167.83 183.735 167.813C183.985 167.782 184.259 167.754 184.559 167.73C184.856 167.693 185.166 167.655 185.488 167.616C185.809 167.576 186.131 167.537 186.452 167.497L186.104 164.657L185.521 164.637C184.951 164.623 184.441 164.558 183.992 164.444C183.555 164.329 183.182 164.151 182.875 163.911C182.567 163.67 182.318 163.362 182.126 162.987C181.946 162.598 181.821 162.124 181.752 161.564L181.737 161.439C181.696 161.009 181.706 160.596 181.766 160.202C181.839 159.806 181.999 159.442 182.249 159.109C182.509 158.763 182.877 158.464 183.354 158.212C183.829 157.948 184.456 157.738 185.235 157.582L185.022 155.849L186.541 155.662ZM187.651 164.702L187.967 167.275C188.473 167.165 188.798 167.004 188.941 166.793C189.084 166.582 189.131 166.274 189.081 165.869C189.029 165.44 188.914 165.146 188.737 164.986C188.559 164.815 188.233 164.722 187.76 164.707L187.651 164.702ZM184.481 161.192C184.508 161.407 184.541 161.578 184.581 161.706C184.621 161.834 184.681 161.936 184.763 162.01C184.857 162.083 184.972 162.136 185.109 162.167C185.258 162.197 185.453 162.216 185.696 162.222L185.805 162.227L185.513 159.851C185.266 159.905 185.069 159.972 184.921 160.05C184.772 160.117 184.663 160.209 184.593 160.326C184.521 160.432 184.476 160.558 184.458 160.706C184.45 160.84 184.458 161.002 184.481 161.192Z" fill="white"/>
<path d="M362.415 127.272L362.658 129.252C363.228 129.182 363.861 129.111 364.557 129.04C365.268 128.967 365.958 128.903 366.628 128.849L366.453 131.557C365.42 131.642 364.264 131.763 362.985 131.92L363.367 135.025L363.815 135.055C365.263 135.131 366.359 135.441 367.103 135.984C367.845 136.514 368.285 137.341 368.423 138.467L368.443 138.634C368.515 139.217 368.505 139.769 368.414 140.288C368.334 140.791 368.144 141.252 367.843 141.669C367.542 142.087 367.107 142.451 366.538 142.761C365.984 143.069 365.272 143.304 364.403 143.467L364.657 145.531L362.885 145.748L362.634 143.705C361.467 143.849 360.528 143.957 359.818 144.03C359.123 144.115 358.594 144.173 358.231 144.204L358.406 141.495C358.616 141.484 358.861 141.468 359.141 141.447C359.433 141.411 359.753 141.379 360.102 141.35C360.45 141.308 360.811 141.263 361.186 141.217C361.561 141.171 361.937 141.125 362.312 141.079L361.905 137.765L361.225 137.743C360.56 137.726 359.965 137.651 359.441 137.517C358.931 137.383 358.496 137.175 358.138 136.895C357.779 136.614 357.488 136.255 357.265 135.817C357.054 135.363 356.908 134.81 356.828 134.157L356.81 134.011C356.763 133.509 356.774 133.028 356.845 132.568C356.929 132.106 357.117 131.681 357.407 131.293C357.711 130.889 358.14 130.54 358.697 130.246C359.251 129.938 359.983 129.693 360.891 129.511L360.643 127.489L362.415 127.272ZM363.71 137.818L364.078 140.82C364.669 140.691 365.048 140.503 365.215 140.257C365.382 140.011 365.437 139.652 365.379 139.179C365.318 138.679 365.184 138.336 364.978 138.149C364.77 137.949 364.39 137.841 363.837 137.824L363.71 137.818ZM360.012 133.724C360.043 133.974 360.081 134.173 360.128 134.323C360.175 134.472 360.246 134.591 360.341 134.678C360.45 134.763 360.585 134.824 360.744 134.861C360.918 134.896 361.146 134.917 361.429 134.925L361.557 134.93L361.216 132.158C360.928 132.222 360.698 132.299 360.526 132.391C360.352 132.469 360.224 132.576 360.142 132.713C360.058 132.836 360.006 132.984 359.985 133.156C359.976 133.312 359.985 133.501 360.012 133.724Z" fill="white"/>
<path d="M13.5558 43.2899L14.693 46.4144C15.592 46.0872 16.5936 45.7351 17.6979 45.358C18.8241 44.9729 19.9214 44.6108 20.9898 44.2715L21.7208 48.7358C20.0743 49.2606 18.2424 49.89 16.2252 50.6243L18.0089 55.5248L18.7474 55.4049C21.1275 54.9856 23.0234 55.0777 24.435 55.6813C25.8385 56.263 26.8635 57.4419 27.51 59.2179L27.6057 59.481C27.9409 60.4019 28.1315 61.3009 28.1777 62.178C28.2377 63.0253 28.1014 63.8446 27.7687 64.6362C27.436 65.4277 26.8661 66.1814 26.059 66.8973C25.2737 67.6052 24.2064 68.2544 22.857 68.8449L24.0421 72.1009L21.2465 73.1185L20.0734 69.8953C18.2316 70.5657 16.7476 71.0934 15.6213 71.4785C14.525 71.8775 13.6879 72.1698 13.1098 72.3554L12.3789 67.8911C12.7157 67.7934 13.1074 67.6756 13.5539 67.5379C14.0144 67.3703 14.5227 67.1978 15.0788 67.0202C15.627 66.8207 16.197 66.6132 16.789 66.3977C17.381 66.1822 17.9731 65.9667 18.5651 65.7513L16.6617 60.5219L15.5494 60.7405C14.463 60.9621 13.4693 61.0631 12.5682 61.0434C11.6891 61.0157 10.9056 60.8415 10.2177 60.5208C9.52989 60.2 8.92273 59.7258 8.39626 59.098C7.88374 58.4403 7.43994 57.5961 7.06486 56.5656L6.98106 56.3354C6.71569 55.5381 6.55399 54.7527 6.49595 53.9792C6.45984 53.1978 6.60514 52.4372 6.93186 51.6975C7.27252 50.9279 7.83946 50.2001 8.63267 49.5141C9.4179 48.8062 10.5141 48.1341 11.9214 47.4977L10.7602 44.3075L13.5558 43.2899ZM19.6129 59.9319L21.3367 64.668C22.2476 64.2371 22.7927 63.7904 22.972 63.3279C23.1513 62.8653 23.1052 62.2613 22.8339 61.5158C22.5466 60.7265 22.2006 60.2192 21.7958 59.9941C21.3831 59.747 20.7252 59.7133 19.8222 59.893L19.6129 59.9319ZM12.073 54.6683C12.2166 55.063 12.3543 55.3729 12.4859 55.5982C12.6175 55.8234 12.7771 55.9888 12.9645 56.0944C13.1738 56.192 13.4151 56.2408 13.6882 56.2407C13.9832 56.2326 14.3619 56.1817 14.8244 56.0879L15.0337 56.0489L13.4416 51.6747C12.9971 51.8861 12.6523 52.0985 12.4072 52.3119C12.1541 52.5033 11.9867 52.7257 11.905 52.9789C11.8154 53.2101 11.7856 53.4693 11.8155 53.7564C11.8595 54.0135 11.9453 54.3175 12.073 54.6683Z" fill="white"/>
<path d="M180.687 10.818L179.35 13.442C180.105 13.8267 180.938 14.2628 181.849 14.7503C182.779 15.2473 183.676 15.7393 184.542 16.2265L182.091 19.3966C180.757 18.647 179.242 17.8407 177.548 16.9775L175.451 21.093L175.975 21.499C177.684 22.7875 178.77 24.0713 179.232 25.3503C179.703 26.6108 179.558 27.9869 178.798 29.4784L178.686 29.6994C178.292 30.4728 177.824 31.1393 177.284 31.699C176.771 32.2497 176.158 32.6563 175.445 32.9189C174.731 33.1815 173.898 33.2676 172.947 33.1772C172.014 33.0962 170.949 32.7969 169.751 32.2795L168.358 35.014L166.01 33.8177L167.39 31.1108C165.843 30.3227 164.605 29.6801 163.675 29.1832C162.754 28.7141 162.059 28.3483 161.59 28.086L164.04 24.9159C164.307 25.075 164.62 25.2576 164.979 25.4637C165.365 25.6607 165.784 25.8858 166.235 26.1387C166.695 26.3733 167.174 26.6173 167.671 26.8706C168.169 27.1239 168.666 27.3772 169.163 27.6306L171.401 23.2388L170.587 22.6504C169.787 22.0805 169.122 21.4978 168.59 20.9022C168.077 20.316 167.717 19.7032 167.509 19.0639C167.301 18.4246 167.242 17.7448 167.33 17.0245C167.447 16.2953 167.725 15.4979 168.166 14.6324L168.265 14.4391C168.621 13.7856 169.032 13.2064 169.498 12.7016C169.983 12.2062 170.563 11.8409 171.24 11.6057C171.944 11.3615 172.758 11.2891 173.681 11.3886C174.614 11.4696 175.712 11.7737 176.974 12.3009L178.339 9.62169L180.687 10.818ZM173.565 24.7942L171.539 28.7716C172.368 29.1014 172.987 29.1847 173.395 29.0214C173.803 28.8582 174.166 28.4635 174.485 27.8374C174.823 27.1745 174.942 26.644 174.844 26.2458C174.755 25.8292 174.379 25.3827 173.717 24.9063L173.565 24.7942ZM172.421 16.7305C172.252 17.062 172.134 17.3384 172.068 17.5597C172.001 17.781 171.991 17.9842 172.035 18.1694C172.099 18.364 172.213 18.5497 172.378 18.7266C172.561 18.9129 172.823 19.1274 173.163 19.3703L173.315 19.4824L175.187 15.8088C174.781 15.6486 174.435 15.5535 174.149 15.5236C173.872 15.4753 173.627 15.5012 173.414 15.6012C173.21 15.6828 173.024 15.8201 172.856 16.0129C172.716 16.1967 172.571 16.4359 172.421 16.7305Z" fill="white"/>
<path d="M41.045 130.472L41.2245 132.173C41.7141 132.122 42.258 132.07 42.8562 132.019C43.4664 131.967 44.0594 131.922 44.635 131.886L44.4452 134.206C43.5578 134.263 42.5649 134.35 41.4665 134.466L41.7481 137.134L42.1317 137.166C43.3723 137.253 44.3075 137.534 44.9373 138.011C45.5659 138.476 45.9312 139.192 46.0332 140.159L46.0484 140.302C46.1013 140.804 46.0848 141.276 45.9988 141.72C45.9235 142.151 45.7536 142.543 45.4891 142.897C45.2246 143.251 44.8464 143.556 44.3544 143.813C43.8743 144.069 43.2607 144.261 42.5135 144.388L42.7006 146.161L41.1783 146.322L40.9931 144.566C39.9901 144.672 39.1835 144.751 38.5733 144.804C37.9763 144.867 37.522 144.909 37.2103 144.929L37.4001 142.609C37.5804 142.602 37.7907 142.592 38.0307 142.579C38.2815 142.553 38.5567 142.53 38.8565 142.51C39.155 142.479 39.4654 142.446 39.7878 142.412C40.1102 142.378 40.4325 142.344 40.7549 142.31L40.4544 139.462L39.8718 139.433C39.3018 139.409 38.7931 139.336 38.3456 139.214C37.9101 139.091 37.5405 138.906 37.2369 138.661C36.9333 138.415 36.6891 138.103 36.5042 137.724C36.33 137.332 36.2133 136.855 36.1541 136.294L36.1409 136.169C36.1075 135.737 36.1243 135.325 36.1915 134.932C36.2705 134.537 36.4376 134.175 36.6927 133.847C36.9584 133.505 37.3319 133.212 37.8133 132.968C38.2933 132.712 38.9242 132.513 39.706 132.37L39.5226 130.632L41.045 130.472ZM42.0013 139.534L42.2735 142.113C42.7819 142.011 43.1096 141.856 43.2566 141.647C43.4036 141.439 43.4556 141.131 43.4128 140.725C43.3674 140.296 43.2577 139.999 43.0836 139.837C42.9082 139.662 42.5839 139.563 42.1107 139.541L42.0013 139.534ZM38.8906 135.969C38.9132 136.184 38.9435 136.356 38.9812 136.485C39.0189 136.613 39.078 136.716 39.1585 136.792C39.2509 136.867 39.3653 136.921 39.5017 136.955C39.65 136.987 39.8454 137.009 40.088 137.02L40.1974 137.026L39.946 134.644C39.6978 134.695 39.4992 134.758 39.3503 134.834C39.2001 134.898 39.0889 134.988 39.0167 135.104C38.9432 135.209 38.8961 135.335 38.8754 135.482C38.8653 135.615 38.8704 135.778 38.8906 135.969Z" fill="white"/>
</svg>
