<svg xmlns="http://www.w3.org/2000/svg" width="612" height="319" fill="none" style=""><rect id="backgroundrect" width="100%" height="100%" x="0" y="0" fill="none" stroke="none" class="" style=""/>






<defs>
<linearGradient id="paint0_linear" x1="-0.14599215984344482" y1="1.6870028972625732" x2="0.3315368592739105" y2="0.7431364059448242">
<stop stop-color="#F9BA4D"/>
<stop offset="1" stop-color="#754A1D"/>
</linearGradient>
<linearGradient id="paint1_linear" x1="0.38100066781044006" y1="0.6369999647140503" x2="0.5317931771278381" y2="0.27779197692871094">
<stop stop-color="#F8D176"/>
<stop offset="1" stop-color="#F7D99D"/>
</linearGradient>
<linearGradient id="paint2_linear" x1="-0.08199800550937653" y1="0.5889995694160461" x2="0.8769976496696472" y2="0.5889995694160461">
<stop stop-color="#F9BA4D"/>
<stop offset="1" stop-color="#C07F2A"/>
</linearGradient>
</defs>
<g class="currentLayer" style=""><title>Layer 1</title><path d="M462.87031071424485,74.15875620059967 L451.35631071424484,107.01495620059967 L452.8203107142449,114.65495620059967 L487.91331071424486,88.00875620059968 L462.87031071424485,74.15875620059967 z" fill="url(#paint0_linear)" id="svg_1" class=""/><path d="M388.4453107142449,25.94295620059967 L553.0253107142448,144.97695620059966 L611.7783107142449,0.2769562005996704 L388.4453107142449,25.94295620059967 z" fill="url(#paint1_linear)" id="svg_2" class=""/><path d="M435.6273107142448,60.06985620059967 L611.7783107142449,0.27988589059967084 L466.62031071424485,82.48485620059967 L452.8203107142449,114.65495620059967 L435.6273107142448,60.06985620059967 z" fill="url(#paint2_linear)" id="svg_3" class=""/><path d="M-287.6263892857552,819.2989562005997 C-288.78438928575514,817.3319562005996 -289.90768928575517,815.3749562005996 -290.9963892857552,813.4259562005997 " stroke="white" stroke-width="1.984" stroke-miterlimit="10" stroke-linecap="round" id="svg_4" class=""/><path d="M-297.3324892857552,801.3559562005996 C-381.0144892857552,631.1419562005997 -184.33268928575512,536.9919562005997 -16.21768928575517,498.19595620059965 C142.39231071424484,461.5959562005997 250.72631071424485,421.90495620059966 276.21631071424486,352.9349562005997 C308.7083107142448,265.0139562005997 204.18731071424486,132.41895620059967 116.93931071424487,103.82495620059967 C63.89231071424484,86.44005620059967 15.025310714244824,108.82495620059967 4.8073107142448634,149.69695620059966 C-7.933689285755179,200.66495620059968 43.513310714244824,237.15795620059967 98.46231071424484,245.89695620059967 C173.27331071424481,257.79695620059965 332.27931071424484,211.72195620059966 434.6563107142448,127.84895620059967 " stroke="white" stroke-width="1.984" stroke-miterlimit="10" stroke-linecap="round" stroke-dasharray="7.13 7.13" id="svg_5" class=""/><path d="M439.88531071424484,123.49295620059968 C441.61131071424484,122.02595620059967 443.3193107142448,120.55095620059967 445.00931071424486,119.06795620059967 " stroke="white" stroke-width="1.984" stroke-miterlimit="10" stroke-linecap="round" id="svg_6" class=""/></g></svg>