<svg width="365" height="983" viewBox="0 0 365 983" fill="none" xmlns="http://www.w3.org/2000/svg">
<path d="M38.1509 649.499C38.5549 650.934 38.9465 652.359 39.3259 653.774" stroke="#333333" stroke-width="1.984" stroke-miterlimit="10" stroke-linecap="round"/>
<path d="M41.5188 662.398C75.5688 804.149 -12.6752 850.998 41.7928 954.109" stroke="#333333" stroke-width="1.984" stroke-miterlimit="10" stroke-linecap="round" stroke-dasharray="7.11 7.11"/>
<path d="M43.9148 958.021C44.6241 959.297 45.3548 960.581 46.1068 961.874" stroke="#333333" stroke-width="1.984" stroke-miterlimit="10" stroke-linecap="round"/>
<path d="M0 677.229L47.982 599.02L95.964 677.229H0Z" fill="white"/>
<path d="M47.9819 599.017L33.8579 677.229L47.9829 692.308L62.1079 677.228L47.9819 599.017Z" fill="url(#paint0_linear)"/>
<path d="M127.429 280.69C127.77 282.133 128.07 283.579 128.329 285.03" stroke="#333333" stroke-width="1.984" stroke-miterlimit="10" stroke-linecap="round"/>
<path d="M129.402 293.901C132.446 337.976 103.554 386.746 114.918 445.84C127.429 510.899 142.443 540.926 143.694 589.72C145.038 642.12 108.212 693.259 110.857 799.768" stroke="#333333" stroke-width="1.984" stroke-miterlimit="10" stroke-linecap="round" stroke-dasharray="7.15 7.15"/>
<path d="M110.989 804.238C111.04 805.705 111.099 807.182 111.164 808.668" stroke="#333333" stroke-width="1.984" stroke-miterlimit="10" stroke-linecap="round"/>
<path d="M81.324 300.07L129.306 221.86L177.288 300.07H81.324Z" fill="white"/>
<path d="M129.305 221.858L115.18 300.07L129.305 315.149L143.43 300.069L129.305 221.858Z" fill="url(#paint1_linear)"/>
<path d="M223.767 63.8369C223.398 65.2956 223.034 66.7289 222.676 68.1369" stroke="#333333" stroke-width="1.984" stroke-miterlimit="10" stroke-linecap="round"/>
<path d="M220.467 76.7822C201.201 152.12 201.537 150.335 230.022 269.023C260.049 394.136 202.497 415.406 207.502 496.729C212.413 576.515 287.169 646.666 228.559 786.344" stroke="#333333" stroke-width="1.984" stroke-miterlimit="10" stroke-linecap="round" stroke-dasharray="7.13 7.13"/>
<path d="M226.809 790.443C226.225 791.789 225.628 793.141 225.019 794.499" stroke="#333333" stroke-width="1.984" stroke-miterlimit="10" stroke-linecap="round"/>
<path d="M170.147 78.2119L218.129 0.00195312L266.111 78.2119H170.147Z" fill="white"/>
<path d="M218.128 0L204.004 78.212L218.129 93.291L232.254 78.211L218.128 0Z" fill="url(#paint2_linear)"/>
<path d="M178.726 456.041C178.643 457.541 178.551 459.016 178.448 460.466" stroke="#333333" stroke-width="1.984" stroke-miterlimit="10" stroke-linecap="round"/>
<path d="M177.68 469.467C171.98 526.002 153.451 544.539 172.888 631.2C192.422 718.291 129.352 764.08 170.473 874.753" stroke="#333333" stroke-width="1.984" stroke-miterlimit="10" stroke-linecap="round" stroke-dasharray="7.22 7.22"/>
<path d="M172.081 878.977C172.614 880.34 173.161 881.712 173.721 883.095" stroke="#333333" stroke-width="1.984" stroke-miterlimit="10" stroke-linecap="round"/>
<path d="M128.867 475.421L176.849 397.211L224.831 475.421H128.867Z" fill="white"/>
<path d="M176.848 397.209L162.723 475.421L176.848 490.5L190.973 475.42L176.848 397.209Z" fill="url(#paint3_linear)"/>
<path d="M281.317 388.475C280.984 389.926 280.689 391.374 280.434 392.818" stroke="#333333" stroke-width="1.984" stroke-miterlimit="10" stroke-linecap="round"/>
<path d="M279.323 401.598C273.893 472.698 353.883 538.303 353.883 637.449C353.883 744.571 254.519 808.07 327.69 973.436" stroke="#333333" stroke-width="1.984" stroke-miterlimit="10" stroke-linecap="round" stroke-dasharray="7.08 7.08"/>
<path d="M329.508 977.486C330.115 978.819 330.733 980.161 331.363 981.512" stroke="#333333" stroke-width="1.984" stroke-miterlimit="10" stroke-linecap="round"/>
<path d="M235.211 411.609L283.193 333.399L331.171 411.609H235.211Z" fill="white"/>
<path d="M283.189 333.397L269.065 411.609L283.19 426.688L297.315 411.608L283.189 333.397Z" fill="url(#paint4_linear)"/>
<path d="M316.349 243.625C316.076 245.095 315.818 246.551 315.575 247.993" stroke="#333333" stroke-width="1.984" stroke-miterlimit="10" stroke-linecap="round"/>
<path d="M314.261 256.563C299.53 365.218 367.671 394.963 362.921 575.179" stroke="#333333" stroke-width="1.984" stroke-miterlimit="10" stroke-linecap="round" stroke-dasharray="6.93 6.93"/>
<path d="M362.799 579.503C362.752 580.97 362.699 582.446 362.641 583.933" stroke="#333333" stroke-width="1.984" stroke-miterlimit="10" stroke-linecap="round"/>
<path d="M263.988 259.264L311.97 181.054L359.952 259.264H263.988Z" fill="white"/>
<path d="M311.966 181.054L297.841 259.264L311.966 274.343L326.091 259.263L311.966 181.054Z" fill="url(#paint5_linear)"/>
<defs>
<linearGradient id="paint0_linear" x1="47.9829" y1="602.842" x2="47.9829" y2="687.364" gradientUnits="userSpaceOnUse">
<stop stop-color="#8EBBD0"/>
<stop offset="0.094" stop-color="#9BC4D7"/>
<stop offset="0.285" stop-color="#B5D5E5"/>
<stop offset="0.52" stop-color="#C2DFED"/>
<stop offset="1" stop-color="#DCF2FD"/>
</linearGradient>
<linearGradient id="paint1_linear" x1="129.305" y1="225.683" x2="129.305" y2="310.204" gradientUnits="userSpaceOnUse">
<stop stop-color="#8EBBD0"/>
<stop offset="0.094" stop-color="#9BC4D7"/>
<stop offset="0.285" stop-color="#B5D5E5"/>
<stop offset="0.52" stop-color="#C2DFED"/>
<stop offset="1" stop-color="#DCF2FD"/>
</linearGradient>
<linearGradient id="paint2_linear" x1="218.129" y1="3.82493" x2="218.129" y2="88.3466" gradientUnits="userSpaceOnUse">
<stop stop-color="#8EBBD0"/>
<stop offset="0.094" stop-color="#9BC4D7"/>
<stop offset="0.285" stop-color="#B5D5E5"/>
<stop offset="0.52" stop-color="#C2DFED"/>
<stop offset="1" stop-color="#DCF2FD"/>
</linearGradient>
<linearGradient id="paint3_linear" x1="176.848" y1="401.034" x2="176.848" y2="485.556" gradientUnits="userSpaceOnUse">
<stop stop-color="#8EBBD0"/>
<stop offset="0.094" stop-color="#9BC4D7"/>
<stop offset="0.285" stop-color="#B5D5E5"/>
<stop offset="0.52" stop-color="#C2DFED"/>
<stop offset="1" stop-color="#DCF2FD"/>
</linearGradient>
<linearGradient id="paint4_linear" x1="283.19" y1="337.222" x2="283.19" y2="421.744" gradientUnits="userSpaceOnUse">
<stop stop-color="#8EBBD0"/>
<stop offset="0.094" stop-color="#9BC4D7"/>
<stop offset="0.285" stop-color="#B5D5E5"/>
<stop offset="0.52" stop-color="#C2DFED"/>
<stop offset="1" stop-color="#DCF2FD"/>
</linearGradient>
<linearGradient id="paint5_linear" x1="311.966" y1="184.879" x2="311.966" y2="269.398" gradientUnits="userSpaceOnUse">
<stop stop-color="#8EBBD0"/>
<stop offset="0.094" stop-color="#9BC4D7"/>
<stop offset="0.285" stop-color="#B5D5E5"/>
<stop offset="0.52" stop-color="#C2DFED"/>
<stop offset="1" stop-color="#DCF2FD"/>
</linearGradient>
</defs>
</svg>
