<svg width="51" height="51" viewBox="0 0 51 51" fill="none" xmlns="http://www.w3.org/2000/svg">
<path d="M50.7857 40.4286C50.7857 41.0714 50.6667 41.9167 50.4286 42.9643C50.1905 43.9881 49.9405 44.7976 49.6786 45.3929C49.1786 46.5833 47.7262 47.8452 45.3214 49.1786C43.0833 50.3929 40.869 51 38.6786 51C38.0357 51 37.4048 50.9643 36.7857 50.8929C36.1905 50.7976 35.5119 50.6429 34.75 50.4286C33.9881 50.2143 33.4167 50.0476 33.0357 49.9286C32.6786 49.7857 32.0238 49.5357 31.0714 49.1786C30.119 48.8214 29.5357 48.6071 29.3214 48.5357C26.9881 47.7024 24.9048 46.7143 23.0714 45.5714C20.0238 43.6905 16.869 41.131 13.6071 37.8929C10.369 34.631 7.80952 31.4762 5.92857 28.4286C4.78571 26.5952 3.79762 24.5119 2.96429 22.1786C2.89286 21.9643 2.67857 21.381 2.32143 20.4286C1.96429 19.4762 1.71429 18.8214 1.57143 18.4643C1.45238 18.0833 1.28571 17.5119 1.07143 16.75C0.857143 15.9881 0.702381 15.3095 0.607143 14.7143C0.535714 14.0952 0.5 13.4643 0.5 12.8214C0.5 10.631 1.10714 8.41667 2.32143 6.17857C3.65476 3.77381 4.91667 2.32143 6.10714 1.82143C6.70238 1.55952 7.51191 1.30952 8.53572 1.07143C9.58333 0.833331 10.4286 0.714283 11.0714 0.714283C11.4048 0.714283 11.6548 0.749997 11.8214 0.821426C12.25 0.964284 12.881 1.86905 13.7143 3.53571C13.9762 3.98809 14.3333 4.63095 14.7857 5.46428C15.2381 6.29762 15.6548 7.05952 16.0357 7.75C16.4167 8.41667 16.7857 9.04762 17.1429 9.64286C17.2143 9.73809 17.4167 10.0357 17.75 10.5357C18.1071 11.0357 18.369 11.4643 18.5357 11.8214C18.7024 12.1548 18.7857 12.4881 18.7857 12.8214C18.7857 13.2976 18.4405 13.8929 17.75 14.6071C17.0833 15.3214 16.3452 15.9762 15.5357 16.5714C14.75 17.1667 14.0119 17.7976 13.3214 18.4643C12.6548 19.131 12.3214 19.6786 12.3214 20.1071C12.3214 20.3214 12.381 20.5952 12.5 20.9286C12.619 21.2381 12.7143 21.4762 12.7857 21.6429C12.881 21.8095 13.0476 22.0952 13.2857 22.5C13.5476 22.9048 13.6905 23.131 13.7143 23.1786C15.5238 26.4405 17.5952 29.2381 19.9286 31.5714C22.2619 33.9048 25.0595 35.9762 28.3214 37.7857C28.369 37.8095 28.5952 37.9524 29 38.2143C29.4048 38.4524 29.6905 38.619 29.8571 38.7143C30.0238 38.7857 30.2619 38.881 30.5714 39C30.9048 39.119 31.1786 39.1786 31.3929 39.1786C31.8214 39.1786 32.369 38.8452 33.0357 38.1786C33.7024 37.4881 34.3333 36.75 34.9286 35.9643C35.5238 35.1548 36.1786 34.4167 36.8929 33.75C37.6071 33.0595 38.2024 32.7143 38.6786 32.7143C39.0119 32.7143 39.3452 32.7976 39.6786 32.9643C40.0357 33.131 40.4643 33.3929 40.9643 33.75C41.4643 34.0833 41.7619 34.2857 41.8571 34.3571C42.4524 34.7143 43.0833 35.0833 43.75 35.4643C44.4405 35.8452 45.2024 36.2619 46.0357 36.7143C46.8691 37.1667 47.5119 37.5238 47.9643 37.7857C49.631 38.619 50.5357 39.25 50.6786 39.6786C50.75 39.8452 50.7857 40.0952 50.7857 40.4286Z" fill="white"/>
</svg>
