<svg width="1146" height="829" viewBox="0 220 1146 829" fill="none" xmlns="http://www.w3.org/2000/svg">
<path d="M380 609L710 579V1049H380V609Z" fill="#D61B22"/>
<path d="M760 539L1090 509V1049H760V539Z" fill="#EB1C24"/>
<path d="M0 689L330 659V1049H0V689Z" fill="#B7191F"/>
<path d="M864.331 720.297C866.562 718.638 866.78 716.565 875.468 706.375C866.779 716.564 864.43 717.196 863.245 719.566C862.672 716.979 859.612 713.622 853.727 701.557C859.611 713.622 860.263 717.848 862.001 720.001C859.201 719.073 859.967 720.401 845.374 718.52C859.967 720.396 858.901 721.38 861.843 721.186C859.612 722.845 859.631 724.686 850.923 734.871C859.631 724.68 861.744 724.286 862.949 721.916C863.522 724.523 866.326 727.011 872.21 739.076C866.325 727.011 865.931 723.654 864.173 721.482C866.973 722.41 865.417 721.225 880.01 723.101C865.417 721.225 867.273 720.119 864.331 720.297Z" fill="#DBDBDB"/>
<path d="M830.011 698.28C832.302 696.68 832.598 694.607 841.642 684.655C832.598 694.608 830.228 695.2 828.942 697.51C828.468 694.923 825.526 691.487 820.056 679.284C825.526 691.484 826.02 695.733 827.698 697.925C824.933 696.938 825.625 698.28 811.111 696.025C825.625 698.276 824.539 699.225 827.501 699.106C825.21 700.706 825.151 702.542 816.107 712.514C825.151 702.542 827.284 702.206 828.567 699.876C829.041 702.482 831.767 705.05 837.236 717.253C831.766 705.053 831.49 701.673 829.811 699.461C832.576 700.468 831.055 699.224 845.589 701.475C831.057 699.227 832.953 698.161 830.011 698.28Z" fill="#DBDBDB"/>
<path d="M838.245 619.668C840.516 618.068 840.812 615.995 849.856 606.043C840.812 615.996 838.442 616.588 837.156 618.898C836.682 616.311 833.756 612.875 828.29 600.672C833.76 612.872 834.254 617.121 835.912 619.313C833.147 618.326 833.858 619.649 819.344 617.413C833.858 619.644 832.772 620.592 835.714 620.493C833.446 622.097 833.392 623.933 824.343 633.903C833.392 623.933 835.52 623.578 836.783 621.267C837.277 623.854 840.002 626.441 845.452 638.644C840.002 626.444 839.725 623.064 838.047 620.852C840.812 621.859 839.291 620.615 853.805 622.866C839.292 620.616 841.192 619.549 838.245 619.668Z" fill="#DBDBDB"/>
<path d="M788.898 456.422C791.189 454.822 791.485 452.749 800.529 442.797C791.485 452.749 789.115 453.342 787.829 455.652C787.358 453.063 784.415 449.622 778.944 437.422C784.414 449.622 784.908 453.851 786.586 456.063C783.821 455.076 784.532 456.399 769.999 454.163C784.533 456.394 783.447 457.363 786.389 457.243C784.098 458.843 784.039 460.679 774.995 470.651C784.039 460.679 786.172 460.323 787.455 457.993C787.929 460.6 790.655 463.186 796.124 475.393C790.654 463.193 790.378 459.813 788.699 457.601C791.464 458.608 789.943 457.364 804.477 459.615C789.944 457.367 791.86 456.301 788.898 456.422Z" fill="#DBDBDB"/>
<path d="M1046.69 351.505C1048.98 349.905 1049.28 347.852 1058.32 337.88C1049.28 347.852 1046.91 348.425 1045.62 350.735C1045.15 348.148 1042.21 344.712 1036.74 332.509C1042.21 344.709 1042.7 348.958 1044.38 351.15C1041.62 350.163 1042.33 351.505 1027.81 349.25C1042.33 351.501 1041.24 352.45 1044.18 352.33C1041.89 353.93 1041.85 355.766 1032.79 365.738C1041.85 355.766 1043.97 355.43 1045.25 353.1C1045.72 355.707 1048.45 358.274 1053.92 370.477C1048.45 358.277 1048.17 354.897 1046.49 352.685C1049.28 353.692 1047.76 352.448 1062.27 354.699C1047.76 352.452 1049.64 351.386 1046.69 351.505Z" fill="#DBDBDB"/>
<path d="M958.129 561.453C960.42 559.853 960.716 557.78 969.76 547.808C960.716 557.78 958.346 558.353 957.06 560.683C956.586 558.096 953.644 554.641 948.194 542.437C953.644 554.637 954.138 558.886 955.816 561.098C953.051 560.091 953.762 561.434 939.248 559.183C953.762 561.434 952.676 562.383 955.618 562.263C953.331 563.862 953.271 565.718 944.224 575.671C953.268 565.718 955.424 565.363 956.684 563.033C957.178 565.64 959.903 568.207 965.353 580.41C959.903 568.21 959.607 564.83 957.928 562.618C960.712 563.625 959.172 562.401 973.706 564.632C959.176 562.401 961.091 561.335 958.129 561.453Z" fill="#DBDBDB"/>
<path d="M922.129 443.584C924.4 441.984 924.696 439.911 933.74 429.939C924.696 439.911 922.326 440.484 921.04 442.814C920.566 440.227 917.64 436.771 912.174 424.588C917.644 436.772 918.138 441.017 919.796 443.229C917.031 442.222 917.742 443.565 903.228 441.329C917.742 443.56 916.656 444.508 919.598 444.39C917.327 445.99 917.268 447.846 908.224 457.798C917.268 447.846 919.401 447.49 920.665 445.16C921.159 447.767 923.884 450.353 929.334 462.537C923.884 450.353 923.607 446.976 921.929 444.745C924.694 445.752 923.173 444.528 937.687 446.759C923.176 444.536 925.072 443.465 922.129 443.584Z" fill="#DBDBDB"/>
<path d="M957.692 433C959.963 431.4 960.259 429.347 969.303 419.375C960.259 429.347 957.889 429.92 956.603 432.25C956.129 429.643 953.203 426.207 947.737 414.004C953.207 426.204 953.701 430.453 955.359 432.645C952.594 431.658 953.305 433 938.791 430.745C953.305 432.996 952.219 433.945 955.161 433.826C952.892 435.428 952.836 437.265 943.792 447.237C952.836 437.265 954.969 436.929 956.233 434.599C956.727 437.206 959.452 439.773 964.922 451.976C959.452 439.776 959.176 436.396 957.497 434.184C960.262 435.191 958.741 433.947 973.255 436.198C958.74 433.947 960.636 432.901 957.692 433Z" fill="#DBDBDB"/>
<path d="M978.409 334.029C980.7 332.429 980.996 330.376 990.04 320.404C980.996 330.376 978.626 330.949 977.34 333.259C976.866 330.672 973.924 327.236 968.454 315.033C973.924 327.233 974.418 331.482 976.096 333.674C973.331 332.687 974.042 334.029 959.509 331.774C974.043 334.025 972.957 334.974 975.899 334.855C973.608 336.455 973.549 338.291 964.505 348.263C973.549 338.291 975.682 337.955 976.965 335.625C977.439 338.212 980.165 340.799 985.634 353.002C980.164 340.802 979.888 337.422 978.209 335.21C980.974 336.217 979.453 334.973 993.987 337.224C979.458 334.976 981.351 333.91 978.409 334.029Z" fill="#DBDBDB"/>
<path d="M980.008 261.459C982.299 259.879 982.575 257.806 991.619 247.834C982.575 257.806 980.225 258.379 978.942 260.709C978.468 258.102 975.526 254.666 970.056 242.463C975.526 254.663 976.02 258.912 977.698 261.104C974.933 260.117 975.625 261.459 961.111 259.204C975.625 261.455 974.539 262.404 977.501 262.285C975.21 263.885 975.151 265.721 966.107 275.693C975.151 265.721 977.284 265.385 978.567 263.055C979.041 265.662 981.767 268.229 987.236 280.432C981.766 268.232 981.49 264.852 979.811 262.64C982.576 263.647 981.055 262.423 995.589 264.654C981.054 262.426 982.95 261.36 980.008 261.459Z" fill="#DBDBDB"/>
<path d="M947.367 234.998C949.658 233.418 949.954 231.345 958.998 221.373C949.954 231.345 947.584 231.918 946.298 234.248C945.824 231.641 942.882 228.205 937.412 216.002C942.882 228.202 943.376 232.451 945.054 234.643C942.289 233.656 943 234.998 928.467 232.743C943.001 234.994 941.915 235.943 944.857 235.824C942.566 237.424 942.507 239.28 933.463 249.232C942.507 239.28 944.64 238.924 945.923 236.594C946.417 239.201 949.123 241.768 954.592 253.971C949.122 241.771 948.846 238.391 947.167 236.179C949.932 237.186 948.411 235.962 962.945 238.193C948.413 235.965 950.329 234.899 947.367 234.998Z" fill="#DBDBDB"/>
<path d="M798.771 666.526C801.062 664.926 801.358 662.853 810.402 652.881C801.358 662.853 798.988 663.426 797.702 665.756C797.228 663.15 794.286 659.714 788.816 647.51C794.286 659.71 794.78 663.959 796.458 666.151C793.693 665.164 794.404 666.506 779.89 664.251C794.404 666.502 793.318 667.451 796.26 667.331C793.969 668.931 793.91 670.767 784.866 680.739C793.913 670.77 796.046 670.436 797.329 668.106C797.803 670.713 800.529 673.28 805.998 685.483C800.528 673.283 800.252 669.903 798.573 667.691C801.338 668.698 799.817 667.474 814.351 669.705C799.818 667.47 801.713 666.408 798.771 666.526Z" fill="#DBDBDB"/>
<path d="M915.337 555.647C917.628 554.047 917.924 551.974 926.968 542.022C917.924 551.974 915.554 552.547 914.268 554.877C913.794 552.29 910.852 548.835 905.382 536.631C910.852 548.831 911.346 553.08 913.024 555.292C910.259 554.285 910.97 555.628 896.456 553.377C910.97 555.628 909.884 556.577 912.826 556.458C910.535 558.058 910.476 559.914 901.432 569.866C910.476 559.913 912.609 559.558 913.892 557.228C914.386 559.835 917.092 562.402 922.561 574.605C917.091 562.405 916.815 559.025 915.136 556.833C917.92 557.82 916.38 556.596 930.914 558.827C916.384 556.595 918.299 555.529 915.337 555.647Z" fill="#DBDBDB"/>
<path d="M970.49 490.622C972.781 489.022 973.057 486.969 982.101 476.997C973.057 486.969 970.707 487.542 969.424 489.872C968.95 487.265 966.008 483.829 960.538 471.626C966.008 483.826 966.502 488.075 968.18 490.267C965.415 489.28 966.107 490.622 951.593 488.367C966.107 490.618 965.021 491.567 967.983 491.448C965.692 493.048 965.633 494.884 956.589 504.856C965.633 494.884 967.766 494.548 969.049 492.218C969.523 494.825 972.249 497.392 977.718 509.595C972.248 497.395 971.972 494.015 970.293 491.803C973.058 492.81 971.537 491.586 986.071 493.817C971.54 491.592 973.432 490.523 970.49 490.622Z" fill="#DBDBDB"/>
<path d="M894.761 513.923C897.052 512.323 897.328 510.25 906.392 500.298C897.328 510.251 894.978 510.843 893.692 513.153C893.218 510.566 890.276 507.13 884.806 494.927C890.276 507.127 890.77 511.376 892.448 513.568C889.683 512.581 890.375 513.923 875.861 511.668C890.375 513.919 889.289 514.868 892.251 514.749C889.96 516.349 889.901 518.185 880.857 528.157C889.901 518.185 892.034 517.829 893.317 515.519C893.791 518.106 896.517 520.693 901.986 532.896C896.516 520.696 896.24 517.316 894.561 515.104C897.326 516.111 895.805 514.867 910.339 517.118C895.808 514.871 897.703 513.804 894.761 513.923Z" fill="#DBDBDB"/>
<path d="M998.807 469.512C1001.1 467.912 1001.37 465.839 1010.44 455.867C1001.37 465.839 999.024 466.412 997.738 468.742C997.264 466.155 994.322 462.7 988.852 450.516C994.322 462.7 994.816 466.945 996.494 469.137C993.729 468.15 994.421 469.492 979.907 467.261C994.421 469.492 993.335 470.44 996.297 470.322C994.006 471.922 993.947 473.778 984.903 483.73C993.947 473.778 996.08 473.422 997.363 471.092C997.837 473.699 1000.56 476.285 1006.03 488.469C1000.56 476.285 1000.29 472.909 998.607 470.677C1001.37 471.684 999.851 470.46 1014.38 472.711C999.853 470.459 1001.75 469.393 998.807 469.512Z" fill="#DBDBDB"/>
<path d="M929.733 331.244C932.004 329.644 932.3 327.571 941.344 317.619C932.3 327.571 929.93 328.164 928.644 330.474C928.17 327.887 925.244 324.451 919.778 312.248C925.248 324.448 925.722 328.697 927.4 330.889C924.635 329.902 925.346 331.244 910.832 328.989C925.346 331.24 924.26 332.189 927.202 332.07C924.931 333.67 924.872 335.506 915.828 345.478C924.872 335.506 927.005 335.15 928.268 332.84C928.762 335.427 931.487 338.014 936.957 350.217C931.487 338.017 931.191 334.637 929.532 332.425C932.297 333.432 930.776 332.188 945.29 334.439C930.779 332.191 932.675 331.125 929.733 331.244Z" fill="#DBDBDB"/>
<path d="M879.208 390.605C879.208 400.225 877.173 407.933 873.103 413.73C869.156 419.403 863.36 423.597 855.713 426.31L885.498 477H852.013L826.853 430.75H805.948V477H776.163V345.28H829.258C838.138 345.28 845.723 346.02 852.013 347.5C858.303 348.98 863.421 351.323 867.368 354.53C871.438 357.737 874.398 361.93 876.248 367.11C878.221 372.167 879.208 378.333 879.208 385.61V390.605ZM849.238 387.46C849.238 384.007 848.868 381.17 848.128 378.95C847.388 376.607 846.216 374.818 844.613 373.585C843.01 372.228 840.851 371.303 838.138 370.81C835.548 370.317 832.28 370.07 828.333 370.07H805.948V406.7H828.333C832.28 406.7 835.548 406.453 838.138 405.96C840.851 405.467 843.01 404.542 844.613 403.185C846.216 401.828 847.388 400.04 848.128 397.82C848.868 395.477 849.238 392.517 849.238 388.94V387.46ZM954.915 454.8C960.712 454.8 965.398 454.368 968.975 453.505C972.675 452.642 975.573 450.977 977.67 448.51C979.767 445.92 981.185 442.405 981.925 437.965C982.788 433.402 983.22 427.482 983.22 420.205V401.89C983.22 394.737 982.788 388.878 981.925 384.315C981.185 379.752 979.767 376.237 977.67 373.77C975.573 371.303 972.675 369.638 968.975 368.775C965.398 367.788 960.712 367.295 954.915 367.295C949.118 367.295 944.37 367.727 940.67 368.59C936.97 369.453 934.072 371.18 931.975 373.77C929.878 376.237 928.398 379.752 927.535 384.315C926.795 388.755 926.425 394.613 926.425 401.89V420.205C926.425 427.358 926.795 433.217 927.535 437.78C928.398 442.22 929.878 445.735 931.975 448.325C934.072 450.792 936.97 452.518 940.67 453.505C944.37 454.368 949.118 454.8 954.915 454.8ZM954.915 480.33C943.322 480.33 933.64 479.158 925.87 476.815C918.223 474.472 912.057 470.895 907.37 466.085C902.807 461.152 899.538 454.923 897.565 447.4C895.715 439.877 894.79 430.935 894.79 420.575V401.335C894.79 391.345 895.715 382.65 897.565 375.25C899.415 367.727 902.622 361.498 907.185 356.565C911.872 351.632 918.038 347.932 925.685 345.465C933.455 342.998 943.198 341.765 954.915 341.765C966.508 341.765 976.128 342.937 983.775 345.28C991.422 347.623 997.527 351.262 1002.09 356.195C1006.78 361.005 1010.05 367.172 1011.9 374.695C1013.87 382.095 1014.86 390.975 1014.86 401.335V420.575C1014.86 430.688 1013.93 439.507 1012.08 447.03C1010.23 454.43 1007.02 460.597 1002.46 465.53C997.897 470.463 991.73 474.163 983.96 476.63C976.313 479.097 966.632 480.33 954.915 480.33ZM1063.95 345.28V477H1033.43V345.28H1063.95Z" fill="#EB1C24"/>
<path d="M798.56 316V296.53L781.4 269.008H791.168L803.114 289.204L814.862 269.008H824.366L807.338 296.464V316H798.56ZM846.011 309.73C848.387 309.73 850.323 309.554 851.819 309.202C853.315 308.85 854.481 308.168 855.317 307.156C856.197 306.144 856.791 304.714 857.099 302.866C857.451 300.974 857.627 298.51 857.627 295.474V289.468C857.627 286.476 857.451 284.056 857.099 282.208C856.791 280.316 856.197 278.864 855.317 277.852C854.481 276.796 853.315 276.092 851.819 275.74C850.323 275.388 848.387 275.212 846.011 275.212C843.635 275.212 841.699 275.388 840.203 275.74C838.707 276.092 837.519 276.774 836.639 277.786C835.803 278.798 835.231 280.25 834.923 282.142C834.615 283.99 834.461 286.432 834.461 289.468V295.474C834.461 298.466 834.615 300.908 834.923 302.8C835.231 304.648 835.803 306.1 836.639 307.156C837.519 308.168 838.707 308.85 840.203 309.202C841.699 309.554 843.635 309.73 846.011 309.73ZM846.011 317.188C841.875 317.188 838.465 316.748 835.781 315.868C833.141 314.988 831.029 313.668 829.445 311.908C827.905 310.104 826.827 307.86 826.211 305.176C825.639 302.448 825.353 299.28 825.353 295.672V289.27C825.353 285.794 825.639 282.714 826.211 280.03C826.783 277.346 827.839 275.102 829.379 273.298C830.919 271.494 833.009 270.13 835.649 269.206C838.333 268.238 841.787 267.754 846.011 267.754C850.147 267.754 853.557 268.194 856.241 269.074C858.925 269.954 861.037 271.296 862.577 273.1C864.161 274.86 865.239 277.104 865.811 279.832C866.427 282.516 866.735 285.662 866.735 289.27V295.672C866.735 299.148 866.449 302.228 865.877 304.912C865.305 307.596 864.249 309.84 862.709 311.644C861.169 313.448 859.057 314.834 856.373 315.802C853.689 316.726 850.235 317.188 846.011 317.188ZM892.587 317.188C888.803 317.188 885.701 316.77 883.281 315.934C880.861 315.098 878.947 313.844 877.539 312.172C876.131 310.456 875.141 308.366 874.569 305.902C874.041 303.394 873.777 300.49 873.777 297.19V269.008H882.555V297.19C882.555 299.654 882.687 301.678 882.951 303.262C883.259 304.846 883.765 306.122 884.469 307.09C885.217 308.014 886.229 308.674 887.505 309.07C888.825 309.422 890.519 309.598 892.587 309.598C894.611 309.598 896.283 309.422 897.603 309.07C898.923 308.674 899.957 308.014 900.705 307.09C901.453 306.122 901.959 304.846 902.223 303.262C902.531 301.678 902.685 299.654 902.685 297.19V269.008H911.463V297.19C911.463 300.49 911.177 303.394 910.605 305.902C910.077 308.366 909.109 310.456 907.701 312.172C906.293 313.844 904.357 315.098 901.893 315.934C899.473 316.77 896.371 317.188 892.587 317.188ZM937.626 298.642H928.518V316H919.74V269.008H938.022C943.918 269.008 948.208 270.086 950.892 272.242C953.62 274.354 954.984 277.874 954.984 282.802V284.782C954.984 288.258 954.236 291.03 952.74 293.098C951.244 295.122 949.022 296.574 946.074 297.454L957.096 316H947.328L937.626 298.642ZM946.206 283.594C946.206 282.098 946.052 280.888 945.744 279.964C945.48 279.04 945.018 278.314 944.358 277.786C943.742 277.258 942.884 276.906 941.784 276.73C940.728 276.554 939.408 276.466 937.824 276.466H928.518V291.25H937.824C939.408 291.25 940.728 291.162 941.784 290.986C942.884 290.766 943.742 290.392 944.358 289.864C945.018 289.336 945.48 288.61 945.744 287.686C946.052 286.762 946.206 285.552 946.206 284.056V283.594Z" fill="white"/>
<path d="M1123.79 359.899L1121.28 365.543C1122.9 366.266 1124.69 367.088 1126.66 368.01C1128.66 368.949 1130.59 369.881 1132.46 370.807L1127.67 377.717C1124.8 376.293 1121.53 374.77 1117.89 373.147L1113.95 381.999L1115.09 382.793C1118.81 385.304 1121.23 387.875 1122.34 390.504C1123.46 393.093 1123.31 395.992 1121.88 399.2L1121.67 399.675C1120.93 401.338 1120.02 402.786 1118.95 404.018C1117.94 405.228 1116.7 406.147 1115.23 406.775C1113.77 407.404 1112.03 407.676 1110.03 407.591C1108.06 407.523 1105.8 407.013 1103.23 406.06L1100.62 411.942L1095.57 409.693L1098.16 403.871C1094.83 402.39 1092.17 401.179 1090.16 400.24C1088.18 399.358 1086.69 398.668 1085.68 398.17L1090.46 391.26C1091.04 391.564 1091.71 391.913 1092.49 392.305C1093.32 392.675 1094.22 393.101 1095.19 393.581C1096.18 394.022 1097.21 394.481 1098.28 394.957C1099.35 395.433 1100.42 395.909 1101.49 396.385L1105.7 386.939L1103.93 385.796C1102.19 384.689 1100.73 383.542 1099.55 382.352C1098.41 381.18 1097.59 379.936 1097.09 378.62C1096.58 377.303 1096.38 375.885 1096.49 374.367C1096.65 372.826 1097.15 371.125 1097.98 369.264L1098.16 368.848C1098.84 367.44 1099.64 366.181 1100.56 365.072C1101.52 363.981 1102.69 363.152 1104.08 362.586C1105.53 361.997 1107.23 361.756 1109.18 361.863C1111.14 361.93 1113.47 362.447 1116.17 363.413L1118.74 357.65L1123.79 359.899ZM1110.4 389.96L1106.59 398.515C1108.37 399.115 1109.67 399.222 1110.51 398.835C1111.35 398.448 1112.06 397.582 1112.66 396.235C1113.3 394.809 1113.49 393.684 1113.24 392.861C1113.01 391.998 1112.17 391.104 1110.73 390.178L1110.4 389.96ZM1107.12 373.192C1106.8 373.905 1106.59 374.497 1106.47 374.968C1106.36 375.439 1106.36 375.866 1106.47 376.249C1106.63 376.65 1106.88 377.026 1107.25 377.379C1107.65 377.749 1108.23 378.17 1108.97 378.641L1109.3 378.859L1112.81 370.958C1111.95 370.667 1111.21 370.506 1110.61 370.474C1110.02 370.404 1109.51 370.485 1109.08 370.718C1108.66 370.911 1108.28 371.219 1107.95 371.641C1107.68 372.042 1107.4 372.559 1107.12 373.192Z" fill="#EB1C24"/>
<path d="M958.706 384.658L958.598 390.832C960.375 390.863 962.346 390.919 964.511 391.001C966.72 391.083 968.864 391.185 970.942 391.308L969.238 399.534C966.034 399.348 962.439 399.221 958.453 399.151L958.284 408.835L959.644 409.118C964.05 409.975 967.276 411.397 969.321 413.383C971.368 415.326 972.36 418.052 972.299 421.561L972.29 422.081C972.258 423.901 971.99 425.586 971.487 427.138C971.027 428.647 970.245 429.977 969.142 431.128C968.038 432.278 966.548 433.206 964.672 433.91C962.84 434.615 960.557 435.03 957.825 435.156L957.712 441.59L952.188 441.493L952.299 435.124C948.66 435.061 945.736 434.988 943.527 434.906C941.36 434.868 939.714 434.818 938.589 434.755L940.292 426.528C940.942 426.583 941.699 426.64 942.565 426.698C943.475 426.714 944.471 426.753 945.553 426.815C946.636 426.834 947.763 426.854 948.933 426.874C950.103 426.895 951.272 426.915 952.442 426.935L952.623 416.602L950.549 416.241C948.518 415.902 946.727 415.416 945.178 414.782C943.672 414.149 942.43 413.325 941.451 412.311C940.472 411.297 939.735 410.071 939.24 408.632C938.789 407.151 938.581 405.392 938.617 403.356L938.625 402.901C938.695 401.342 938.937 399.872 939.352 398.493C939.809 397.114 940.567 395.892 941.626 394.827C942.729 393.719 944.196 392.835 946.028 392.173C947.861 391.468 950.208 391.033 953.072 390.866L953.182 384.562L958.706 384.658ZM958.132 417.543L957.969 426.902C959.835 426.761 961.077 426.349 961.696 425.667C962.314 424.984 962.637 423.906 962.662 422.433C962.69 420.873 962.427 419.764 961.875 419.104C961.324 418.401 960.206 417.905 958.521 417.615L958.132 417.543ZM948.562 403.399C948.549 404.179 948.581 404.808 948.659 405.286C948.738 405.764 948.904 406.157 949.159 406.465C949.457 406.774 949.843 407.019 950.316 407.2C950.833 407.383 951.524 407.546 952.388 407.692L952.777 407.763L952.928 399.12C952.016 399.19 951.277 399.329 950.71 399.536C950.144 399.7 949.706 399.974 949.396 400.358C949.086 400.7 948.862 401.129 948.723 401.647C948.628 402.122 948.575 402.706 948.562 403.399Z" fill="#EB1C24"/>
<path d="M908.028 484.619L908.236 486.316C908.725 486.256 909.267 486.196 909.864 486.134C910.473 486.072 911.065 486.017 911.64 485.971L911.49 488.292C910.604 488.365 909.613 488.468 908.517 488.603L908.844 491.265L909.228 491.29C910.469 491.356 911.409 491.621 912.046 492.087C912.682 492.541 913.059 493.25 913.178 494.215L913.195 494.358C913.257 494.858 913.248 495.33 913.17 495.775C913.102 496.207 912.939 496.602 912.681 496.96C912.422 497.318 912.05 497.63 911.562 497.895C911.087 498.159 910.477 498.361 909.733 498.501L909.95 500.269L908.431 500.456L908.216 498.705C907.216 498.828 906.411 498.921 905.802 498.983C905.207 499.056 904.753 499.106 904.442 499.132L904.592 496.81C904.772 496.8 904.982 496.787 905.222 496.769C905.472 496.739 905.747 496.711 906.046 496.686C906.344 496.65 906.653 496.612 906.975 496.572C907.297 496.533 907.618 496.493 907.94 496.454L907.591 493.613L907.008 493.594C906.438 493.579 905.929 493.515 905.479 493.401C905.042 493.285 904.67 493.107 904.362 492.867C904.054 492.627 903.805 492.319 903.614 491.943C903.433 491.555 903.308 491.08 903.24 490.52L903.224 490.395C903.183 489.965 903.193 489.553 903.254 489.159C903.326 488.763 903.487 488.398 903.736 488.066C903.996 487.719 904.364 487.42 904.841 487.168C905.316 486.904 905.943 486.694 906.722 486.538L906.509 484.805L908.028 484.619ZM909.138 493.659L909.454 496.232C909.96 496.121 910.285 495.96 910.428 495.749C910.572 495.538 910.619 495.23 910.569 494.825C910.516 494.396 910.401 494.102 910.225 493.943C910.046 493.771 909.721 493.678 909.247 493.664L909.138 493.659ZM905.969 490.149C905.995 490.363 906.028 490.535 906.068 490.663C906.108 490.791 906.169 490.892 906.25 490.967C906.344 491.04 906.459 491.092 906.596 491.124C906.745 491.154 906.941 491.172 907.183 491.179L907.293 491.183L907.001 488.807C906.754 488.862 906.556 488.928 906.409 489.007C906.26 489.074 906.15 489.166 906.08 489.283C906.008 489.389 905.963 489.515 905.945 489.662C905.937 489.796 905.945 489.958 905.969 490.149Z" fill="#EB1C24"/>
<path d="M1083.9 456.228L1084.15 458.208C1084.71 458.138 1085.35 458.067 1086.04 457.996C1086.75 457.923 1087.45 457.859 1088.12 457.805L1087.94 460.514C1086.91 460.598 1085.75 460.719 1084.47 460.876L1084.85 463.982L1085.3 464.011C1086.75 464.087 1087.85 464.397 1088.59 464.94C1089.33 465.47 1089.77 466.297 1089.91 467.423L1089.93 467.59C1090 468.173 1089.99 468.725 1089.9 469.244C1089.82 469.747 1089.63 470.208 1089.33 470.626C1089.03 471.043 1088.59 471.407 1088.03 471.717C1087.47 472.025 1086.76 472.26 1085.89 472.423L1086.14 474.487L1084.37 474.704L1084.12 472.661C1082.95 472.805 1082.02 472.913 1081.31 472.986C1080.61 473.071 1080.08 473.129 1079.72 473.16L1079.89 470.451C1080.1 470.44 1080.35 470.424 1080.63 470.403C1080.92 470.368 1081.24 470.335 1081.59 470.307C1081.94 470.264 1082.3 470.219 1082.67 470.173C1083.05 470.127 1083.42 470.081 1083.8 470.035L1083.39 466.721L1082.71 466.699C1082.05 466.682 1081.45 466.607 1080.93 466.473C1080.42 466.339 1079.98 466.131 1079.62 465.851C1079.27 465.57 1078.98 465.211 1078.75 464.773C1078.54 464.319 1078.4 463.766 1078.32 463.113L1078.3 462.967C1078.25 462.465 1078.26 461.984 1078.33 461.524C1078.42 461.062 1078.6 460.637 1078.89 460.249C1079.2 459.845 1079.63 459.496 1080.18 459.202C1080.74 458.894 1081.47 458.649 1082.38 458.467L1082.13 456.445L1083.9 456.228ZM1085.2 466.775L1085.57 469.776C1086.16 469.647 1086.54 469.459 1086.7 469.213C1086.87 468.967 1086.92 468.608 1086.87 468.135C1086.8 467.635 1086.67 467.292 1086.46 467.106C1086.26 466.905 1085.88 466.797 1085.32 466.78L1085.2 466.775ZM1081.5 462.68C1081.53 462.93 1081.57 463.13 1081.62 463.279C1081.66 463.428 1081.73 463.547 1081.83 463.634C1081.94 463.719 1082.07 463.78 1082.23 463.817C1082.41 463.852 1082.63 463.873 1082.92 463.881L1083.04 463.886L1082.7 461.114C1082.42 461.178 1082.18 461.255 1082.01 461.347C1081.84 461.425 1081.71 461.532 1081.63 461.669C1081.55 461.792 1081.49 461.94 1081.47 462.112C1081.46 462.268 1081.47 462.457 1081.5 462.68Z" fill="#EB1C24"/>
<path d="M735.043 372.246L736.18 375.37C737.079 375.043 738.081 374.691 739.185 374.314C740.311 373.929 741.409 373.567 742.477 373.228L743.208 377.692C741.562 378.217 739.73 378.846 737.713 379.58L739.496 384.481L740.235 384.361C742.615 383.942 744.511 384.034 745.922 384.637C747.326 385.219 748.351 386.398 748.997 388.174L749.093 388.437C749.428 389.358 749.619 390.257 749.665 391.134C749.725 391.981 749.589 392.801 749.256 393.592C748.923 394.384 748.353 395.137 747.546 395.853C746.761 396.561 745.694 397.21 744.344 397.801L745.529 401.057L742.734 402.075L741.561 398.851C739.719 399.522 738.235 400.049 737.109 400.435C736.012 400.834 735.175 401.126 734.597 401.311L733.866 396.847C734.203 396.749 734.595 396.632 735.041 396.494C735.502 396.326 736.01 396.154 736.566 395.976C737.114 395.777 737.684 395.569 738.276 395.354C738.868 395.138 739.46 394.923 740.052 394.707L738.149 389.478L737.037 389.697C735.95 389.918 734.957 390.019 734.056 389.999C733.176 389.972 732.393 389.798 731.705 389.477C731.017 389.156 730.41 388.682 729.884 388.054C729.371 387.396 728.927 386.552 728.552 385.522L728.468 385.291C728.203 384.494 728.041 383.709 727.983 382.935C727.947 382.154 728.092 381.393 728.419 380.654C728.76 379.884 729.327 379.156 730.12 378.47C730.905 377.762 732.001 377.09 733.409 376.454L732.248 373.264L735.043 372.246ZM741.1 388.888L742.824 393.624C743.735 393.193 744.28 392.746 744.459 392.284C744.639 391.821 744.593 391.217 744.321 390.472C744.034 389.683 743.688 389.175 743.283 388.95C742.87 388.703 742.213 388.669 741.31 388.849L741.1 388.888ZM733.56 383.624C733.704 384.019 733.842 384.329 733.973 384.554C734.105 384.779 734.264 384.945 734.452 385.05C734.661 385.148 734.902 385.197 735.175 385.197C735.471 385.189 735.849 385.138 736.312 385.044L736.521 385.005L734.929 380.631C734.484 380.842 734.14 381.055 733.895 381.268C733.641 381.459 733.474 381.682 733.392 381.935C733.303 382.166 733.273 382.425 733.303 382.712C733.347 382.97 733.433 383.274 733.56 383.624Z" fill="#EB1C24"/>
<path d="M902.174 339.774L900.837 342.398C901.592 342.783 902.425 343.219 903.337 343.706C904.266 344.203 905.164 344.695 906.029 345.183L903.579 348.353C902.244 347.603 900.73 346.797 899.036 345.934L896.939 350.049L897.462 350.455C899.172 351.744 900.257 353.027 900.719 354.306C901.19 355.567 901.045 356.943 900.285 358.434L900.173 358.655C899.779 359.429 899.312 360.095 898.771 360.655C898.259 361.206 897.646 361.612 896.932 361.875C896.218 362.138 895.386 362.224 894.434 362.133C893.502 362.052 892.436 361.753 891.239 361.236L889.845 363.97L887.498 362.774L888.877 360.067C887.33 359.279 886.092 358.636 885.162 358.139C884.241 357.67 883.546 357.304 883.077 357.042L885.527 353.872C885.794 354.031 886.107 354.214 886.466 354.42C886.853 354.617 887.271 354.842 887.722 355.095C888.183 355.329 888.661 355.573 889.159 355.827C889.656 356.08 890.153 356.333 890.65 356.587L892.888 352.195L892.074 351.606C891.275 351.037 890.609 350.454 890.077 349.858C889.564 349.272 889.204 348.659 888.996 348.02C888.788 347.381 888.729 346.701 888.818 345.981C888.934 345.251 889.213 344.454 889.654 343.588L889.752 343.395C890.108 342.742 890.52 342.162 890.986 341.658C891.47 341.162 892.05 340.797 892.727 340.562C893.431 340.318 894.245 340.245 895.169 340.345C896.101 340.426 897.199 340.73 898.461 341.257L899.826 338.578L902.174 339.774ZM895.053 353.75L893.026 357.728C893.855 358.057 894.474 358.141 894.882 357.977C895.29 357.814 895.653 357.42 895.972 356.793C896.31 356.131 896.43 355.6 896.331 355.202C896.242 354.785 895.866 354.339 895.204 353.862L895.053 353.75ZM893.908 345.687C893.739 346.018 893.621 346.294 893.555 346.516C893.489 346.737 893.478 346.94 893.523 347.126C893.586 347.32 893.7 347.506 893.865 347.683C894.048 347.869 894.31 348.083 894.65 348.326L894.802 348.438L896.674 344.765C896.268 344.605 895.923 344.51 895.636 344.48C895.359 344.431 895.114 344.457 894.901 344.557C894.697 344.639 894.511 344.776 894.343 344.969C894.203 345.153 894.058 345.392 893.908 345.687Z" fill="#EB1C24"/>
<path d="M762.532 459.428L762.712 461.13C763.201 461.078 763.745 461.027 764.344 460.976C764.954 460.923 765.547 460.879 766.122 460.842L765.932 463.162C765.045 463.22 764.052 463.306 762.954 463.422L763.235 466.091L763.619 466.123C764.86 466.209 765.795 466.491 766.425 466.968C767.053 467.432 767.418 468.148 767.521 469.116L767.536 469.259C767.589 469.76 767.572 470.233 767.486 470.677C767.411 471.107 767.241 471.499 766.976 471.853C766.712 472.207 766.334 472.513 765.842 472.77C765.362 473.026 764.748 473.217 764.001 473.344L764.188 475.117L762.666 475.278L762.48 473.523C761.477 473.629 760.671 473.708 760.061 473.76C759.464 473.823 759.009 473.865 758.698 473.886L758.887 471.566C759.068 471.559 759.278 471.549 759.518 471.536C759.769 471.509 760.044 471.486 760.344 471.467C760.642 471.435 760.953 471.402 761.275 471.368C761.597 471.334 761.92 471.3 762.242 471.266L761.942 468.419L761.359 468.389C760.789 468.365 760.28 468.292 759.833 468.17C759.397 468.047 759.028 467.863 758.724 467.617C758.421 467.372 758.176 467.059 757.992 466.68C757.817 466.288 757.701 465.812 757.641 465.25L757.628 465.125C757.595 464.694 757.612 464.282 757.679 463.888C757.758 463.494 757.925 463.132 758.18 462.803C758.446 462.461 758.819 462.168 759.301 461.924C759.781 461.668 760.412 461.469 761.193 461.326L761.01 459.589L762.532 459.428ZM763.489 468.491L763.761 471.07C764.269 470.968 764.597 470.813 764.744 470.604C764.891 470.395 764.943 470.088 764.9 469.682C764.855 469.252 764.745 468.956 764.571 468.793C764.396 468.618 764.071 468.52 763.598 468.497L763.489 468.491ZM760.378 464.925C760.401 465.14 760.431 465.312 760.469 465.441C760.506 465.57 760.565 465.672 760.646 465.748C760.738 465.823 760.853 465.877 760.989 465.911C761.137 465.944 761.333 465.966 761.575 465.976L761.685 465.983L761.433 463.601C761.185 463.651 760.987 463.714 760.838 463.79C760.687 463.855 760.576 463.945 760.504 464.061C760.43 464.165 760.383 464.291 760.363 464.438C760.353 464.572 760.358 464.734 760.378 464.925Z" fill="#EB1C24"/>
<path d="M1102.75 279.545L1124.17 258.124C1124.4 257.899 1124.53 257.593 1124.53 257.275C1124.53 256.957 1124.4 256.652 1124.17 256.427L1120.2 252.454C1119.98 252.229 1119.67 252.103 1119.35 252.103C1119.03 252.103 1118.73 252.229 1118.5 252.454L1097.08 273.875L1093.81 270.602C1093.47 270.266 1093.04 270.037 1092.58 269.944C1092.11 269.852 1091.63 269.9 1091.19 270.082C1090.75 270.265 1090.37 270.573 1090.11 270.969C1089.84 271.365 1089.7 271.831 1089.7 272.307L1089.7 284.514C1089.7 285.152 1089.95 285.764 1090.4 286.216C1090.85 286.668 1091.47 286.921 1092.11 286.921L1104.32 286.923C1104.79 286.923 1105.26 286.782 1105.66 286.517C1106.05 286.253 1106.36 285.877 1106.54 285.438C1106.73 284.998 1106.77 284.514 1106.68 284.047C1106.59 283.58 1106.36 283.151 1106.02 282.814L1102.75 279.545Z" fill="white"/>
</svg>
