<svg width="1332" height="506" viewBox="0 0 1332 506" fill="none" xmlns="http://www.w3.org/2000/svg">
<g clip-path="url(#clip0)">
<path d="M184.124 296.998C180.779 296.997 177.527 295.895 174.868 293.862C172.208 291.829 170.289 288.977 169.404 285.745C168.519 282.513 168.718 279.078 169.97 275.97C171.222 272.862 173.458 270.252 176.334 268.541V228.402C176.318 227.366 176.507 226.337 176.892 225.375C177.276 224.413 177.848 223.537 178.573 222.799C179.298 222.06 180.163 221.473 181.117 221.073C182.071 220.673 183.095 220.467 184.129 220.467C185.163 220.467 186.187 220.673 187.141 221.073C188.095 221.473 188.96 222.06 189.685 222.799C190.411 223.537 190.982 224.413 191.367 225.375C191.751 226.337 191.94 227.366 191.924 228.402V268.541C194.8 270.253 197.034 272.864 198.285 275.973C199.536 279.082 199.734 282.516 198.848 285.748C197.962 288.98 196.041 291.832 193.381 293.864C190.721 295.896 187.469 296.998 184.124 296.998ZM184.124 223.722C182.887 223.725 181.702 224.219 180.828 225.096C179.954 225.974 179.463 227.163 179.463 228.402V270.426L178.611 270.861C176.186 272.102 174.249 274.125 173.111 276.604C171.974 279.082 171.701 281.873 172.339 284.525C172.976 287.178 174.485 289.538 176.624 291.226C178.762 292.915 181.406 293.833 184.128 293.833C186.851 293.833 189.494 292.915 191.633 291.226C193.771 289.538 195.281 287.178 195.918 284.525C196.555 281.873 196.282 279.082 195.145 276.604C194.007 274.125 192.07 272.102 189.646 270.861L188.795 270.424V228.402C188.792 227.162 188.299 225.974 187.424 225.098C186.548 224.222 185.362 223.729 184.124 223.728V223.722Z" fill="#E1E1E1"/>
<path d="M184.126 290.236C182.431 290.237 180.774 289.733 179.364 288.79C177.954 287.847 176.856 286.505 176.207 284.936C175.558 283.367 175.388 281.64 175.718 279.974C176.049 278.308 176.865 276.777 178.063 275.576C179.262 274.375 180.789 273.557 182.451 273.225C184.114 272.894 185.837 273.064 187.403 273.714C188.97 274.364 190.308 275.464 191.25 276.877C192.192 278.289 192.695 279.95 192.695 281.648C192.692 283.925 191.789 286.107 190.182 287.717C188.576 289.327 186.398 290.233 184.126 290.236ZM184.126 276.198C183.05 276.197 181.998 276.517 181.102 277.116C180.207 277.715 179.51 278.566 179.098 279.563C178.685 280.559 178.578 281.656 178.787 282.713C178.997 283.771 179.516 284.743 180.277 285.506C181.038 286.268 182.007 286.788 183.063 286.998C184.119 287.208 185.213 287.1 186.207 286.687C187.202 286.274 188.051 285.575 188.649 284.678C189.247 283.781 189.566 282.727 189.565 281.648C189.563 280.203 188.99 278.818 187.97 277.796C186.95 276.775 185.568 276.2 184.126 276.198Z" fill="#E1E1E1"/>
<path d="M185.689 257.806H182.56V274.632H185.689V257.806Z" fill="#E1E1E1"/>
<path d="M202.998 231.969H196.268V235.105H202.998V231.969Z" fill="#E1E1E1"/>
<path d="M202.998 240.124H196.268V243.26H202.998V240.124Z" fill="#E1E1E1"/>
<path d="M202.998 248.279H196.268V251.415H202.998V248.279Z" fill="#E1E1E1"/>
<path d="M138.402 208H135.273V233.537H138.402V208Z" fill="#E1E1E1"/>
<path d="M143.008 209.5L135.734 216.789L137.946 219.007L145.221 211.717L143.008 209.5Z" fill="#E1E1E1"/>
<path d="M130.668 209.527L128.455 211.745L135.73 219.034L137.942 216.817L130.668 209.527Z" fill="#E1E1E1"/>
<path d="M115.549 219.411L113.984 222.127L136.056 234.897L137.621 232.181L115.549 219.411Z" fill="#E1E1E1"/>
<path d="M122.193 215.366L119.17 216.177L121.833 226.135L124.855 225.324L122.193 215.366Z" fill="#E1E1E1"/>
<path d="M122.927 224.23L112.99 226.898L113.8 229.927L123.737 227.259L122.927 224.23Z" fill="#E1E1E1"/>
<path d="M136.05 232.196L113.978 244.965L115.543 247.681L137.615 234.911L136.05 232.196Z" fill="#E1E1E1"/>
<path d="M113.808 237.158L112.998 240.187L122.935 242.855L123.745 239.826L113.808 237.158Z" fill="#E1E1E1"/>
<path d="M121.839 240.957L119.176 250.915L122.199 251.726L124.861 241.768L121.839 240.957Z" fill="#E1E1E1"/>
<path d="M138.402 233.537H135.273V259.074H138.402V233.537Z" fill="#E1E1E1"/>
<path d="M135.735 248.014L128.461 255.303L130.673 257.521L137.948 250.231L135.735 248.014Z" fill="#E1E1E1"/>
<path d="M137.944 248.04L135.731 250.258L143.006 257.547L145.219 255.33L137.944 248.04Z" fill="#E1E1E1"/>
<path d="M137.62 232.178L136.055 234.893L158.125 247.662L159.69 244.946L137.62 232.178Z" fill="#E1E1E1"/>
<path d="M151.842 240.938L148.82 241.75L151.482 251.707L154.505 250.896L151.842 240.938Z" fill="#E1E1E1"/>
<path d="M159.877 237.144L149.94 239.812L150.75 242.841L160.687 240.173L159.877 237.144Z" fill="#E1E1E1"/>
<path d="M158.121 219.429L136.051 232.198L137.616 234.913L159.686 222.145L158.121 219.429Z" fill="#E1E1E1"/>
<path d="M150.742 224.223L149.932 227.252L159.869 229.92L160.679 226.891L150.742 224.223Z" fill="#E1E1E1"/>
<path d="M153.848 214.332L151.174 224.331L154.209 225.147L156.884 215.147L153.848 214.332Z" fill="#E1E1E1"/>
</g>
<path d="M1103.52 338C1100.25 338 1097.06 336.929 1094.46 334.952C1091.85 332.975 1089.98 330.202 1089.11 327.058C1088.24 323.915 1088.44 320.575 1089.66 317.553C1090.89 314.53 1093.08 311.992 1095.9 310.329V271.302C1095.9 269.288 1096.7 267.357 1098.13 265.933C1099.56 264.509 1101.5 263.708 1103.53 263.708C1105.55 263.708 1107.49 264.509 1108.92 265.933C1110.35 267.357 1111.16 269.288 1111.16 271.302V310.331C1113.97 311.996 1116.16 314.535 1117.38 317.557C1118.61 320.579 1118.8 323.918 1117.93 327.061C1117.07 330.203 1115.19 332.976 1112.58 334.952C1109.98 336.928 1106.8 337.999 1103.52 338ZM1103.52 266.754C1102.31 266.756 1101.15 267.236 1100.3 268.089C1099.44 268.942 1098.96 270.097 1098.96 271.302V312.162L1098.12 312.587C1095.75 313.794 1093.86 315.761 1092.74 318.171C1091.63 320.581 1091.36 323.293 1091.98 325.873C1092.61 328.452 1094.09 330.747 1096.18 332.388C1098.27 334.03 1100.86 334.923 1103.53 334.923C1106.19 334.923 1108.78 334.03 1110.87 332.388C1112.97 330.747 1114.44 328.452 1115.07 325.873C1115.69 323.293 1115.42 320.581 1114.31 318.171C1113.2 315.761 1111.3 313.794 1108.93 312.587L1108.09 312.162V271.302C1108.09 270.096 1107.61 268.94 1106.75 268.087C1105.9 267.234 1104.73 266.755 1103.52 266.754Z" fill="#E1E1E1"/>
<path d="M1103.52 331.424C1101.87 331.424 1100.24 330.934 1098.86 330.017C1097.48 329.1 1096.41 327.796 1095.77 326.27C1095.14 324.745 1094.97 323.066 1095.3 321.447C1095.62 319.827 1096.42 318.34 1097.59 317.172C1098.77 316.005 1100.26 315.21 1101.89 314.887C1103.51 314.565 1105.2 314.731 1106.73 315.363C1108.27 315.994 1109.58 317.064 1110.5 318.437C1111.42 319.81 1111.91 321.424 1111.91 323.075C1111.91 325.289 1111.02 327.411 1109.45 328.976C1107.88 330.541 1105.75 331.421 1103.52 331.424ZM1103.52 317.776C1102.47 317.776 1101.44 318.087 1100.57 318.669C1099.69 319.251 1099.01 320.079 1098.6 321.047C1098.2 322.016 1098.1 323.081 1098.3 324.109C1098.51 325.137 1099.01 326.082 1099.76 326.823C1100.5 327.564 1101.45 328.069 1102.49 328.273C1103.52 328.478 1104.59 328.373 1105.56 327.972C1106.53 327.57 1107.37 326.891 1107.95 326.02C1108.54 325.148 1108.85 324.124 1108.85 323.075C1108.85 321.672 1108.28 320.326 1107.28 319.334C1106.29 318.342 1104.93 317.784 1103.52 317.782V317.776Z" fill="#E1E1E1"/>
<path d="M1105.05 278.041H1101.99V316.25H1105.05V278.041Z" fill="#E1E1E1"/>
<path d="M1122 274.772H1115.41V277.821H1122V274.772Z" fill="#E1E1E1"/>
<path d="M1122 282.7H1115.41V285.749H1122V282.7Z" fill="#E1E1E1"/>
<path d="M1122 290.629H1115.41V293.678H1122V290.629Z" fill="#E1E1E1"/>
<path d="M1037.03 305.107L1035.08 302.76C1035.11 302.733 1038.65 299.73 1039.02 295.423C1039.24 292.797 1038.23 290.16 1036.02 287.586C1031.3 282.073 1031.58 277.215 1032.65 274.111C1033.37 272.044 1034.59 270.181 1036.18 268.676L1038.2 270.963C1037.91 271.216 1031.23 277.288 1038.35 285.602C1041.12 288.828 1042.38 292.229 1042.07 295.701C1041.58 301.3 1037.22 304.955 1037.03 305.107Z" fill="#E1E1E1"/>
<path d="M1080.19 305.107L1078.24 302.76C1078.27 302.733 1081.82 299.73 1082.18 295.423C1082.4 292.797 1081.4 290.16 1079.19 287.586C1074.47 282.073 1074.75 277.215 1075.82 274.111C1076.54 272.044 1077.75 270.181 1079.35 268.676L1081.36 270.973L1080.36 269.829L1081.37 270.973C1081.08 271.226 1074.4 277.297 1081.52 285.611C1084.29 288.837 1085.54 292.239 1085.23 295.711C1084.74 301.3 1080.38 304.955 1080.19 305.107Z" fill="#E1E1E1"/>
<path d="M1058.61 287.433L1056.66 285.083C1056.69 285.057 1060.23 282.054 1060.6 277.749C1060.82 275.121 1059.81 272.484 1057.61 269.909C1052.88 264.396 1053.17 259.539 1054.23 256.435C1054.96 254.369 1056.17 252.505 1057.76 251L1059.78 253.287C1059.5 253.542 1052.82 259.613 1059.94 267.926C1062.7 271.154 1063.96 274.553 1063.65 278.025C1063.16 283.626 1058.8 287.279 1058.61 287.433Z" fill="#E1E1E1"/>
<g clip-path="url(#clip1)">
<path d="M1264.25 506H1263.97C1262.67 505.999 1261.42 505.477 1260.5 504.55C1259.58 503.623 1259.06 502.366 1259.06 501.055V456.947C1259.06 455.635 1259.58 454.378 1260.5 453.451C1261.42 452.524 1262.67 452.002 1263.97 452H1264.25C1265.55 452.001 1266.8 452.523 1267.72 453.45C1268.65 454.378 1269.16 455.635 1269.16 456.947V501.062C1269.16 502.372 1268.64 503.628 1267.72 504.553C1266.8 505.479 1265.55 505.999 1264.25 506ZM1263.97 454.81C1263.41 454.81 1262.87 455.035 1262.47 455.436C1262.07 455.837 1261.85 456.38 1261.85 456.947V501.062C1261.85 501.629 1262.07 502.171 1262.47 502.572C1262.87 502.972 1263.41 503.197 1263.97 503.197H1264.25C1264.81 503.197 1265.35 502.973 1265.75 502.572C1266.15 502.172 1266.37 501.629 1266.37 501.062V456.947C1266.37 456.38 1266.15 455.837 1265.75 455.437C1265.35 455.036 1264.82 454.811 1264.25 454.81H1263.97Z" fill="#E1E1E1"/>
<path d="M1275.85 506H1275.57C1274.27 505.999 1273.02 505.477 1272.1 504.55C1271.18 503.623 1270.66 502.366 1270.66 501.055V456.947C1270.66 455.635 1271.18 454.378 1272.1 453.451C1273.02 452.524 1274.27 452.002 1275.57 452H1275.85C1277.15 452.002 1278.4 452.524 1279.32 453.451C1280.24 454.378 1280.76 455.635 1280.76 456.947V501.062C1280.76 502.372 1280.24 503.627 1279.32 504.553C1278.4 505.478 1277.15 505.999 1275.85 506ZM1275.57 454.81C1275.01 454.81 1274.47 455.035 1274.07 455.436C1273.67 455.837 1273.45 456.38 1273.45 456.947V501.062C1273.45 501.629 1273.67 502.171 1274.07 502.572C1274.47 502.972 1275.01 503.197 1275.57 503.197H1275.85C1276.41 503.197 1276.95 502.972 1277.35 502.572C1277.75 502.171 1277.97 501.628 1277.97 501.062V456.947C1277.97 456.38 1277.75 455.837 1277.35 455.437C1276.95 455.036 1276.41 454.811 1275.85 454.81H1275.57Z" fill="#E1E1E1"/>
<path d="M1287.45 506H1287.17C1285.87 505.999 1284.62 505.477 1283.7 504.55C1282.78 503.623 1282.26 502.366 1282.26 501.055V456.947C1282.26 455.635 1282.78 454.378 1283.7 453.451C1284.62 452.524 1285.87 452.002 1287.17 452H1287.45C1288.75 452.003 1290 452.525 1290.92 453.452C1291.84 454.379 1292.36 455.636 1292.36 456.947V501.062C1292.36 502.372 1291.84 503.626 1290.92 504.552C1290 505.477 1288.75 505.998 1287.45 506ZM1287.17 454.81C1286.61 454.811 1286.07 455.036 1285.67 455.437C1285.27 455.837 1285.05 456.38 1285.05 456.947V501.062C1285.05 501.628 1285.27 502.171 1285.67 502.572C1286.07 502.972 1286.61 503.197 1287.17 503.197H1287.45C1288.01 503.196 1288.55 502.971 1288.95 502.57C1289.35 502.17 1289.57 501.628 1289.57 501.062V456.947C1289.57 456.38 1289.35 455.837 1288.95 455.436C1288.55 455.035 1288.01 454.81 1287.45 454.81H1287.17Z" fill="#E1E1E1"/>
<path d="M1299.05 506H1298.77C1297.47 505.999 1296.22 505.477 1295.3 504.55C1294.38 503.623 1293.86 502.366 1293.86 501.055V456.947C1293.86 455.635 1294.38 454.378 1295.3 453.451C1296.22 452.524 1297.47 452.002 1298.77 452H1299.05C1300.35 452.002 1301.6 452.524 1302.52 453.451C1303.44 454.378 1303.96 455.635 1303.97 456.947V501.062C1303.96 502.372 1303.44 503.627 1302.52 504.553C1301.6 505.478 1300.35 505.999 1299.05 506ZM1298.77 454.81C1298.21 454.811 1297.67 455.036 1297.27 455.437C1296.87 455.837 1296.65 456.38 1296.65 456.947V501.062C1296.65 501.628 1296.87 502.171 1297.27 502.572C1297.67 502.972 1298.21 503.197 1298.77 503.197H1299.05C1299.61 503.197 1300.15 502.972 1300.55 502.572C1300.95 502.171 1301.17 501.629 1301.17 501.062V456.947C1301.17 456.38 1300.95 455.837 1300.55 455.436C1300.15 455.035 1299.61 454.81 1299.05 454.81H1298.77Z" fill="#E1E1E1"/>
<path d="M1310.65 506H1310.37C1309.07 505.999 1307.82 505.479 1306.9 504.553C1305.98 503.628 1305.46 502.372 1305.46 501.062V456.947C1305.46 455.635 1305.98 454.378 1306.9 453.45C1307.82 452.523 1309.07 452.001 1310.37 452H1310.65C1311.95 452.004 1313.2 452.526 1314.12 453.453C1315.04 454.38 1315.56 455.636 1315.56 456.947V501.062C1315.55 502.371 1315.04 503.625 1314.12 504.55C1313.2 505.476 1311.95 505.997 1310.65 506ZM1310.37 454.81C1309.81 454.81 1309.27 455.035 1308.87 455.436C1308.47 455.837 1308.25 456.38 1308.25 456.947V501.062C1308.25 501.629 1308.48 502.171 1308.87 502.572C1309.27 502.972 1309.81 503.197 1310.37 503.197H1310.65C1311.21 503.195 1311.75 502.969 1312.15 502.569C1312.54 502.169 1312.77 501.627 1312.77 501.062V456.947C1312.77 456.38 1312.54 455.837 1312.15 455.436C1311.75 455.035 1311.21 454.81 1310.65 454.81H1310.37Z" fill="#E1E1E1"/>
<path d="M1260.45 468.013H1256.03C1254.85 468.011 1253.71 467.536 1252.87 466.692C1252.03 465.847 1251.56 464.702 1251.56 463.508V462.341C1251.56 461.147 1252.03 460.003 1252.87 459.159C1253.71 458.315 1254.85 457.84 1256.03 457.838H1260.45V460.648H1256.03C1255.59 460.648 1255.16 460.827 1254.84 461.144C1254.53 461.462 1254.35 461.892 1254.35 462.341V463.508C1254.35 463.957 1254.53 464.388 1254.84 464.706C1255.16 465.023 1255.59 465.202 1256.03 465.203H1260.45V468.013Z" fill="#E1E1E1"/>
<path d="M1272.05 465.202H1267.77V468.011H1272.05V465.202Z" fill="#E1E1E1"/>
<path d="M1283.65 465.202H1279.37V468.011H1283.65V465.202Z" fill="#E1E1E1"/>
<path d="M1295.25 465.202H1290.97V468.011H1295.25V465.202Z" fill="#E1E1E1"/>
<path d="M1306.86 465.202H1302.57V468.011H1306.86V465.202Z" fill="#E1E1E1"/>
<path d="M1317.97 468.013H1314.16V465.203H1317.96C1318.41 465.202 1318.83 465.023 1319.15 464.706C1319.47 464.388 1319.64 463.957 1319.64 463.508V462.341C1319.64 461.892 1319.47 461.462 1319.15 461.144C1318.83 460.827 1318.41 460.648 1317.96 460.648H1314.16V457.838H1317.96C1319.15 457.84 1320.28 458.315 1321.12 459.159C1321.96 460.003 1322.43 461.147 1322.43 462.341V463.508C1322.43 464.701 1321.96 465.845 1321.13 466.689C1320.29 467.533 1319.15 468.009 1317.97 468.013Z" fill="#E1E1E1"/>
<path d="M1306.86 457.837H1302.57V460.646H1306.86V457.837Z" fill="#E1E1E1"/>
<path d="M1295.25 457.837H1290.97V460.646H1295.25V457.837Z" fill="#E1E1E1"/>
<path d="M1283.65 457.837H1279.37V460.646H1283.65V457.837Z" fill="#E1E1E1"/>
<path d="M1272.05 457.837H1267.77V460.646H1272.05V457.837Z" fill="#E1E1E1"/>
<path d="M1260.45 500.477H1256.03C1254.85 500.476 1253.71 500.001 1252.87 499.157C1252.03 498.313 1251.56 497.169 1251.56 495.975V494.806C1251.56 493.612 1252.03 492.468 1252.87 491.623C1253.71 490.779 1254.85 490.305 1256.03 490.303H1260.45V493.113H1256.03C1255.59 493.113 1255.16 493.292 1254.84 493.609C1254.53 493.926 1254.35 494.357 1254.35 494.806V495.97C1254.35 496.418 1254.53 496.848 1254.84 497.166C1255.16 497.483 1255.59 497.662 1256.03 497.663H1260.45V500.477Z" fill="#E1E1E1"/>
<path d="M1272.05 497.668H1267.77V500.478H1272.05V497.668Z" fill="#E1E1E1"/>
<path d="M1283.65 497.668H1279.37V500.478H1283.65V497.668Z" fill="#E1E1E1"/>
<path d="M1295.25 497.668H1290.97V500.478H1295.25V497.668Z" fill="#E1E1E1"/>
<path d="M1306.86 497.668H1302.57V500.478H1306.86V497.668Z" fill="#E1E1E1"/>
<path d="M1317.97 500.477H1314.16V497.668H1317.96C1318.41 497.667 1318.83 497.488 1319.15 497.171C1319.46 496.854 1319.64 496.424 1319.64 495.975V494.806C1319.64 494.357 1319.47 493.926 1319.15 493.609C1318.83 493.292 1318.41 493.113 1317.96 493.113H1314.16V490.303H1317.96C1319.15 490.305 1320.28 490.779 1321.12 491.623C1321.96 492.468 1322.43 493.612 1322.43 494.806V495.97C1322.43 497.163 1321.96 498.308 1321.13 499.153C1320.29 499.998 1319.15 500.474 1317.97 500.477Z" fill="#E1E1E1"/>
<path d="M1306.86 490.303H1302.57V493.113H1306.86V490.303Z" fill="#E1E1E1"/>
<path d="M1295.25 490.303H1290.97V493.113H1295.25V490.303Z" fill="#E1E1E1"/>
<path d="M1283.65 490.303H1279.37V493.113H1283.65V490.303Z" fill="#E1E1E1"/>
<path d="M1272.05 490.303H1267.77V493.113H1272.05V490.303Z" fill="#E1E1E1"/>
<path d="M1252.96 494.568H1247.1V497.378H1252.96V494.568Z" fill="#E1E1E1"/>
<path d="M1248.5 483.627H1245.71V504.144H1248.5V483.627Z" fill="#E1E1E1"/>
<path d="M1247.1 485.283C1246.09 485.283 1245.11 484.982 1244.27 484.417C1243.43 483.852 1242.77 483.05 1242.39 482.111C1242 481.172 1241.9 480.139 1242.1 479.142C1242.29 478.146 1242.78 477.23 1243.49 476.512C1244.21 475.793 1245.12 475.304 1246.11 475.106C1247.1 474.907 1248.12 475.009 1249.06 475.398C1249.99 475.787 1250.79 476.445 1251.35 477.29C1251.91 478.135 1252.21 479.129 1252.21 480.145C1252.21 481.507 1251.67 482.813 1250.71 483.776C1249.75 484.74 1248.46 485.281 1247.1 485.283ZM1247.1 477.818C1246.65 477.818 1246.2 477.955 1245.82 478.211C1245.44 478.467 1245.14 478.83 1244.97 479.256C1244.79 479.682 1244.75 480.15 1244.84 480.602C1244.92 481.053 1245.14 481.468 1245.47 481.794C1245.79 482.119 1246.2 482.341 1246.65 482.431C1247.1 482.52 1247.57 482.474 1247.99 482.297C1248.41 482.121 1248.77 481.822 1249.03 481.439C1249.28 481.056 1249.42 480.605 1249.42 480.145C1249.42 479.528 1249.17 478.936 1248.74 478.5C1248.3 478.064 1247.72 477.819 1247.1 477.818Z" fill="#E1E1E1"/>
<path d="M1326.9 494.568H1321.05V497.378H1326.9V494.568Z" fill="#E1E1E1"/>
<path d="M1328.29 483.627H1325.5V504.144H1328.29V483.627Z" fill="#E1E1E1"/>
<path d="M1326.89 485.283C1325.89 485.283 1324.9 484.982 1324.06 484.417C1323.22 483.852 1322.57 483.05 1322.18 482.111C1321.79 481.172 1321.69 480.139 1321.89 479.142C1322.09 478.146 1322.57 477.23 1323.29 476.512C1324 475.793 1324.91 475.304 1325.9 475.106C1326.89 474.907 1327.92 475.009 1328.85 475.398C1329.78 475.787 1330.58 476.445 1331.14 477.29C1331.7 478.135 1332 479.129 1332 480.145C1332 481.507 1331.46 482.814 1330.5 483.777C1329.55 484.74 1328.25 485.282 1326.89 485.283ZM1326.89 477.818C1326.44 477.818 1325.99 477.955 1325.61 478.211C1325.23 478.467 1324.93 478.83 1324.76 479.256C1324.58 479.682 1324.54 480.15 1324.63 480.602C1324.72 481.053 1324.94 481.468 1325.26 481.794C1325.58 482.119 1326 482.341 1326.44 482.431C1326.89 482.52 1327.36 482.474 1327.78 482.297C1328.2 482.121 1328.56 481.822 1328.82 481.439C1329.07 481.056 1329.21 480.605 1329.21 480.145C1329.21 479.528 1328.96 478.936 1328.53 478.5C1328.1 478.063 1327.51 477.818 1326.89 477.818Z" fill="#E1E1E1"/>
</g>
<g clip-path="url(#clip2)">
<path d="M1275.21 39H1188.82C1188.58 38.9992 1188.34 39.0456 1188.12 39.1367C1187.9 39.2278 1187.7 39.3617 1187.53 39.5307C1187.36 39.6996 1187.23 39.9004 1187.14 40.1213C1187.05 40.3423 1187 40.5791 1187 40.818V127.176C1187 127.415 1187.05 127.651 1187.14 127.872C1187.23 128.093 1187.36 128.294 1187.53 128.463C1187.7 128.632 1187.9 128.766 1188.12 128.857C1188.34 128.948 1188.58 128.995 1188.82 128.994H1275.21C1275.69 128.994 1276.15 128.802 1276.49 128.461C1276.83 128.12 1277.03 127.658 1277.03 127.176V40.818C1277.03 40.3359 1276.83 39.8734 1276.49 39.5325C1276.15 39.1915 1275.69 39 1275.21 39ZM1273.36 125.339H1190.64V42.6361H1273.36V125.339Z" fill="#E1E1E1"/>
<path d="M1231.99 118.085C1238.74 118.087 1245.33 116.088 1250.94 112.343C1256.54 108.597 1260.91 103.273 1263.5 97.043C1266.08 90.8133 1266.75 83.9581 1265.44 77.3444C1264.12 70.7306 1260.87 64.6555 1256.11 59.8873C1251.34 55.1191 1245.26 51.8721 1238.65 50.5569C1232.04 49.2416 1225.18 49.9173 1218.95 52.4984C1212.72 55.0795 1207.4 59.4501 1203.65 65.0574C1199.91 70.6647 1197.91 77.2568 1197.91 84.0001C1197.92 93.037 1201.51 101.701 1207.9 108.091C1214.29 114.481 1222.96 118.076 1231.99 118.085ZM1209.23 63.8008L1214.7 69.2738C1211.61 72.9057 1209.75 77.4215 1209.38 82.1757H1201.6C1202 75.3666 1204.69 68.8924 1209.23 63.8008ZM1262.39 82.1757H1254.64C1254.27 77.4179 1252.39 72.9017 1249.29 69.2738L1254.76 63.8008C1259.3 68.894 1261.99 75.3673 1262.39 82.1757ZM1254.76 104.193L1249.29 98.72C1252.39 95.099 1254.26 90.5923 1254.64 85.8432H1262.39C1261.98 92.6429 1259.29 99.1065 1254.76 104.193ZM1231.99 77.6306C1233.25 77.6294 1234.49 78.0019 1235.53 78.701C1236.58 79.4001 1237.4 80.3944 1237.88 81.5582C1238.37 82.722 1238.49 84.0029 1238.25 85.2388C1238 86.4748 1237.4 87.6103 1236.51 88.5017C1235.62 89.3931 1234.48 90.0004 1233.24 90.2467C1232.01 90.4929 1230.73 90.3672 1229.56 89.8853C1228.4 89.4034 1227.4 88.587 1226.7 87.5394C1226 86.4918 1225.63 85.2601 1225.63 84.0001C1225.63 82.3124 1226.3 80.6942 1227.5 79.5002C1228.69 78.3063 1230.31 77.6339 1231.99 77.6306ZM1226.35 92.2315C1227.51 93.0272 1228.82 93.5718 1230.19 93.8301V103.002C1226.4 102.638 1222.8 101.145 1219.87 98.7138L1226.35 92.2315ZM1233.83 93.8301C1235.21 93.5739 1236.52 93.0291 1237.68 92.2315L1244.16 98.7138C1241.23 101.146 1237.63 102.64 1233.83 103.002V93.8301ZM1240.25 89.6611C1241.05 88.506 1241.59 87.1968 1241.85 85.8181H1251.01C1250.66 89.6116 1249.16 93.2094 1246.73 96.1434L1240.25 89.6611ZM1241.85 82.1757C1241.59 80.7971 1241.05 79.4879 1240.25 78.3327L1246.73 71.8504C1249.16 74.7844 1250.66 78.3822 1251.01 82.1757H1241.85ZM1237.68 75.7624C1236.52 74.9647 1235.21 74.42 1233.83 74.1637V64.9982C1237.63 65.3557 1241.23 66.8477 1244.16 69.2801L1237.68 75.7624ZM1230.19 74.1637C1228.82 74.4221 1227.51 74.9667 1226.35 75.7624L1219.85 69.2801C1222.78 66.8489 1226.38 65.3569 1230.18 64.9982L1230.19 74.1637ZM1223.76 78.3202C1222.97 79.4753 1222.42 80.7845 1222.16 82.1632H1212.99C1213.35 78.3691 1214.85 74.7713 1217.28 71.8379L1223.76 78.3202ZM1222.16 85.8432C1222.42 87.2219 1222.97 88.5311 1223.76 89.6862L1217.28 96.1685C1214.85 93.235 1213.35 89.6373 1212.99 85.8432H1222.16ZM1217.27 101.315C1220.9 104.417 1225.42 106.291 1230.18 106.669V114.418C1223.37 114.013 1216.89 111.325 1211.8 106.788L1217.27 101.315ZM1233.81 106.669C1238.57 106.292 1243.09 104.418 1246.72 101.315L1252.19 106.788C1247.1 111.313 1240.63 113.992 1233.83 114.393L1233.81 106.669ZM1246.72 66.7285C1243.1 63.6204 1238.59 61.7376 1233.83 61.3496V53.6009C1240.64 54.0062 1247.12 56.6939 1252.21 61.2305L1246.72 66.7285ZM1230.18 61.3746C1225.42 61.7529 1220.9 63.627 1217.27 66.7285L1211.8 61.2556C1216.89 56.7191 1223.37 54.0312 1230.18 53.626V61.3746ZM1209.38 85.8432C1209.76 90.6011 1211.63 95.1173 1214.73 98.7451L1209.26 104.218C1204.71 99.1308 1202.01 92.6562 1201.6 85.8432H1209.38Z" fill="#E1E1E1"/>
<path d="M1200.64 55.3626C1201.17 55.3626 1201.7 55.2031 1202.15 54.9043C1202.6 54.6055 1202.95 54.1807 1203.15 53.6834C1203.36 53.1862 1203.42 52.6389 1203.31 52.1104C1203.21 51.5819 1202.95 51.096 1202.57 50.7138C1202.19 50.3317 1201.71 50.0705 1201.18 49.9632C1200.65 49.8558 1200.1 49.9071 1199.6 50.1107C1199.11 50.3142 1198.68 50.6608 1198.38 51.1068C1198.08 51.5528 1197.91 52.0782 1197.91 52.6167C1197.91 52.9764 1197.97 53.3331 1198.11 53.6661C1198.25 53.9992 1198.45 54.302 1198.7 54.5572C1198.95 54.8125 1199.26 55.015 1199.59 55.1532C1199.92 55.2915 1200.28 55.3626 1200.64 55.3626Z" fill="#E1E1E1"/>
<path d="M1200.64 118.086C1201.17 118.086 1201.7 117.926 1202.15 117.626C1202.6 117.326 1202.95 116.9 1203.15 116.402C1203.36 115.904 1203.42 115.355 1203.31 114.826C1203.2 114.297 1202.95 113.811 1202.56 113.43C1202.18 113.049 1201.7 112.789 1201.17 112.684C1200.64 112.579 1200.09 112.633 1199.59 112.839C1199.09 113.045 1198.67 113.395 1198.37 113.843C1198.07 114.292 1197.91 114.819 1197.91 115.358C1197.91 116.082 1198.2 116.775 1198.71 117.287C1199.22 117.798 1199.91 118.086 1200.64 118.086Z" fill="#E1E1E1"/>
<path d="M1263.36 112.631C1262.82 112.631 1262.29 112.791 1261.84 113.091C1261.39 113.391 1261.05 113.816 1260.84 114.315C1260.63 114.813 1260.58 115.361 1260.68 115.89C1260.79 116.419 1261.05 116.905 1261.43 117.287C1261.81 117.668 1262.3 117.928 1262.83 118.033C1263.36 118.138 1263.9 118.084 1264.4 117.878C1264.9 117.672 1265.33 117.322 1265.63 116.874C1265.93 116.425 1266.09 115.898 1266.09 115.358C1266.09 114.635 1265.8 113.941 1265.29 113.43C1264.78 112.919 1264.08 112.631 1263.36 112.631Z" fill="#E1E1E1"/>
<path d="M1263.36 55.3626C1263.9 55.3626 1264.42 55.2027 1264.87 54.903C1265.32 54.6034 1265.67 54.1775 1265.88 53.6791C1266.08 53.1808 1266.14 52.6325 1266.03 52.1035C1265.93 51.5745 1265.67 51.0886 1265.29 50.7072C1264.91 50.3258 1264.42 50.0661 1263.89 49.9609C1263.36 49.8556 1262.81 49.9096 1262.31 50.116C1261.82 50.3224 1261.39 50.672 1261.09 51.1204C1260.79 51.5689 1260.63 52.0962 1260.63 52.6355C1260.63 53.3588 1260.92 54.0524 1261.43 54.5638C1261.94 55.0753 1262.64 55.3626 1263.36 55.3626Z" fill="#E1E1E1"/>
</g>
<g clip-path="url(#clip3)">
<path d="M72.8509 487.829L70.8287 489.851L72.8509 491.873L74.8731 489.851L72.8509 487.829Z" fill="#E1E1E1"/>
<path d="M77.906 484.797L66.2236 473.111L68.2412 471.094C70.052 471.419 71.9177 471.239 73.6325 470.572C75.3474 469.906 76.8449 468.778 77.96 467.315C79.0751 465.851 79.7646 464.108 79.9524 462.278C80.1402 460.448 79.819 458.601 79.0244 456.942L78.1552 455.115L73.0376 460.238C72.7654 460.499 72.4032 460.644 72.0265 460.644C71.6498 460.644 71.2876 460.499 71.0154 460.238C70.8826 460.106 70.7772 459.948 70.7053 459.775C70.6333 459.601 70.5963 459.415 70.5963 459.227C70.5963 459.04 70.6333 458.854 70.7053 458.68C70.7772 458.507 70.8826 458.349 71.0154 458.216L76.136 453.094L74.3106 452.223C72.6511 451.43 70.8049 451.109 68.9751 451.298C67.1452 451.486 65.4029 452.175 63.9398 453.29C62.4767 454.405 61.3497 455.902 60.6828 457.617C60.016 459.331 59.8351 461.196 60.1602 463.007L56.1205 467.046L49.2464 460.174V455.753L37.3614 451L34.0062 454.354L38.7605 466.239H43.1815L50.0541 473.113L35.9307 487.236C35.3997 487.767 34.9785 488.398 34.6911 489.091C34.4038 489.785 34.2558 490.529 34.2558 491.28C34.2558 492.031 34.4038 492.774 34.6911 493.468C34.9785 494.162 35.3997 494.792 35.9307 495.323C36.4617 495.854 37.0921 496.275 37.7859 496.563C38.4797 496.85 39.2233 496.998 39.9742 496.998C40.7252 496.998 41.4688 496.85 42.1625 496.563C42.8563 496.275 43.4867 495.854 44.0177 495.323L56.119 483.222L67.8028 494.904C68.4665 495.568 69.2544 496.095 70.1216 496.454C70.9888 496.813 71.9182 496.998 72.8569 496.998C73.7955 496.998 74.725 496.813 75.5922 496.454C76.4594 496.095 77.2474 495.569 77.9112 494.905C78.575 494.241 79.1016 493.453 79.4608 492.586C79.8201 491.719 80.005 490.79 80.0051 489.851C80.0052 488.912 79.8204 487.983 79.4612 487.116C79.1021 486.248 78.5756 485.46 77.912 484.797H77.906ZM44.3645 463.379H40.6956L37.3629 455.044L38.0519 454.355L46.3866 457.688V461.358L54.0983 469.069L52.0762 471.092L44.3645 463.379ZM41.9956 493.303C41.4508 493.822 40.727 494.112 39.9742 494.112C39.2214 494.112 38.4976 493.822 37.9528 493.303C37.6864 493.037 37.475 492.722 37.3307 492.375C37.1864 492.028 37.1122 491.656 37.1122 491.28C37.1122 490.905 37.1864 490.532 37.3307 490.185C37.475 489.838 37.6864 489.523 37.9528 489.258L63.3232 463.888L63.1116 463.091C62.8256 462.033 62.7874 460.923 63 459.848C63.2127 458.773 63.6703 457.761 64.3375 456.892C65.0047 456.022 65.8634 455.318 66.8469 454.835C67.8304 454.351 68.9121 454.101 70.0081 454.103C70.3451 454.103 70.6817 454.127 71.0154 454.174L68.9843 456.194C68.1801 456.998 67.7284 458.089 67.7284 459.227C67.7284 460.364 68.1801 461.455 68.9843 462.259C70.6041 463.879 73.4294 463.879 75.0507 462.259L77.0653 460.244C77.2342 461.414 77.11 462.606 76.7038 463.716C76.2976 464.825 75.6221 465.816 74.7381 466.6C73.8541 467.383 72.7893 467.935 71.6393 468.206C70.4893 468.476 69.2901 468.456 68.1496 468.148L67.3525 467.937L41.9956 493.303ZM75.8898 492.882C74.27 494.502 71.4448 494.502 69.825 492.882L58.1411 481.2L64.2075 475.133L75.8898 486.817C76.2882 487.215 76.6042 487.688 76.8198 488.209C77.0354 488.729 77.1464 489.287 77.1464 489.85C77.1464 490.413 77.0354 490.971 76.8198 491.491C76.6042 492.011 76.2882 492.484 75.8898 492.882Z" fill="#E1E1E1"/>
</g>
<g clip-path="url(#clip4)">
<path d="M301.874 90.0638C300.114 90.0638 298.686 88.6366 298.686 86.8759C298.686 85.1153 300.114 83.688 301.874 83.688C303.635 83.688 305.062 85.1153 305.062 86.8759C305.062 88.6366 303.635 90.0638 301.874 90.0638Z" fill="#E1E1E1"/>
<path d="M288.62 90.0424C286.882 89.7621 285.7 88.1258 285.981 86.3877C286.261 84.6495 287.897 83.4676 289.635 83.7479C291.374 84.0282 292.556 85.6644 292.275 87.4026C291.995 89.1408 290.359 90.3227 288.62 90.0424Z" fill="#E1E1E1"/>
<path d="M276.374 77.3138V75.719H276.419L276.374 70.9379C276.379 66.7124 278.06 62.6614 281.048 59.6735C284.036 56.6856 288.087 55.0049 292.312 55H298.688C302.913 55.0053 306.964 56.6862 309.951 59.6741C312.939 62.6619 314.619 66.7127 314.624 70.9379V77.3138C316.314 77.3151 317.935 77.987 319.131 79.1821C320.326 80.3771 320.998 81.9976 321 83.6879V86.8675C320.998 88.5579 320.326 90.1786 319.131 91.3739C317.935 92.5692 316.315 93.2415 314.624 93.2433H313.518C312.203 96.9717 309.764 100.2 306.537 102.484C303.31 104.768 299.454 105.994 295.5 105.994C291.547 105.994 287.69 104.768 284.463 102.484C281.236 100.2 278.797 96.9717 277.482 93.2433H276.374C274.684 93.2415 273.063 92.5692 271.868 91.3738C270.673 90.1784 270.001 88.5578 270 86.8675V83.6879C270.001 81.9978 270.673 80.3773 271.868 79.1822C273.064 77.9871 274.684 77.3151 276.374 77.3138ZM298.688 58.1879H292.312C288.932 58.1919 285.691 59.5365 283.301 61.9267C280.911 64.3169 279.566 67.5576 279.562 70.9379V73.4799C282.64 72.5026 288.636 70.9379 295.5 70.9379C302.365 70.9379 308.36 72.5026 311.438 73.4799V70.9379C311.434 67.5576 310.089 64.3169 307.699 61.9267C305.309 59.5365 302.068 58.1919 298.688 58.1879ZM279.954 76.708C280.64 78.5638 281.759 80.5 282.75 80.5C283.741 80.5 284.89 80.0314 286.328 79.434C288.609 78.4902 291.449 77.3138 295.5 77.3138C299.551 77.3138 302.39 78.4852 304.672 79.434C306.11 80.0314 307.246 80.5 308.25 80.5C309.254 80.5 310.36 78.5638 311.046 76.7063C308.416 75.8378 302.363 74.1258 295.5 74.1258C288.637 74.1258 282.588 75.8394 279.954 76.708ZM273.188 86.8758C273.189 87.7196 273.524 88.5287 274.12 89.1261C274.716 89.7235 275.524 90.0607 276.368 90.0638H279.843L280.178 91.2234C281.121 94.5605 283.128 97.4985 285.893 99.5908C288.659 101.683 292.031 102.815 295.499 102.815C298.967 102.815 302.34 101.683 305.105 99.5908C307.871 97.4985 309.877 94.5605 310.82 91.2234L311.155 90.0638H314.629C315.474 90.0624 316.284 89.7261 316.882 89.1286C317.48 88.531 317.816 87.7209 317.817 86.8758V83.6963C317.814 82.8527 317.476 82.0447 316.879 81.449C316.282 80.8532 315.473 80.5181 314.629 80.5167H312.8C311.788 82.2019 310.312 83.6963 308.255 83.6963C306.617 83.6963 305.076 83.0604 303.457 82.3876C301.332 81.5074 298.922 80.5084 295.505 80.5084C292.088 80.5084 289.678 81.5124 287.551 82.3876C285.926 83.057 284.392 83.6963 282.755 83.6963C280.698 83.6963 279.222 82.1902 278.21 80.5167H276.379C275.537 80.5198 274.73 80.8558 274.134 81.4514C273.539 82.047 273.203 82.854 273.2 83.6963L273.188 86.8758Z" fill="#E1E1E1"/>
<path d="M295.5 67.7499C292.86 67.7499 290.719 66.3226 290.719 64.5619C290.719 62.8013 292.86 61.374 295.5 61.374C298.141 61.374 300.281 62.8013 300.281 64.5619C300.281 66.3226 298.141 67.7499 295.5 67.7499Z" fill="#E1E1E1"/>
</g>
<g clip-path="url(#clip5)">
<path d="M51 17.3834L45.7772 9.39466C45.1967 8.50206 44.4084 7.76997 43.4827 7.26381C42.557 6.75765 41.5227 6.49317 40.4723 6.49401H31.8758C31.8741 4.77059 31.2017 3.1183 30.0063 1.89982C28.811 0.681332 27.1903 -0.00377194 25.5 -0.00512695H6.37415V3.2453H25.5C26.3423 3.24844 27.1493 3.59101 27.7449 4.1983C28.3405 4.80559 28.6765 5.62836 28.6795 6.48719V30.8748H25.2657C24.9186 29.4804 24.1255 28.2438 23.0119 27.3605C21.8982 26.4771 20.5276 25.9976 19.1166 25.9976C17.7057 25.9976 16.335 26.4771 15.2214 27.3605C14.1077 28.2438 13.3146 29.4804 12.9675 30.8748H9.5537V19.4991H6.37415V34.1252H12.9759C13.323 35.5196 14.1161 36.7562 15.2297 37.6395C16.3434 38.5228 17.7141 39.0024 19.125 39.0024C20.5359 39.0024 21.9066 38.5228 23.0203 37.6395C24.1339 36.7562 24.927 35.5196 25.2741 34.1252H35.288C35.6351 35.5196 36.4282 36.7562 37.5418 37.6395C38.6555 38.5228 40.0261 39.0024 41.4371 39.0024C42.848 39.0024 44.2187 38.5228 45.3323 37.6395C46.446 36.7562 47.2391 35.5196 47.5862 34.1252H51V17.3834ZM19.1242 35.7581C18.4953 35.7581 17.8806 35.568 17.3577 35.2117C16.8348 34.8555 16.4273 34.3492 16.1866 33.7568C15.946 33.1644 15.883 32.5126 16.0057 31.8837C16.1284 31.2549 16.4312 30.6772 16.8759 30.2238C17.3205 29.7704 17.8871 29.4617 18.5038 29.3366C19.1206 29.2115 19.7599 29.2757 20.3409 29.5211C20.9219 29.7664 21.4185 30.182 21.7678 30.7151C22.1172 31.2482 22.3037 31.875 22.3037 32.5162C22.3011 33.3752 21.9652 34.1982 21.3695 34.8056C20.7738 35.413 19.9666 35.7554 19.1242 35.7581ZM40.4723 9.75809C40.9972 9.7573 41.5142 9.88902 41.977 10.1415C42.4398 10.394 42.8341 10.7593 43.1247 11.205L46.4281 16.2589H31.8691V9.75809H40.4723ZM41.4379 35.7581C40.8091 35.7581 40.1943 35.568 39.6715 35.2117C39.1486 34.8555 38.741 34.3492 38.5004 33.7568C38.2597 33.1644 38.1968 32.5126 38.3195 31.8837C38.4421 31.2549 38.745 30.6772 39.1896 30.2238C39.6343 29.7704 40.2008 29.4617 40.8176 29.3366C41.4344 29.2115 42.0737 29.2757 42.6547 29.5211C43.2357 29.7664 43.7322 30.182 44.0816 30.7151C44.431 31.2482 44.6175 31.875 44.6175 32.5162C44.6144 33.375 44.2784 34.1978 43.6828 34.8051C43.0872 35.4124 42.2802 35.7549 41.4379 35.7581ZM47.5895 30.8748C47.2424 29.4804 46.4493 28.2438 45.3357 27.3605C44.222 26.4771 42.8514 25.9976 41.4404 25.9976C40.0295 25.9976 38.6588 26.4771 37.5452 27.3605C36.4315 28.2438 35.6384 29.4804 35.2913 30.8748H31.8758V19.4991H47.8121V30.8748H47.5895Z" fill="#E1E1E1"/>
<path d="M19.1258 13H3.18793V16.2504H19.1258V13Z" fill="#E1E1E1"/>
<path d="M15.9379 6.50073H0V9.75116H15.9379V6.50073Z" fill="#E1E1E1"/>
</g>
<defs>
<clipPath id="clip0">
<rect width="90" height="89" fill="white" transform="translate(113 208)"/>
</clipPath>
<clipPath id="clip1">
<rect width="90" height="54" fill="white" transform="translate(1242 452)"/>
</clipPath>
<clipPath id="clip2">
<rect width="90" height="90" fill="white" transform="translate(1187 39)"/>
</clipPath>
<clipPath id="clip3">
<rect width="46" height="46" fill="white" transform="translate(34 451)"/>
</clipPath>
<clipPath id="clip4">
<rect width="51" height="51" fill="white" transform="matrix(-1 0 0 1 321 55)"/>
</clipPath>
<clipPath id="clip5">
<rect width="51" height="39" fill="white"/>
</clipPath>
</defs>
</svg>
