<svg width="129" height="75" viewBox="0 0 129 75" fill="none" xmlns="http://www.w3.org/2000/svg">
<path d="M126.092 34.5779L126.092 34.5777L69.3649 1.73096L126.092 34.5779ZM126.092 34.5779C127.498 35.3904 128.094 36.3896 128.1 37.2876C128.105 38.1839 127.523 39.1805 126.129 39.9917L126.128 39.9919M126.092 34.5779L126.128 39.9919M126.128 39.9919L69.7671 72.8386L126.128 39.9919ZM2.72558 39.991L2.72589 39.9912L59.4528 72.838C60.8559 73.6491 62.7245 74.0689 64.6176 74.0689C66.5107 74.0689 68.3738 73.6491 69.7667 72.8388L2.72558 39.991ZM2.72558 39.991C1.3203 39.1786 0.725571 38.1797 0.721216 37.282C0.716867 36.3854 1.30062 35.3886 2.69526 34.5772L2.69561 34.577M2.72558 39.991L2.69561 34.577M2.69561 34.577L59.0506 1.73027M2.69561 34.577L59.0506 1.73027M59.0506 1.73027L59.0509 1.73007C60.4439 0.919793 62.307 0.5 64.2 0.5C66.093 0.5 67.9615 0.919747 69.3646 1.73078L59.0506 1.73027Z" fill="white" stroke="#001021"/>
<path d="M92.511 20.8515C108.155 29.9033 108.237 44.5834 92.7001 53.6353C77.1631 62.6871 51.8691 62.6871 36.225 53.6353C20.5809 44.5834 20.4674 29.9033 36.0422 20.8515C51.617 11.7996 76.8732 11.8059 92.511 20.8515Z" fill="#222222"/>
<path d="M96.7723 40.9956C98.7137 35.1906 95.9971 28.956 88.6856 24.3258L94.0557 21.1674L91.9379 19.9483L86.5741 23.0751C78.5566 18.8303 67.7974 17.2827 57.8071 18.4323L55.954 14.1306L53.0609 14.5475L54.9518 18.8429C50.0336 19.6164 45.2916 21.259 40.9465 23.6941C36.9252 26.0376 34.1644 28.8359 32.6769 31.8111L25.2709 30.7499L24.5649 32.4302L31.9773 33.4914C30.0297 39.2964 32.7274 45.5374 40.0641 50.1738L34.6939 53.3322L36.8054 54.5576L42.1819 51.3993C50.1993 55.6441 60.9523 57.1917 70.9426 56.0421L72.7957 60.3374L75.6887 59.9269L73.8356 55.6315C78.7383 54.8579 83.4664 53.2242 87.8031 50.8055C91.8308 48.462 94.5789 45.6511 96.0727 42.6759L103.479 43.7371L104.191 42.0568L96.7723 40.9956ZM84.4688 24.3258L79.5588 27.181C74.113 24.4079 66.9527 23.3909 60.2274 24.0668L58.5319 20.1378C67.5452 19.1208 77.2204 20.5358 84.4688 24.3258ZM53.6471 42.2653L49.1845 44.8678C45.1506 42.1579 43.6001 38.6269 44.5455 35.2916L50.691 36.176C50.2119 38.2984 51.1952 40.5092 53.6471 42.2653ZM55.7649 43.4907C59.0697 44.9227 62.6803 45.5004 66.2657 45.171L67.7974 48.7336C62.0616 49.2958 55.9729 48.4115 51.3023 46.0743L55.7649 43.4907ZM62.4839 29.3034L60.9523 25.7408C66.688 25.1849 72.7767 26.0692 77.4473 28.4064L72.991 30.9963C69.6825 29.569 66.0721 28.9874 62.4839 29.3034ZM58.0718 26.145L59.6097 29.7077C57.8411 30.0572 56.139 30.6862 54.5673 31.5711C53.2956 32.2697 52.2137 33.2694 51.4158 34.4831L45.2641 33.5988C46.4474 31.6533 48.1271 30.0594 50.13 28.9812C52.5953 27.5987 55.2761 26.644 58.0592 26.1577L58.0718 26.145ZM43.0643 24.8817C46.9755 22.7045 51.2382 21.2334 55.6577 20.5358L57.3533 24.4648C54.0741 25.0233 50.9148 26.1406 48.0122 27.7684C45.6579 29.0178 43.6945 30.8958 42.3395 33.1945L35.57 32.228C36.9378 29.5497 39.4275 27.023 43.0517 24.9133L43.0643 24.8817ZM42.1693 48.961C35.5952 44.7541 33.156 39.1448 34.8578 33.9083L41.6335 34.881C40.4549 38.7848 42.2638 42.9412 47.0667 46.0932L42.1693 48.961ZM44.3123 50.1738L49.2287 47.3187C54.6745 50.0854 61.8347 51.1087 68.56 50.4328L70.2492 54.3618C61.2044 55.3725 51.5356 53.9765 44.3123 50.1738ZM70.6904 48.3293L69.1525 44.7667C70.9214 44.4212 72.6237 43.7942 74.1949 42.9096C75.4793 42.2092 76.5756 41.208 77.3905 39.9913L83.536 40.8693C82.3583 42.821 80.6774 44.4183 78.6701 45.4931C76.1887 46.8826 73.4908 47.8415 70.6904 48.3293ZM85.6916 49.5927C81.7773 51.7781 77.5105 53.2576 73.0856 53.9639L71.4153 50.0222C74.6913 49.463 77.8481 48.3479 80.7501 46.7249C83.1016 45.4687 85.0638 43.5896 86.4228 41.2925L93.1922 42.259C91.8119 44.9436 89.3159 47.4703 85.6916 49.5927ZM93.8855 40.5914L87.1035 39.6123L84.2041 39.1954L78.0587 38.3173C78.5377 36.1949 77.5544 33.9841 75.1026 32.2217L79.5651 29.6255C83.599 32.3291 85.1496 35.8601 84.2041 39.1954L87.1035 39.6123C88.2822 35.7085 86.4732 31.5521 81.6703 28.4001L86.5803 25.5449C93.1544 29.7392 95.5874 35.3422 93.8792 40.5787L93.8855 40.5914Z" fill="white"/>
<path d="M68.5034 36.9412C68.5034 38.2551 66.6629 39.3226 64.3938 39.3226C62.1247 39.3226 60.2905 38.2551 60.2905 36.9412C60.2905 35.6273 62.1247 34.5598 64.3938 34.5598C66.6629 34.5598 68.5034 35.6273 68.5034 36.9412Z" fill="#001021"/>
</svg>
