<svg width="581" height="337" viewBox="0 0 581 337" fill="none" xmlns="http://www.w3.org/2000/svg">
<path d="M569.562 154.62L569.812 154.187L569.562 154.62C576.23 158.475 579.475 163.472 579.505 168.367C579.536 173.261 576.355 178.255 569.731 182.108L569.983 182.54L569.731 182.108L315.222 330.434C315.221 330.434 315.221 330.434 315.221 330.434C308.599 334.287 299.861 336.228 291.084 336.228C282.308 336.228 273.548 334.287 266.882 330.433C266.882 330.433 266.882 330.433 266.882 330.433L10.7216 182.108L10.7213 182.108C4.05322 178.253 0.815992 173.257 0.792246 168.361C0.768506 163.468 3.95597 158.473 10.5802 154.62L10.5805 154.619L265.062 6.2939C271.684 2.44107 280.422 0.5 289.199 0.5C297.975 0.5 306.735 2.44096 313.401 6.29441C313.401 6.29447 313.401 6.29453 313.401 6.29459L569.562 154.62Z" fill="white" stroke="#001021"/>
<path d="M417.039 94.1582C487.683 135.033 488.053 201.324 417.893 242.199C347.734 283.074 233.514 283.074 162.871 242.199C92.2276 201.324 91.7153 135.033 162.046 94.1582C232.376 53.2831 346.424 53.3116 417.039 94.1582Z" fill="#222222"/>
<path d="M436.28 185.122C445.046 158.908 432.779 130.755 399.763 109.847L424.012 95.5845L414.449 90.0793L390.228 104.199C354.024 85.0306 305.439 78.0421 260.326 83.2335L251.958 63.8086L238.894 65.6912L247.432 85.0876C225.224 88.5807 203.81 95.998 184.189 106.994C166.03 117.577 153.564 130.213 146.847 143.648L113.404 138.856L110.216 146.443L143.687 151.235C134.893 177.449 147.074 205.631 180.205 226.567L155.955 240.83L165.49 246.363L189.768 232.101C225.972 251.269 274.529 258.258 319.641 253.066L328.009 272.463L341.073 270.609L332.705 251.212C354.844 247.719 376.195 240.342 395.778 229.42C413.965 218.837 426.375 206.144 433.12 192.709L466.564 197.501L469.78 189.914L436.28 185.122ZM380.721 109.847L358.549 122.74C333.958 110.217 301.625 105.625 271.255 108.677L263.599 90.9351C304.3 86.3427 347.99 92.7321 380.721 109.847ZM241.541 190.855L221.389 202.607C203.174 190.37 196.172 174.425 200.441 159.365L228.192 163.358C226.029 172.942 230.469 182.926 241.541 190.855ZM251.104 196.389C266.028 202.855 282.332 205.464 298.522 203.976L305.439 220.064C279.538 222.603 252.043 218.609 230.953 208.055L251.104 196.389ZM281.445 132.324L274.529 116.236C300.429 113.726 327.924 117.719 349.014 128.273L328.892 139.968C313.951 133.523 297.648 130.897 281.445 132.324ZM261.521 118.062L268.466 134.149C260.479 135.728 252.794 138.568 245.696 142.564C239.954 145.719 235.068 150.233 231.465 155.713L203.686 151.72C209.03 142.935 216.615 135.737 225.659 130.869C236.791 124.626 248.897 120.315 261.464 118.119L261.521 118.062ZM193.753 112.357C211.414 102.525 230.663 95.8825 250.62 92.7321L258.277 110.474C243.469 112.996 229.203 118.042 216.095 125.392C205.464 131.034 196.598 139.515 190.479 149.895L159.911 145.53C166.087 133.436 177.33 122.026 193.696 112.499L193.753 112.357ZM189.711 221.091C160.025 202.094 149.01 176.764 156.695 153.118L187.292 157.51C181.969 175.138 190.138 193.907 211.826 208.141L189.711 221.091ZM199.388 226.567L221.589 213.675C246.18 226.168 278.513 230.789 308.883 227.737L316.51 245.479C275.667 250.043 232.006 243.739 199.388 226.567ZM318.503 218.238L311.558 202.151C319.546 200.591 327.233 197.759 334.328 193.765C340.128 190.602 345.078 186.081 348.758 180.587L376.509 184.551C371.191 193.365 363.6 200.578 354.536 205.431C343.331 211.705 331.148 216.035 318.503 218.238ZM386.243 223.943C368.567 233.812 349.3 240.493 329.318 243.682L321.776 225.883C336.569 223.357 350.825 218.322 363.929 210.993C374.547 205.321 383.408 196.835 389.545 186.463L420.113 190.827C413.88 202.949 402.609 214.359 386.243 223.943ZM423.244 183.296L392.619 178.875L379.526 176.992L351.775 173.028C353.938 163.444 349.498 153.46 338.426 145.502L358.578 133.778C376.794 145.987 383.795 161.932 379.526 176.992L392.619 178.875C397.941 161.247 389.772 142.478 368.084 128.245L390.256 115.352C419.942 134.292 430.929 159.593 423.216 183.239L423.244 183.296Z" fill="white"/>
<path d="M308.626 166.814C308.626 172.747 300.315 177.568 290.069 177.568C279.823 177.568 271.54 172.747 271.54 166.814C271.54 160.881 279.823 156.061 290.069 156.061C300.315 156.061 308.626 160.881 308.626 166.814Z" fill="#001021"/>
</svg>
