<svg width="74" height="49" viewBox="0 0 74 49" fill="none" xmlns="http://www.w3.org/2000/svg">
<path fill-rule="evenodd" clip-rule="evenodd" d="M8.94719 12.7048L6.9782 15.4158C6.50392 16.1552 6.31041 17.0402 6.43279 17.91C6.55517 18.7799 6.98532 19.577 7.64519 20.1569L11.2952 22.7919C11.9222 23.2439 11.9711 23.6919 11.6741 24.1699L12.2051 24.5638L14.0532 22.0038C14.3468 21.6391 14.5635 21.2186 14.6901 20.7677C14.8167 20.3168 14.8507 19.845 14.7898 19.3807C14.729 18.9163 14.5746 18.4692 14.3361 18.0662C14.0976 17.6631 13.7799 17.3127 13.4022 17.0359L9.72112 14.3549C9.52194 14.217 9.38492 14.0064 9.33965 13.7684C9.29438 13.5305 9.34453 13.2843 9.47918 13.0829L8.94915 12.7039L8.94719 12.7048Z" fill="#222222"/>
<path fill-rule="evenodd" clip-rule="evenodd" d="M12.1064 0.721436L9.04034 4.96045C8.36278 6.03315 8.09586 7.31463 8.28863 8.56866C8.4814 9.8227 9.12095 10.9648 10.0894 11.7844L15.1294 15.4844C15.6154 15.9454 15.9229 16.563 15.9981 17.2285C16.0733 17.894 15.9112 18.5647 15.5403 19.1224L15.9673 19.4434L19.4434 14.5524C19.8539 14.0143 20.1541 13.4004 20.327 12.746C20.4998 12.0916 20.5419 11.4096 20.4507 10.739C20.3596 10.0683 20.1371 9.42218 19.796 8.83765C19.4548 8.25311 19.0016 7.7416 18.4625 7.33246L13.0724 3.41846C12.8763 3.30282 12.7064 3.14759 12.5735 2.96271C12.4407 2.77782 12.3479 2.56735 12.3008 2.3446C12.2538 2.12186 12.2536 1.89175 12.3003 1.66895C12.3471 1.44614 12.4398 1.23552 12.5724 1.05048L12.1085 0.722473L12.1064 0.721436Z" fill="#222222"/>
<path fill-rule="evenodd" clip-rule="evenodd" d="M4.02832 27.3066H8.09033L8.81433 29.7693H15.4523L16.1763 27.3066H20.2383L19.7053 25.4958H4.5603L4.02832 27.3066Z" fill="#222222"/>
<path fill-rule="evenodd" clip-rule="evenodd" d="M7.51892 37.4125C7.34592 36.2415 6.87393 35.9606 5.92993 35.5446C6.2763 35.3693 6.56739 35.1015 6.77075 34.7709C6.97411 34.4402 7.08175 34.0597 7.08191 33.6715C7.08191 31.9885 5.70395 31.3035 4.19995 31.3035H0V40.2345H4.16101C5.93901 40.2345 7.82192 39.4575 7.51892 37.4125ZM1.8999 33.0126H4.08191C4.2112 32.9994 4.34186 33.0126 4.46582 33.0516C4.58978 33.0907 4.70447 33.1547 4.80286 33.2396C4.90125 33.3245 4.98133 33.4286 5.03809 33.5455C5.09485 33.6624 5.12707 33.7897 5.13293 33.9196C5.1388 34.0494 5.11814 34.179 5.07214 34.3005C5.02615 34.4221 4.95582 34.533 4.86548 34.6265C4.77514 34.7199 4.66669 34.7938 4.54675 34.8439C4.42682 34.8939 4.29792 34.919 4.16797 34.9175H1.8999V33.0126ZM4.33398 38.5485H1.8999V36.5105H4.33398C6.12398 36.5095 6.01498 38.5465 4.33398 38.5465V38.5485Z" fill="#222222"/>
<path d="M15.8588 37.4125C15.6858 36.2415 15.2138 35.9606 14.2698 35.5446C14.6161 35.3693 14.9072 35.1015 15.1106 34.7709C15.314 34.4402 15.4217 34.0597 15.4219 33.6715C15.4219 31.9885 14.0438 31.3035 12.5398 31.3035H8.33984V40.2345H12.5009C14.2779 40.2345 16.1608 39.4575 15.8588 37.4125ZM10.2399 33.0126H12.4219C12.5512 32.9994 12.6817 33.0126 12.8057 33.0516C12.9296 33.0907 13.0443 33.1547 13.1427 33.2396C13.2411 33.3245 13.3212 33.4286 13.3779 33.5455C13.4347 33.6624 13.4669 33.7897 13.4728 33.9196C13.4786 34.0494 13.458 34.179 13.412 34.3005C13.366 34.4221 13.2957 34.533 13.2053 34.6265C13.115 34.7199 13.0065 34.7938 12.8866 34.8439C12.7667 34.8939 12.6378 34.919 12.5078 34.9175H10.2399V33.0126ZM12.6738 38.5485H10.2399V36.5105H12.6738C14.4638 36.5095 14.3548 38.5465 12.6738 38.5465V38.5485Z" fill="#222222"/>
<path fill-rule="evenodd" clip-rule="evenodd" d="M24.1978 37.4125C24.0248 36.2415 23.5528 35.9606 22.6088 35.5446C22.9551 35.3693 23.2461 35.1015 23.4495 34.7709C23.6528 34.4402 23.7606 34.0597 23.7607 33.6715C23.7607 31.9885 22.3827 31.3035 20.8787 31.3035H16.6787V40.2345H20.8397C22.6167 40.2345 24.4998 39.4575 24.1978 37.4125ZM18.5787 33.0126H20.7607C20.89 32.9994 21.0206 33.0126 21.1445 33.0516C21.2685 33.0907 21.3832 33.1547 21.4816 33.2396C21.58 33.3245 21.66 33.4286 21.7168 33.5455C21.7736 33.6624 21.8059 33.7897 21.8118 33.9196C21.8176 34.0494 21.7968 34.179 21.7509 34.3005C21.7049 34.4221 21.6345 34.533 21.5442 34.6265C21.4538 34.7199 21.3454 34.7938 21.2255 34.8439C21.1055 34.8939 20.9766 34.919 20.8467 34.9175H18.5787V33.0126ZM21.0127 38.5485H18.5787V36.5105H21.0127C22.8017 36.5095 22.6927 38.5465 21.0127 38.5465V38.5485Z" fill="#222222"/>
<path d="M28.4059 39.1503C28.2165 39.6034 27.8577 39.9646 27.4059 40.1572C27.1722 40.2558 26.921 40.3066 26.6674 40.3066C26.4137 40.3066 26.1626 40.2558 25.9288 40.1572C25.7065 40.0636 25.5045 39.9277 25.3339 39.7572C25.1632 39.5847 25.0274 39.3811 24.9338 39.1572C24.838 38.9268 24.7886 38.6798 24.7886 38.4303C24.7886 38.1808 24.838 37.9336 24.9338 37.7032C25.1232 37.2501 25.482 36.8888 25.9338 36.6963C26.1677 36.5976 26.419 36.5466 26.6729 36.5466C26.9267 36.5466 27.178 36.5976 27.4119 36.6963C27.8611 36.8863 28.2174 37.2456 28.4038 37.6963C28.4999 37.9266 28.5493 38.1737 28.5493 38.4232C28.5493 38.6728 28.4999 38.9199 28.4038 39.1503H28.4059ZM28.2058 37.7712C28.1247 37.574 28.0065 37.3941 27.8578 37.2412C27.7084 37.089 27.5304 36.9681 27.3339 36.8853C27.0252 36.7535 26.684 36.7178 26.3547 36.7827C26.0255 36.8476 25.7234 37.0102 25.4878 37.2493C25.2588 37.4888 25.1037 37.7893 25.0411 38.1147C24.9785 38.4402 25.0111 38.7768 25.1349 39.0842C25.2147 39.2822 25.3329 39.4623 25.4828 39.6143C25.6335 39.766 25.8126 39.8866 26.0099 39.9692C26.3185 40.1011 26.6595 40.137 26.9888 40.0723C27.318 40.0075 27.6202 39.8451 27.8558 39.6062C28.0055 39.4527 28.1245 39.2722 28.2068 39.0742C28.3755 38.6573 28.3755 38.1912 28.2068 37.7743L28.2058 37.7712ZM27.4498 38.4332C27.3684 38.5349 27.2604 38.6121 27.1378 38.6562L27.6259 39.3733H27.1118L26.6858 38.7292H26.3379V39.3733H25.8969V37.3733H26.7848C26.9896 37.3626 27.1918 37.4241 27.3558 37.5472C27.4266 37.6061 27.4828 37.6808 27.5198 37.7651C27.5567 37.8495 27.5735 37.9412 27.5688 38.0332C27.5768 38.1768 27.5351 38.3188 27.4508 38.4353L27.4498 38.4332ZM27.0288 37.8333C26.9528 37.7804 26.8612 37.7547 26.7688 37.7603H26.3379V38.3473H26.7798C26.8715 38.3536 26.9622 38.3249 27.0338 38.2672C27.0628 38.2407 27.0858 38.2083 27.101 38.172C27.1161 38.1357 27.1233 38.0965 27.1218 38.0573C27.1251 38.0156 27.1184 37.9738 27.1024 37.9352C27.0864 37.8966 27.0615 37.8623 27.0298 37.8352L27.0288 37.8333Z" fill="#222222"/>
<path d="M59.2129 25.8566H63.1129L56.6529 9.09155H52.1759L45.6909 25.8566H49.6119L50.6659 22.9656H58.1559L59.2129 25.8566ZM54.4129 12.1836L57.1769 19.8766H51.6229L54.4129 12.1836ZM69.3429 18.3666H73.8429V16.3766H69.3429V11.4766H67.1559V16.3766H62.6319V18.3626H67.1559V23.4626H69.3429V18.3666Z" fill="#222222"/>
<path d="M46.3389 38.1795H47.7179V34.7115C47.8804 34.5287 48.0794 34.382 48.3021 34.2809C48.5248 34.1798 48.7663 34.1265 49.0109 34.1245C49.1383 34.1222 49.2657 34.1333 49.3909 34.1575V32.8115C49.0682 32.8225 48.7517 32.903 48.463 33.0474C48.1743 33.1919 47.9202 33.3969 47.7179 33.6485V32.9315H46.3389V38.1795ZM53.4009 38.1795H54.7809V34.7895C54.7809 33.2795 53.6809 32.8015 52.4889 32.8015C51.6497 32.7882 50.8346 33.0819 50.1969 33.6275L50.7179 34.5505C51.1292 34.1537 51.6783 33.9318 52.2499 33.9315C52.9499 33.9315 53.4019 34.2795 53.4019 34.8115V35.5395C53.1879 35.3185 52.9284 35.1467 52.6414 35.0361C52.3544 34.9254 52.0468 34.8784 51.7399 34.8985C51.5076 34.876 51.2732 34.9027 51.052 34.9768C50.8307 35.0509 50.6275 35.1707 50.4557 35.3286C50.2838 35.4864 50.1471 35.6786 50.0544 35.8928C49.9618 36.1069 49.9152 36.3382 49.9179 36.5715C49.9187 36.8066 49.967 37.0392 50.0599 37.2552C50.1528 37.4713 50.2882 37.6664 50.4583 37.8288C50.6283 37.9913 50.8293 38.1178 51.0494 38.2007C51.2694 38.2836 51.5039 38.3213 51.7389 38.3115C52.0479 38.324 52.3561 38.2704 52.6427 38.1541C52.9294 38.0379 53.1878 37.8618 53.4009 37.6375V38.1795ZM53.4009 36.9195C53.2623 37.0739 53.0908 37.1951 52.8989 37.274C52.7071 37.353 52.4999 37.3877 52.2929 37.3755C51.7499 37.3755 51.3039 37.0935 51.3039 36.6045C51.3039 36.1155 51.7499 35.8115 52.2929 35.8115C52.4999 35.7993 52.7071 35.834 52.8989 35.913C53.0908 35.9919 53.2623 36.1131 53.4009 36.2675V36.9195ZM57.9099 38.3115C58.3221 38.343 58.7316 38.2232 59.0619 37.9745L58.7689 36.9315C58.6315 37.0352 58.4629 37.0889 58.2909 37.0835C57.9909 37.0835 57.8129 36.8335 57.8129 36.5075V34.1395H58.8779V32.9335H57.8119V31.4995H56.4179V32.9335H55.5489V34.1395H56.4179V36.8775C56.3973 37.076 56.4222 37.2765 56.4908 37.4639C56.5594 37.6513 56.6698 37.8205 56.8137 37.9588C56.9576 38.0971 57.1311 38.2007 57.321 38.2618C57.511 38.323 57.7124 38.3399 57.9099 38.3115ZM60.5099 32.1625C60.6184 32.1626 60.7258 32.1414 60.8261 32.0999C60.9264 32.0584 61.0175 31.9976 61.0942 31.9209C61.171 31.8441 61.2318 31.753 61.2733 31.6527C61.3147 31.5525 61.336 31.445 61.3359 31.3365C61.336 31.228 61.3147 31.1205 61.2733 31.0202C61.2318 30.92 61.171 30.8289 61.0942 30.7521C61.0175 30.6754 60.9264 30.6146 60.8261 30.5731C60.7258 30.5316 60.6184 30.5104 60.5099 30.5105C60.2913 30.5121 60.0821 30.5996 59.9275 30.7542C59.773 30.9087 59.6854 31.1179 59.6839 31.3365C59.6859 31.554 59.7732 31.7621 59.9268 31.9162C60.0805 32.0702 60.2883 32.1579 60.5059 32.1605L60.5099 32.1625ZM59.8179 38.1795H61.1979V32.9315H59.8179V38.1795ZM66.1089 38.1795H67.4889V34.4795C67.5127 34.251 67.4847 34.0202 67.407 33.804C67.3292 33.5879 67.2036 33.3921 67.0396 33.2313C66.8756 33.0705 66.6774 32.9488 66.4598 32.8752C66.2422 32.8016 66.0108 32.7782 65.7829 32.8065C65.4361 32.8016 65.0924 32.872 64.7755 33.0127C64.4585 33.1534 64.1758 33.3611 63.9469 33.6215V32.9375H62.5669V38.1855H63.9469V34.6545C64.0842 34.4644 64.2645 34.3092 64.4729 34.2017C64.6814 34.0942 64.9123 34.0372 65.1469 34.0355C65.2794 34.0155 65.4148 34.0271 65.5421 34.0693C65.6693 34.1116 65.7848 34.1833 65.879 34.2786C65.9733 34.374 66.0437 34.4902 66.0845 34.6179C66.1253 34.7456 66.1354 34.8812 66.1139 35.0135L66.1089 38.1795ZM68.7489 39.5265C69.3708 40.073 70.1822 40.3537 71.0089 40.3085C72.3019 40.3085 73.8449 39.8195 73.8449 37.8205V32.9315H72.4569V33.6055C72.2675 33.3557 72.0227 33.1535 71.7417 33.0146C71.4607 32.8758 71.1513 32.8042 70.8379 32.8055C69.5129 32.8055 68.5239 33.7615 68.5239 35.4785C68.5239 37.2275 69.5239 38.1515 70.8379 38.1515C71.1532 38.1481 71.4634 38.0718 71.7443 37.9285C72.0252 37.7852 72.2691 37.5788 72.4569 37.3255V37.8575C72.4645 38.044 72.4313 38.23 72.3597 38.4023C72.288 38.5747 72.1796 38.7294 72.042 38.8555C71.9045 38.9817 71.741 39.0763 71.5631 39.1328C71.3851 39.1893 71.197 39.2062 71.0119 39.1825C70.7073 39.2004 70.4025 39.1514 70.119 39.0387C69.8354 38.926 69.5801 38.7526 69.3709 38.5305L68.7489 39.5265ZM72.4489 36.3215C72.3093 36.5041 72.1304 36.6529 71.9254 36.7568C71.7204 36.8607 71.4946 36.917 71.2649 36.9215C71.0791 36.9262 70.8946 36.8911 70.7236 36.8185C70.5526 36.7459 70.3991 36.6374 70.2735 36.5005C70.148 36.3636 70.0532 36.2013 69.9957 36.0247C69.9381 35.848 69.9191 35.6611 69.9399 35.4765C69.9191 35.2919 69.9381 35.105 69.9957 34.9283C70.0532 34.7517 70.148 34.5894 70.2735 34.4525C70.3991 34.3155 70.5526 34.2071 70.7236 34.1345C70.8946 34.0619 71.0791 34.0268 71.2649 34.0315C71.495 34.034 71.7215 34.0894 71.9268 34.1934C72.1322 34.2975 72.3108 34.4473 72.4489 34.6315V36.3215Z" fill="#222222"/>
<path d="M38.2451 48.9646V0.80249" stroke="#222222"/>
</svg>
