<svg width="204" height="24" viewBox="0 0 204 24" fill="none" xmlns="http://www.w3.org/2000/svg">
<path d="M30.6309 12.5589C30.6346 13.728 30.2914 14.8719 29.6446 15.8458C28.9978 16.8197 28.0766 17.5798 26.9976 18.0298C25.9186 18.4798 24.7303 18.5995 23.5832 18.3737C22.4361 18.1479 21.3818 17.5869 20.5538 16.7615C19.7257 15.9362 19.1613 14.8837 18.9318 13.7373C18.7023 12.5909 18.8182 11.4023 19.2647 10.3218C19.7112 9.24133 20.4683 8.31766 21.4402 7.66774C22.412 7.01783 23.5548 6.67091 24.7239 6.6709C25.5014 6.65854 26.2735 6.80225 26.9945 7.09353C27.7155 7.38481 28.3708 7.81774 28.9215 8.36672C29.4723 8.9157 29.9073 9.56956 30.2009 10.2896C30.4945 11.0097 30.6407 11.7813 30.6309 12.5589ZM28.0449 12.5589C28.0765 12.1034 28.0141 11.6463 27.8615 11.2159C27.709 10.7855 27.4695 10.3912 27.158 10.0573C26.8465 9.72344 26.4697 9.45722 26.0509 9.2752C25.6322 9.09318 25.1805 8.99925 24.7239 8.99925C24.2673 8.99925 23.8155 9.09318 23.3968 9.2752C22.978 9.45722 22.6012 9.72344 22.2897 10.0573C21.9782 10.3912 21.7388 10.7855 21.5862 11.2159C21.4336 11.6463 21.3712 12.1034 21.4029 12.5589C21.3712 13.0144 21.4336 13.4715 21.5862 13.9019C21.7388 14.3323 21.9782 14.7266 22.2897 15.0605C22.6012 15.3944 22.978 15.6606 23.3968 15.8426C23.8155 16.0246 24.2673 16.1186 24.7239 16.1186C25.1805 16.1186 25.6322 16.0246 26.0509 15.8426C26.4697 15.6606 26.8465 15.3944 27.158 15.0605C27.4695 14.7266 27.709 14.3323 27.8615 13.9019C28.0141 13.4715 28.0765 13.0144 28.0449 12.5589Z" fill="#222222"/>
<path d="M43.374 12.5589C43.3778 13.728 43.0345 14.8719 42.3878 15.8458C41.741 16.8197 40.8198 17.5798 39.7407 18.0298C38.6617 18.4798 37.4734 18.5995 36.3263 18.3737C35.1792 18.1479 34.1249 17.5869 33.2969 16.7615C32.4689 15.9362 31.9044 14.8837 31.675 13.7373C31.4455 12.5909 31.5614 11.4023 32.0079 10.3218C32.4544 9.24133 33.2115 8.31766 34.1833 7.66774C35.1551 7.01783 36.2979 6.67091 37.467 6.6709C38.2446 6.65854 39.0167 6.80225 39.7377 7.09353C40.4587 7.38481 41.114 7.81774 41.6647 8.36672C42.2154 8.9157 42.6505 9.56956 42.9441 10.2896C43.2377 11.0097 43.3839 11.7813 43.374 12.5589ZM40.788 12.5589C40.8197 12.1034 40.7573 11.6463 40.6047 11.2159C40.4521 10.7855 40.2127 10.3912 39.9012 10.0573C39.5897 9.72344 39.2129 9.45722 38.7941 9.2752C38.3754 9.09318 37.9236 8.99925 37.467 8.99925C37.0104 8.99925 36.5587 9.09318 36.14 9.2752C35.7212 9.45722 35.3444 9.72344 35.0329 10.0573C34.7214 10.3912 34.4819 10.7855 34.3294 11.2159C34.1768 11.6463 34.1144 12.1034 34.146 12.5589C34.1144 13.0144 34.1768 13.4715 34.3294 13.9019C34.4819 14.3323 34.7214 14.7266 35.0329 15.0605C35.3444 15.3944 35.7212 15.6606 36.14 15.8426C36.5587 16.0246 37.0104 16.1186 37.467 16.1186C37.9236 16.1186 38.3754 16.0246 38.7941 15.8426C39.2129 15.6606 39.5897 15.3944 39.9012 15.0605C40.2127 14.7266 40.4521 14.3323 40.6047 13.9019C40.7573 13.4715 40.8197 13.0144 40.788 12.5589Z" fill="#222222"/>
<path d="M55.5839 7.02734V17.5973C55.5839 21.9453 53.0199 23.7213 49.9839 23.7213C48.8673 23.7283 47.7741 23.4018 46.8443 22.7836C45.9145 22.1654 45.1904 21.2836 44.7649 20.2513L47.0159 19.3143C47.2467 19.9176 47.652 20.4385 48.1801 20.8106C48.7081 21.1826 49.3351 21.389 49.9809 21.4033C51.9219 21.4033 53.1239 20.2033 53.1239 17.9523V17.1053H53.0339C52.6455 17.5404 52.167 17.8855 51.6316 18.1166C51.0962 18.3477 50.5168 18.4592 49.9339 18.4433C48.4167 18.3777 46.9834 17.7289 45.9331 16.6321C44.8827 15.5354 44.2964 14.0754 44.2964 12.5568C44.2964 11.0382 44.8827 9.5783 45.9331 8.48155C46.9834 7.38479 48.4167 6.73594 49.9339 6.67034C50.5146 6.65654 51.0915 6.7669 51.6261 6.99402C52.1607 7.22114 52.6407 7.5598 53.0339 7.98734H53.1239V7.02934H55.5789L55.5839 7.02734ZM53.3119 12.5803C53.3489 12.1366 53.2962 11.6899 53.1569 11.2669C53.0176 10.8439 52.7945 10.4533 52.5011 10.1184C52.2076 9.78345 51.8496 9.51105 51.4486 9.31742C51.0476 9.12379 50.6117 9.01289 50.1669 8.99134C49.7144 9.00687 49.2695 9.11262 48.8585 9.30238C48.4474 9.49215 48.0784 9.7621 47.773 10.0964C47.4677 10.4307 47.2322 10.8226 47.0804 11.2492C46.9285 11.6757 46.8634 12.1283 46.8889 12.5803C46.8663 13.0296 46.9337 13.4789 47.0871 13.9018C47.2405 14.3247 47.4767 14.7127 47.7821 15.0431C48.0874 15.3735 48.4556 15.6395 48.8651 15.8257C49.2746 16.0119 49.7172 16.1145 50.1669 16.1273C50.609 16.1091 51.043 16.0018 51.4427 15.812C51.8425 15.6221 52.1999 15.3536 52.4935 15.0225C52.7871 14.6914 53.0109 14.3044 53.1515 13.8848C53.2921 13.4652 53.3467 13.0215 53.3119 12.5803Z" fill="#222222"/>
<path d="M59.6328 0.831299V18.0863H57.1108V0.831299H59.6328Z" fill="#222222"/>
<path d="M69.4608 14.4962L71.4679 15.8342C70.9298 16.641 70.1999 17.3017 69.3437 17.7571C68.4874 18.2124 67.5316 18.4482 66.5618 18.4432C65.7876 18.4544 65.0191 18.3095 64.3022 18.017C63.5852 17.7245 62.9346 17.2904 62.3892 16.7408C61.8438 16.1912 61.4148 15.5373 61.1278 14.8181C60.8408 14.099 60.7017 13.3294 60.7188 12.5552C60.6799 11.7999 60.7944 11.0445 61.0554 10.3346C61.3164 9.62477 61.7185 8.97512 62.2374 8.42489C62.7564 7.87466 63.3814 7.43525 64.0748 7.13316C64.7681 6.83108 65.5155 6.67258 66.2719 6.66724C67.3947 6.69856 68.4806 7.07492 69.382 7.74516C70.2834 8.41539 70.9565 9.34698 71.3098 10.4132L71.5779 11.0822L63.7069 14.3422C63.9496 14.8909 64.3513 15.3542 64.8601 15.6722C65.3689 15.9902 65.9613 16.1484 66.5609 16.1262C67.1441 16.1296 67.7183 15.9811 68.2267 15.6953C68.7352 15.4095 69.1605 14.9963 69.4608 14.4962ZM63.2829 12.3782L68.5438 10.1932C68.3424 9.79368 68.0278 9.46227 67.6392 9.24034C67.2507 9.01841 66.8053 8.91578 66.3588 8.94524C65.9302 8.96482 65.5097 9.06963 65.1219 9.25355C64.7342 9.43747 64.387 9.69681 64.1006 10.0164C63.8143 10.336 63.5945 10.7095 63.454 11.115C63.3136 11.5205 63.2554 11.95 63.2829 12.3782Z" fill="#222222"/>
<path d="M9.272 11.0275V8.52952H17.69C17.7776 9.02732 17.8195 9.53209 17.815 10.0375C17.8855 12.1931 17.1091 14.2905 15.652 15.8805C14.8316 16.7353 13.8389 17.4059 12.7396 17.848C11.6404 18.29 10.4598 18.4934 9.276 18.4445C6.83833 18.4461 4.49813 17.4875 2.76204 15.7763C1.02594 14.0651 0.0336552 11.739 0 9.30152C0.0339135 6.86443 1.02618 4.53872 2.76203 2.82776C4.49788 1.11681 6.83767 0.158235 9.275 0.159523C10.4344 0.141304 11.5857 0.354728 12.6615 0.787283C13.7373 1.21984 14.7159 1.86282 15.54 2.67852L13.777 4.44152C12.5704 3.2776 10.9534 2.63655 9.277 2.65752C8.40825 2.65705 7.54807 2.82919 6.74641 3.16395C5.94476 3.49871 5.2176 3.98941 4.60717 4.60755C3.99675 5.2257 3.51523 5.95897 3.19058 6.76477C2.86592 7.57057 2.70461 8.43285 2.716 9.30152C2.70461 10.1699 2.8658 11.0318 3.1902 11.8373C3.51461 12.6429 3.99577 13.376 4.60577 13.9941C5.21577 14.6122 5.94245 15.1029 6.74365 15.4379C7.54484 15.7729 8.40459 15.9455 9.273 15.9455C10.1275 15.9803 10.9799 15.8356 11.775 15.5205C12.57 15.2055 13.2902 14.7272 13.889 14.1165C14.6719 13.2656 15.1475 12.1771 15.24 11.0245L9.272 11.0275Z" fill="#222222"/>
<path d="M199.922 17.2449L196.916 15.6179C196.766 15.5355 196.597 15.4923 196.426 15.4923C196.255 15.4923 196.086 15.5355 195.936 15.6179L192.936 17.2449C192.759 17.3364 192.559 17.3762 192.361 17.3597C192.162 17.3432 191.972 17.271 191.812 17.1514C191.652 17.0318 191.529 16.8696 191.458 16.6835C191.386 16.4973 191.368 16.2947 191.406 16.0989L191.793 13.7799L191.98 12.6549C192.009 12.4822 191.997 12.3052 191.945 12.138C191.893 11.9709 191.802 11.8184 191.68 11.6929L191.266 11.2819L189.241 9.25387C189.101 9.11155 189.002 8.9337 188.955 8.73942C188.908 8.54514 188.915 8.34178 188.975 8.15117C189.035 7.96056 189.146 7.7899 189.296 7.65754C189.446 7.52517 189.629 7.43609 189.825 7.39987L193.185 6.89987C193.356 6.87292 193.517 6.80461 193.655 6.7009C193.794 6.59719 193.904 6.46122 193.978 6.30487L195.481 3.16387C195.565 2.98348 195.698 2.83075 195.866 2.72372C196.033 2.61669 196.228 2.55981 196.427 2.55981C196.625 2.55981 196.82 2.61669 196.988 2.72372C197.155 2.83075 197.288 2.98348 197.372 3.16387L198.172 4.83787L198.872 6.29987C198.946 6.45653 199.057 6.5927 199.195 6.69643C199.334 6.80017 199.496 6.86831 199.667 6.89487L199.783 6.91387L203.027 7.39687C203.224 7.43324 203.406 7.52242 203.556 7.65484C203.706 7.78727 203.816 7.95794 203.876 8.14853C203.936 8.33911 203.943 8.54243 203.896 8.73663C203.849 8.93084 203.75 9.10862 203.61 9.25087L201.18 11.6899C201.057 11.815 200.966 11.9674 200.914 12.1347C200.862 12.3019 200.85 12.4792 200.88 12.6519L201.453 16.0969C201.481 16.2505 201.476 16.4085 201.437 16.5598C201.398 16.711 201.326 16.8521 201.228 16.973C201.129 17.094 201.005 17.1921 200.864 17.2604C200.724 17.3288 200.57 17.3658 200.414 17.3689C200.242 17.3695 200.073 17.3268 199.922 17.2449ZM180.983 17.2449L177.977 15.6179C177.827 15.5355 177.658 15.4923 177.487 15.4923C177.316 15.4923 177.147 15.5355 176.997 15.6179L173.997 17.2449C173.82 17.3364 173.62 17.3762 173.422 17.3597C173.223 17.3432 173.033 17.271 172.873 17.1514C172.713 17.0318 172.59 16.8696 172.519 16.6835C172.447 16.4973 172.429 16.2947 172.467 16.0989L172.854 13.7799L173.041 12.6549C173.07 12.4822 173.058 12.3052 173.006 12.138C172.954 11.9709 172.863 11.8184 172.741 11.6929L172.332 11.2819L170.302 9.25387C170.162 9.11149 170.063 8.93356 170.016 8.73921C169.969 8.54486 169.976 8.34144 170.037 8.15081C170.097 7.96017 170.208 7.78954 170.358 7.65723C170.507 7.52492 170.69 7.43595 170.887 7.39987L174.247 6.89987C174.418 6.87292 174.579 6.80461 174.717 6.7009C174.856 6.59719 174.966 6.46122 175.04 6.30487L176.542 3.16387C176.626 2.98348 176.759 2.83075 176.927 2.72372C177.094 2.61669 177.289 2.55981 177.488 2.55981C177.686 2.55981 177.881 2.61669 178.049 2.72372C178.216 2.83075 178.349 2.98348 178.433 3.16387L179.233 4.83787L179.933 6.29987C180.007 6.45705 180.119 6.59354 180.259 6.6973C180.398 6.80106 180.561 6.86891 180.733 6.89487L180.848 6.91387L184.093 7.39687C184.29 7.43324 184.472 7.52242 184.622 7.65484C184.772 7.78727 184.882 7.95794 184.942 8.14853C185.002 8.33911 185.009 8.54243 184.962 8.73663C184.915 8.93084 184.816 9.10862 184.676 9.25087L182.246 11.6899C182.123 11.8147 182.032 11.9672 181.979 12.1345C181.927 12.3018 181.916 12.4792 181.946 12.6519L182.519 16.0969C182.547 16.2505 182.542 16.4085 182.503 16.5598C182.464 16.711 182.392 16.8521 182.294 16.973C182.195 17.094 182.071 17.1921 181.93 17.2604C181.79 17.3288 181.636 17.3658 181.48 17.3689C181.307 17.3704 181.136 17.3277 180.983 17.2449ZM162.044 17.2449L159.038 15.6179C158.888 15.5355 158.719 15.4923 158.548 15.4923C158.377 15.4923 158.208 15.5355 158.058 15.6179L155.058 17.2449C154.881 17.3364 154.681 17.3762 154.483 17.3597C154.284 17.3432 154.094 17.271 153.934 17.1514C153.774 17.0318 153.651 16.8696 153.58 16.6835C153.508 16.4973 153.49 16.2947 153.528 16.0989L153.915 13.7799L154.102 12.6549C154.131 12.4822 154.119 12.3052 154.067 12.138C154.015 11.9709 153.924 11.8184 153.802 11.6929L153.393 11.2819L151.366 9.25387C151.226 9.11149 151.127 8.93356 151.08 8.73921C151.033 8.54486 151.04 8.34144 151.101 8.15081C151.161 7.96017 151.272 7.78954 151.422 7.65723C151.571 7.52492 151.754 7.43595 151.951 7.39987L155.311 6.89987C155.482 6.87292 155.643 6.80461 155.781 6.7009C155.92 6.59719 156.03 6.46122 156.104 6.30487L157.603 3.16387C157.687 2.98348 157.82 2.83075 157.988 2.72372C158.155 2.61669 158.35 2.55981 158.549 2.55981C158.747 2.55981 158.942 2.61669 159.11 2.72372C159.277 2.83075 159.41 2.98348 159.494 3.16387L160.294 4.83787L160.994 6.29987C161.068 6.45647 161.179 6.5926 161.317 6.69633C161.456 6.80006 161.618 6.86823 161.789 6.89487L161.905 6.91387L165.15 7.39687C165.347 7.43324 165.529 7.52242 165.679 7.65484C165.829 7.78727 165.939 7.95794 165.999 8.14853C166.059 8.33911 166.066 8.54243 166.019 8.73663C165.972 8.93084 165.873 9.10862 165.733 9.25087L163.303 11.6899C163.18 11.8147 163.089 11.9672 163.036 12.1345C162.984 12.3018 162.973 12.4792 163.003 12.6519L163.576 16.0969C163.604 16.2505 163.599 16.4085 163.56 16.5598C163.521 16.711 163.449 16.8521 163.351 16.973C163.252 17.094 163.128 17.1921 162.987 17.2604C162.847 17.3288 162.693 17.3658 162.537 17.3689C162.365 17.3697 162.195 17.327 162.044 17.2449ZM143.105 17.2449L140.099 15.6179C139.949 15.5355 139.78 15.4923 139.609 15.4923C139.438 15.4923 139.269 15.5355 139.119 15.6179L136.119 17.2449C135.942 17.3364 135.742 17.3762 135.544 17.3597C135.345 17.3432 135.155 17.271 134.995 17.1514C134.835 17.0318 134.712 16.8696 134.641 16.6835C134.569 16.4973 134.551 16.2947 134.589 16.0989L134.976 13.7799L135.163 12.6549C135.192 12.4822 135.18 12.3052 135.128 12.138C135.076 11.9709 134.985 11.8184 134.863 11.6929L134.454 11.2819L132.424 9.25387C132.284 9.11155 132.185 8.9337 132.138 8.73942C132.091 8.54514 132.098 8.34178 132.158 8.15117C132.218 7.96056 132.329 7.7899 132.479 7.65754C132.629 7.52517 132.812 7.43609 133.008 7.39987L136.368 6.89987C136.54 6.87359 136.702 6.80548 136.841 6.70154C136.981 6.59761 137.092 6.46104 137.166 6.30387L138.666 3.16387C138.75 2.98348 138.883 2.83075 139.051 2.72372C139.218 2.61669 139.413 2.55981 139.612 2.55981C139.81 2.55981 140.005 2.61669 140.173 2.72372C140.34 2.83075 140.474 2.98348 140.557 3.16387L141.357 4.83787L142.057 6.29987C142.131 6.4571 142.243 6.59364 142.383 6.69741C142.522 6.80118 142.685 6.869 142.857 6.89487L142.972 6.91387L146.217 7.39687C146.414 7.43324 146.596 7.52242 146.746 7.65484C146.896 7.78727 147.006 7.95794 147.066 8.14853C147.126 8.33911 147.133 8.54243 147.086 8.73663C147.039 8.93084 146.94 9.10862 146.8 9.25087L144.366 11.6929C144.243 11.8177 144.152 11.9702 144.099 12.1375C144.047 12.3048 144.036 12.4822 144.066 12.6549L144.639 16.0999C144.667 16.2535 144.662 16.4115 144.623 16.5628C144.584 16.714 144.512 16.8551 144.414 16.976C144.315 17.097 144.191 17.1951 144.05 17.2634C143.91 17.3318 143.756 17.3688 143.6 17.3719C143.427 17.3719 143.257 17.3282 143.106 17.2449H143.105ZM124.166 17.2449L121.16 15.6179C121.01 15.5355 120.841 15.4923 120.67 15.4923C120.499 15.4923 120.33 15.5355 120.18 15.6179L117.18 17.2449C117.003 17.3364 116.803 17.3762 116.605 17.3597C116.406 17.3432 116.216 17.271 116.056 17.1514C115.896 17.0318 115.773 16.8696 115.702 16.6835C115.63 16.4973 115.612 16.2947 115.65 16.0989L116.037 13.7799L116.224 12.6549C116.253 12.4822 116.241 12.3052 116.189 12.138C116.137 11.9709 116.046 11.8184 115.924 11.6929L115.515 11.2819L113.485 9.25387C113.345 9.11175 113.246 8.93413 113.199 8.74006C113.152 8.54599 113.159 8.34278 113.218 8.15224C113.278 7.9617 113.388 7.791 113.538 7.65846C113.687 7.52592 113.87 7.43652 114.066 7.39987L117.426 6.89987C117.597 6.87292 117.758 6.80461 117.896 6.7009C118.035 6.59719 118.145 6.46122 118.219 6.30487L119.725 3.16387C119.809 2.98376 119.942 2.83131 120.11 2.72448C120.277 2.61765 120.471 2.56089 120.67 2.56089C120.869 2.56089 121.063 2.61765 121.231 2.72448C121.398 2.83131 121.531 2.98376 121.615 3.16387L122.415 4.83787L123.115 6.29987C123.189 6.4571 123.301 6.59364 123.441 6.69741C123.58 6.80118 123.743 6.869 123.915 6.89487L124.03 6.91387L127.275 7.39687C127.472 7.43324 127.654 7.52242 127.804 7.65484C127.954 7.78727 128.064 7.95794 128.124 8.14853C128.184 8.33911 128.191 8.54243 128.144 8.73663C128.097 8.93084 127.998 9.10862 127.858 9.25087L125.428 11.6899C125.305 11.8147 125.214 11.9672 125.161 12.1345C125.109 12.3018 125.098 12.4792 125.128 12.6519L125.701 16.0969C125.729 16.2505 125.724 16.4085 125.685 16.5598C125.646 16.711 125.574 16.8521 125.476 16.973C125.377 17.094 125.253 17.1921 125.112 17.2604C124.972 17.3288 124.818 17.3658 124.662 17.3689C124.489 17.3701 124.318 17.3275 124.166 17.2449Z" fill="#EB1C24"/>
<path d="M83.8174 10.6848L84.4736 4.90356H90.8486V6.78638H86.3252L86.0439 9.23169C86.5804 8.94523 87.1507 8.802 87.7549 8.802C88.8382 8.802 89.6872 9.13794 90.3018 9.80981C90.9163 10.4817 91.2236 11.4218 91.2236 12.6301C91.2236 13.3645 91.0674 14.0234 90.7549 14.6067C90.4476 15.1848 90.0049 15.6353 89.4268 15.9583C88.8486 16.276 88.1663 16.4348 87.3799 16.4348C86.6924 16.4348 86.0544 16.2968 85.4658 16.0208C84.8773 15.7395 84.4111 15.3463 84.0674 14.8411C83.7288 14.3359 83.5492 13.7603 83.5283 13.1145H85.7627C85.8096 13.5885 85.9736 13.9583 86.2549 14.2239C86.5413 14.4843 86.9137 14.6145 87.3721 14.6145C87.8825 14.6145 88.2757 14.4322 88.5518 14.0676C88.8278 13.6978 88.9658 13.177 88.9658 12.5051C88.9658 11.8593 88.807 11.3645 88.4893 11.0208C88.1715 10.677 87.721 10.5051 87.1377 10.5051C86.6012 10.5051 86.1663 10.6458 85.833 10.927L85.6143 11.1301L83.8174 10.6848ZM92.8799 15.1692C92.8799 14.8098 92.9997 14.5181 93.2393 14.2942C93.484 14.0702 93.7887 13.9583 94.1533 13.9583C94.5231 13.9583 94.8278 14.0702 95.0674 14.2942C95.3122 14.5181 95.4346 14.8098 95.4346 15.1692C95.4346 15.5234 95.3148 15.8124 95.0752 16.0364C94.8356 16.2551 94.5283 16.3645 94.1533 16.3645C93.7835 16.3645 93.4788 16.2551 93.2393 16.0364C92.9997 15.8124 92.8799 15.5234 92.8799 15.1692ZM104.981 11.5754C104.981 13.1484 104.656 14.3515 104.005 15.1848C103.354 16.0181 102.401 16.4348 101.146 16.4348C99.9059 16.4348 98.958 16.026 98.3018 15.2083C97.6455 14.3905 97.3096 13.2187 97.2939 11.6926V9.59888C97.2939 8.01034 97.6221 6.80461 98.2783 5.98169C98.9398 5.15877 99.8903 4.74731 101.13 4.74731C102.369 4.74731 103.317 5.15617 103.974 5.97388C104.63 6.78638 104.966 7.95565 104.981 9.48169V11.5754ZM102.724 9.27856C102.724 8.33586 102.593 7.65096 102.333 7.22388C102.078 6.79159 101.677 6.57544 101.13 6.57544C100.599 6.57544 100.205 6.78117 99.9502 7.19263C99.7002 7.59888 99.5674 8.2369 99.5518 9.10669V11.8723C99.5518 12.7994 99.6768 13.4895 99.9268 13.9426C100.182 14.3905 100.588 14.6145 101.146 14.6145C101.698 14.6145 102.096 14.3984 102.341 13.9661C102.586 13.5338 102.713 12.8723 102.724 11.9817V9.27856Z" fill="#222222"/>
</svg>
