<svg width="82" height="453" xmlns="http://www.w3.org/2000/svg" fill="none">
 <title>Drawing</title>

 <g id="Layer_1">
  <title>Layer 1</title>
  <g id="svg_1">
   <path id="svg_2" opacity="0.1" d="m55.774,366.6345l0.228,0.974l-0.018,-1.952l-0.21,0.978zm-54.774,-11.781l-1,0l0,0.808l0.7897,0.17l0.2103,-0.978zm0,-23.562l0.2791,-0.96l-1.2791,-0.372l0,1.332l1,0zm80.019,23.256l1,0l0,-0.751l-0.721,-0.209l-0.279,0.96zm0,23.715l0.23,0.973l0.77,-0.182l0,-0.791l-1,0zm-50.49,11.934l-0.23,-0.973l-0.0056,1.945l0.2356,-0.972zm50.49,12.24l1,0l0,-0.787l-0.764,-0.185l-0.236,0.972zm0,24.327l0.276,0.961l0.724,-0.207l0,-0.754l-1,0zm-80.019,22.95l-1,0l0,1.327l1.2757,-0.366l-0.2757,-0.961zm0,-24.633l-0.2056,-0.979l-0.7944,0.167l0,0.812l1,0zm54.621,-11.475l0.206,0.979l0.028,-1.951l-0.234,0.972zm-54.621,-13.158l-1,0l0,0.788l0.7658,0.184l0.2342,-0.972zm0,-20.961l-0.2284,-0.974l-0.7716,0.182l0,0.792l1,0zm54.984,-13.83l-54.7737,-11.781l-0.4206,1.956l54.7743,11.781l0.42,-1.956zm-53.984,-10.803l0,-23.562l-2,0l0,23.562l2,0zm-1.2791,-22.602l80.0191,23.256l0.558,-1.92l-80.0189,-23.256l-0.5582,1.92zm79.2981,22.296l0,23.715l2,0l0,-23.715l-2,0zm0.77,22.742l-50.49,11.934l0.46,1.946l50.49,-11.934l-0.46,-1.946zm-50.4956,13.879l50.4896,12.24l0.472,-1.944l-50.4904,-12.24l-0.4712,1.944zm49.7256,11.268l0,24.327l2,0l0,-24.327l-2,0zm0.724,23.366l-80.0187,22.95l0.5514,1.922l80.0193,-22.95l-0.552,-1.922zm-78.743,23.911l0,-24.633l-2,0l0,24.633l2,0zm-0.7944,-23.654l54.6214,-11.475l-0.412,-1.958l-54.6206,11.475l0.4112,1.958zm54.6494,-13.426l-54.6208,-13.158l-0.4684,1.944l54.6212,13.158l0.468,-1.944zm-53.855,-12.186l0,-20.961l-2,0l0,20.961l2,0zm-0.7716,-19.987l54.7736,-12.852l-0.456,-1.948l-54.7744,12.852l0.4568,1.948z" fill="white"/>
   <path id="svg_3" opacity="0.1" d="m55.774,202.6345l0.228,0.974l-0.018,-1.952l-0.21,0.978zm-54.774,-11.781l-1,0l0,0.808l0.7897,0.17l0.2103,-0.978zm0,-23.562l0.2791,-0.96l-1.2791,-0.372l0,1.332l1,0zm80.019,23.256l1,0l0,-0.751l-0.721,-0.209l-0.279,0.96zm0,23.715l0.23,0.973l0.77,-0.182l0,-0.791l-1,0zm-50.49,11.934l-0.23,-0.973l-0.0056,1.945l0.2356,-0.972zm50.49,12.24l1,0l0,-0.787l-0.764,-0.185l-0.236,0.972zm0,24.327l0.276,0.961l0.724,-0.207l0,-0.754l-1,0zm-80.019,22.95l-1,0l0,1.327l1.2757,-0.366l-0.2757,-0.961zm0,-24.633l-0.2056,-0.979l-0.7944,0.167l0,0.812l1,0zm54.621,-11.475l0.206,0.979l0.028,-1.951l-0.234,0.972zm-54.621,-13.158l-1,0l0,0.788l0.7658,0.184l0.2342,-0.972zm0,-20.961l-0.2284,-0.974l-0.7716,0.182l0,0.792l1,0zm54.984,-13.83l-54.7737,-11.781l-0.4206,1.956l54.7743,11.781l0.42,-1.956zm-53.984,-10.803l0,-23.562l-2,0l0,23.562l2,0zm-1.2791,-22.602l80.0191,23.256l0.558,-1.92l-80.0189,-23.256l-0.5582,1.92zm79.2981,22.296l0,23.715l2,0l0,-23.715l-2,0zm0.77,22.742l-50.49,11.934l0.46,1.946l50.49,-11.934l-0.46,-1.946zm-50.4956,13.879l50.4896,12.24l0.472,-1.944l-50.4904,-12.24l-0.4712,1.944zm49.7256,11.268l0,24.327l2,0l0,-24.327l-2,0zm0.724,23.366l-80.0187,22.95l0.5514,1.922l80.0193,-22.95l-0.552,-1.922zm-78.743,23.911l0,-24.633l-2,0l0,24.633l2,0zm-0.7944,-23.654l54.6214,-11.475l-0.412,-1.958l-54.6206,11.475l0.4112,1.958zm54.6494,-13.426l-54.6208,-13.158l-0.4684,1.944l54.6212,13.158l0.468,-1.944zm-53.855,-12.186l0,-20.961l-2,0l0,20.961l2,0zm-0.7716,-19.987l54.7736,-12.852l-0.456,-1.948l-54.7744,12.852l0.4568,1.948z" fill="#222222"/>
   <path id="svg_4" opacity="0.1" d="m55.774,202.6345l0.228,0.974l-0.018,-1.952l-0.21,0.978zm-54.774,-11.781l-1,0l0,0.808l0.7897,0.17l0.2103,-0.978zm0,-23.562l0.2791,-0.96l-1.2791,-0.372l0,1.332l1,0zm80.019,23.256l1,0l0,-0.751l-0.721,-0.209l-0.279,0.96zm0,23.715l0.23,0.973l0.77,-0.182l0,-0.791l-1,0zm-50.49,11.934l-0.23,-0.973l-0.0056,1.945l0.2356,-0.972zm50.49,12.24l1,0l0,-0.787l-0.764,-0.185l-0.236,0.972zm0,24.327l0.276,0.961l0.724,-0.207l0,-0.754l-1,0zm-80.019,22.95l-1,0l0,1.327l1.2757,-0.366l-0.2757,-0.961zm0,-24.633l-0.2056,-0.979l-0.7944,0.167l0,0.812l1,0zm54.621,-11.475l0.206,0.979l0.028,-1.951l-0.234,0.972zm-54.621,-13.158l-1,0l0,0.788l0.7658,0.184l0.2342,-0.972zm0,-20.961l-0.2284,-0.974l-0.7716,0.182l0,0.792l1,0zm54.984,-13.83l-54.7737,-11.781l-0.4206,1.956l54.7743,11.781l0.42,-1.956zm-53.984,-10.803l0,-23.562l-2,0l0,23.562l2,0zm-1.2791,-22.602l80.0191,23.256l0.558,-1.92l-80.0189,-23.256l-0.5582,1.92zm79.2981,22.296l0,23.715l2,0l0,-23.715l-2,0zm0.77,22.742l-50.49,11.934l0.46,1.946l50.49,-11.934l-0.46,-1.946zm-50.4956,13.879l50.4896,12.24l0.472,-1.944l-50.4904,-12.24l-0.4712,1.944zm49.7256,11.268l0,24.327l2,0l0,-24.327l-2,0zm0.724,23.366l-80.0187,22.95l0.5514,1.922l80.0193,-22.95l-0.552,-1.922zm-78.743,23.911l0,-24.633l-2,0l0,24.633l2,0zm-0.7944,-23.654l54.6214,-11.475l-0.412,-1.958l-54.6206,11.475l0.4112,1.958zm54.6494,-13.426l-54.6208,-13.158l-0.4684,1.944l54.6212,13.158l0.468,-1.944zm-53.855,-12.186l0,-20.961l-2,0l0,20.961l2,0zm-0.7716,-19.987l54.7736,-12.852l-0.456,-1.948l-54.7744,12.852l0.4568,1.948z" fill="white"/>
   <path id="svg_5" opacity="0.1" d="m55.774,38.6345l0.228,0.9736l-0.018,-1.9512l-0.21,0.9776zm-54.774,-11.781l-1,0l0,0.8078l0.7897,0.1699l0.2103,-0.9777zm0,-23.56196l0.2791,-0.96027l-1.2791,-0.37174l0,1.33201l1,0zm80.019,23.25596l1,0l0,-0.7507l-0.721,-0.2095l-0.279,0.9602zm0,23.715l0.23,0.9732l0.77,-0.182l0,-0.7912l-1,0zm-50.49,11.934l-0.23,-0.9731l-0.0056,1.945l0.2356,-0.9719zm50.49,12.24l1,0l0,-0.7865l-0.764,-0.1853l-0.236,0.9718zm0,24.327l0.276,0.9613l0.724,-0.2078l0,-0.7535l-1,0zm-80.019,22.95l-1,0l0,1.327l1.2757,-0.366l-0.2757,-0.961zm0,-24.633l-0.2056,-0.9786l-0.7944,0.1669l0,0.8117l1,0zm54.621,-11.475l0.206,0.9787l0.028,-1.9509l-0.234,0.9722zm-54.621,-13.158l-1,0l0,0.7877l0.7658,0.1845l0.2342,-0.9722zm0,-20.961l-0.2284,-0.9735l-0.7716,0.181l0,0.7925l1,0zm54.984,-13.8296l-54.7737,-11.781l-0.4206,1.9553l54.7743,11.781l0.42,-1.9553zm-53.984,-10.8034l0,-23.56196l-2,0l0,23.56196l2,0zm-1.2791,-22.6017l80.0191,23.256l0.558,-1.9205l-80.0189,-23.25603l-0.5582,1.92053zm79.2981,22.2957l0,23.715l2,0l0,-23.715l-2,0zm0.77,22.7418l-50.49,11.9341l0.46,1.9463l50.49,-11.934l-0.46,-1.9464zm-50.4956,13.8791l50.4896,12.24l0.472,-1.9437l-50.4904,-12.24l-0.4712,1.9437zm49.7256,11.2681l0,24.327l2,0l0,-24.327l-2,0zm0.724,23.3658l-80.0187,22.9502l0.5514,1.922l80.0193,-22.9497l-0.552,-1.9225zm-78.743,23.9112l0,-24.633l-2,0l0,24.633l2,0zm-0.7944,-23.6543l54.6214,-11.475l-0.412,-1.9573l-54.6206,11.475l0.4112,1.9573zm54.6494,-13.4259l-54.6208,-13.158l-0.4684,1.9444l54.6212,13.158l0.468,-1.9444zm-53.855,-12.1858l0,-20.961l-2,0l0,20.961l2,0zm-0.7716,-19.9874l54.7736,-12.852l-0.456,-1.9471l-54.7744,12.852l0.4568,1.9471z" fill="#222222"/>
  </g>
  <g id="svg_6">
   <path id="svg_7" opacity="0.1" d="m59.7645,365.423l0.2284,0.9736l-0.0181,-1.9512l-0.2103,0.9776zm-54.774,-11.781l-1,0l0,0.8078l0.78972,0.1699l0.21028,-0.9777zm0,-23.56196l0.27909,-0.96027l-1.27909,-0.37174l0,1.33201l1,0zm80.019,23.25596l1,0l0,-0.7507l-0.7209,-0.2095l-0.2791,0.9602zm0,23.715l0.23,0.9732l0.77,-0.182l0,-0.7912l-1,0zm-50.49,11.934l-0.23,-0.9731l-0.0056,1.945l0.2356,-0.9719zm50.49,12.24l1,0l0,-0.7865l-0.7644,-0.1853l-0.2356,0.9718zm0,24.327l0.2757,0.9613l0.7243,-0.2078l0,-0.7535l-1,0zm-80.019,22.95l-1,0l0,1.327l1.27569,-0.366l-0.27569,-0.961zm0,-24.633l-0.20559,-0.9786l-0.79441,0.1669l0,0.8117l1,0zm54.621,-11.475l0.2056,0.9787l0.0286,-1.9509l-0.2342,0.9722zm-54.621,-13.158l-1,0l0,0.7877l0.7658,0.1845l0.2342,-0.9722zm0,-20.961l-0.22844,-0.9735l-0.77156,0.181l0,0.7925l1,0zm54.9843,-13.8296l-54.77402,-11.781l-0.42056,1.9553l54.77398,11.781l0.4206,-1.9553zm-53.9843,-10.8034l0,-23.56196l-2,0l0,23.56196l2,0zm-1.27908,-22.6017l80.01898,23.256l0.5582,-1.9205l-80.01901,-23.25603l-0.55817,1.92053zm79.29808,22.2957l0,23.715l2,0l0,-23.715l-2,0zm0.77,22.7418l-50.49,11.9341l0.46,1.9463l50.49,-11.934l-0.46,-1.9464zm-50.4956,13.8791l50.49,12.24l0.4712,-1.9437l-50.49,-12.24l-0.4712,1.9437zm49.7256,11.2681l0,24.327l2,0l0,-24.327l-2,0zm0.7243,23.3658l-80.01899,22.9502l0.55138,1.922l80.01901,-22.9497l-0.5514,-1.9225zm-78.7433,23.9112l0,-24.633l-2,0l0,24.633l2,0zm-0.79441,-23.6543l54.62101,-11.475l-0.4112,-1.9573l-54.62099,11.475l0.41118,1.9573zm54.64961,-13.4259l-54.62101,-13.158l-0.46839,1.9444l54.621,13.158l0.4684,-1.9444zm-53.8552,-12.1858l0,-20.961l-2,0l0,20.961l2,0zm-0.77157,-19.9874l54.77397,-12.852l-0.4568,-1.9471l-54.77404,12.852l0.45687,1.9471z" fill="#222222"/>
  </g>
  <g>
   <path fill="#EB1C24" d="m80,353.43725c0,-21.263 -17.4609,-38.5 -39,-38.5c-21.5391,0 -39,17.237 -39,38.5c0,21.263 17.4609,38.5 39,38.5c21.5391,0 39,-17.237 39,-38.5z"/>
   <path fill="white" d="m44.72,434.80925l-11.456,-2.464l0,-4.928l16.736,4.864l0,4.96l-10.56,2.496l10.56,2.56l0,5.088l-16.736,4.8l0,-5.152l11.424,-2.4l-11.424,-2.752l0,-4.384l11.456,-2.688zm-1.376,-21.677c0.5547,-0.022 1.0027,-0.075 1.344,-0.16c0.3413,-0.107 0.6187,-0.278 0.832,-0.512c0.2133,-0.256 0.3627,-0.587 0.448,-0.992c0.064,-0.406 0.096,-0.918 0.096,-1.536c0,-0.875 0,-1.814 0,-2.816c0,-1.024 -0.0107,-2.166 -0.032,-3.424l3.968,0.736c0.0427,1.066 0.064,2.058 0.064,2.976c0,0.917 0,1.92 0,3.008c0,1.514 -0.1493,2.773 -0.448,3.776c-0.32,1.002 -0.7893,1.802 -1.408,2.4c-0.64,0.597 -1.4293,1.024 -2.368,1.28c-0.96,0.234 -2.08,0.352 -3.36,0.352l-1.76,0c-1.344,0 -2.5067,-0.128 -3.488,-0.384c-1.0027,-0.278 -1.8347,-0.726 -2.496,-1.344c-0.6613,-0.64 -1.152,-1.462 -1.472,-2.464c-0.3413,-1.024 -0.512,-2.283 -0.512,-3.776c0,-2.688 0.5653,-4.608 1.696,-5.76c1.1093,-1.152 2.6667,-1.728 4.672,-1.728l0.672,0c0.704,0 1.28,0.042 1.728,0.128c0.448,0.085 0.8107,0.245 1.088,0.48c0.2773,0.213 0.4693,0.501 0.576,0.864c0.1067,0.362 0.16,0.81 0.16,1.344l0,7.552zm-6.848,-2.752c0,0.576 0.0533,1.045 0.16,1.408c0.0853,0.341 0.256,0.618 0.512,0.832c0.2347,0.192 0.5653,0.33 0.992,0.416c0.4267,0.064 0.9813,0.096 1.664,0.096l0,-5.536c-0.6827,0 -1.2373,0.042 -1.664,0.128c-0.4267,0.064 -0.7573,0.202 -0.992,0.416c-0.256,0.213 -0.4267,0.501 -0.512,0.864c-0.1067,0.341 -0.16,0.8 -0.16,1.376zm9.504,-45.315l-5.952,0c-0.6827,0 -1.2373,0.053 -1.664,0.16c-0.4267,0.085 -0.7573,0.256 -0.992,0.512c-0.256,0.235 -0.4267,0.555 -0.512,0.96c-0.0853,0.384 -0.128,0.875 -0.128,1.472c0,0.619 0.0533,1.131 0.16,1.536c0.1067,0.384 0.2987,0.693 0.576,0.928c0.2773,0.213 0.6613,0.363 1.152,0.448c0.4907,0.085 1.1307,0.128 1.92,0.128l1.536,0c0.832,0 1.504,-0.043 2.016,-0.128c0.4907,-0.085 0.8853,-0.235 1.184,-0.448c0.2773,-0.235 0.4693,-0.555 0.576,-0.96c0.0853,-0.405 0.128,-0.917 0.128,-1.536l0,-3.072zm4,3.168c0,1.579 -0.128,2.891 -0.384,3.936c-0.2773,1.024 -0.7253,1.856 -1.344,2.496c-0.6187,0.619 -1.4187,1.056 -2.4,1.312c-1.0027,0.256 -2.2293,0.384 -3.68,0.384l-1.472,0c-1.4507,0 -2.6773,-0.139 -3.68,-0.416c-1.024,-0.299 -1.8453,-0.747 -2.464,-1.344c-0.64,-0.597 -1.0987,-1.355 -1.376,-2.272c-0.2987,-0.939 -0.448,-2.037 -0.448,-3.296c0,-0.811 0.0853,-1.568 0.256,-2.272c0.1707,-0.725 0.4053,-1.291 0.704,-1.696l-7.488,0l0,-5.088l20.48,0c1.2373,0 2.1013,0.277 2.592,0.832c0.4693,0.533 0.704,1.472 0.704,2.816l0,4.608zm-17.248,-27.604c0,-1.494 0.128,-2.763 0.384,-3.808c0.256,-1.046 0.6933,-1.888 1.312,-2.528c0.6187,-0.662 1.44,-1.142 2.464,-1.44c1.024,-0.299 2.304,-0.448 3.84,-0.448l1.76,0c1.5147,0 2.784,0.149 3.808,0.448c1.024,0.298 1.8453,0.778 2.464,1.44c0.6187,0.64 1.056,1.482 1.312,2.528c0.2773,1.045 0.416,2.314 0.416,3.808c0,1.493 -0.1387,2.762 -0.416,3.808c-0.256,1.045 -0.6933,1.898 -1.312,2.56c-0.6187,0.661 -1.44,1.141 -2.464,1.44c-1.024,0.298 -2.2933,0.448 -3.808,0.448l-1.76,0c-1.536,0 -2.816,-0.15 -3.84,-0.448c-1.024,-0.299 -1.8453,-0.779 -2.464,-1.44c-0.6187,-0.662 -1.056,-1.515 -1.312,-2.56c-0.256,-1.046 -0.384,-2.315 -0.384,-3.808zm7.84,-3.072c-0.832,0 -1.4933,0.042 -1.984,0.128c-0.512,0.085 -0.896,0.245 -1.152,0.48c-0.2773,0.234 -0.4587,0.554 -0.544,0.96c-0.1067,0.384 -0.16,0.885 -0.16,1.504c0,0.618 0.0533,1.13 0.16,1.536c0.0853,0.384 0.2667,0.693 0.544,0.928c0.256,0.234 0.64,0.405 1.152,0.512c0.4907,0.085 1.152,0.128 1.984,0.128l2.048,0c0.832,0 1.504,-0.043 2.016,-0.128c0.512,-0.107 0.9067,-0.278 1.184,-0.512c0.256,-0.235 0.4373,-0.544 0.544,-0.928c0.0853,-0.406 0.128,-0.918 0.128,-1.536c0,-0.619 -0.0427,-1.12 -0.128,-1.504c-0.1067,-0.406 -0.288,-0.726 -0.544,-0.96c-0.2773,-0.235 -0.672,-0.395 -1.184,-0.48c-0.512,-0.086 -1.184,-0.128 -2.016,-0.128l-2.048,0zm4.128,-48.199l-11.456,-2.464l0,-4.928l16.736,4.864l0,4.96l-10.56,2.496l10.56,2.56l0,5.088l-16.736,4.8l0,-5.152l11.424,-2.4l-11.424,-2.752l0,-4.384l11.456,-2.688zm-11.456,-17.627l0,-5.088l16.736,0l0,5.088l-16.736,0zm-4.608,-5.44c0.8747,0 1.504,0.202 1.888,0.608c0.384,0.405 0.576,1.162 0.576,2.272c0,1.13 -0.192,1.898 -0.576,2.304c-0.384,0.405 -1.0133,0.608 -1.888,0.608c-0.832,0 -1.44,-0.203 -1.824,-0.608c-0.4053,-0.406 -0.608,-1.174 -0.608,-2.304c0,-1.11 0.2027,-1.867 0.608,-2.272c0.384,-0.406 0.992,-0.608 1.824,-0.608z"/>
   <path fill="#111111" d="m50,255.25425l-10.944,0c-1.1733,0 -2.1547,-0.149 -2.944,-0.448c-0.8107,-0.298 -1.4613,-0.757 -1.952,-1.376c-0.512,-0.64 -0.8747,-1.461 -1.088,-2.464c-0.2133,-1.002 -0.32,-2.208 -0.32,-3.616c0,-1.408 0.1067,-2.613 0.32,-3.616c0.2133,-1.002 0.576,-1.813 1.088,-2.432c0.4907,-0.64 1.1413,-1.109 1.952,-1.408c0.7893,-0.298 1.7707,-0.448 2.944,-0.448l10.944,0l0,5.088l-10.56,0c-0.448,0 -0.832,0.032 -1.152,0.096c-0.32,0.064 -0.5867,0.192 -0.8,0.384c-0.2133,0.192 -0.3627,0.48 -0.448,0.864c-0.1067,0.363 -0.16,0.854 -0.16,1.472c0,0.619 0.0533,1.12 0.16,1.504c0.0853,0.363 0.2347,0.64 0.448,0.832c0.2133,0.192 0.48,0.32 0.8,0.384c0.32,0.064 0.704,0.096 1.152,0.096l10.56,0l0,5.088zm0,-27.195l-10.944,0c-1.1733,0 -2.1547,-0.149 -2.944,-0.448c-0.8107,-0.298 -1.4613,-0.757 -1.952,-1.376c-0.512,-0.64 -0.8747,-1.461 -1.088,-2.464c-0.2133,-1.002 -0.32,-2.208 -0.32,-3.616c0,-1.408 0.1067,-2.613 0.32,-3.616c0.2133,-1.002 0.576,-1.813 1.088,-2.432c0.4907,-0.64 1.1413,-1.109 1.952,-1.408c0.7893,-0.298 1.7707,-0.448 2.944,-0.448l10.944,0l0,5.088l-10.56,0c-0.448,0 -0.832,0.032 -1.152,0.096c-0.32,0.064 -0.5867,0.192 -0.8,0.384c-0.2133,0.192 -0.3627,0.48 -0.448,0.864c-0.1067,0.363 -0.16,0.854 -0.16,1.472c0,0.619 0.0533,1.12 0.16,1.504c0.0853,0.363 0.2347,0.64 0.448,0.832c0.2133,0.192 0.48,0.32 0.8,0.384c0.32,0.064 0.704,0.096 1.152,0.096l10.56,0l0,5.088zm-16.736,-27.195l0,-5.088l16.736,0l0,5.088l-16.736,0zm-4.608,-5.44c0.8747,0 1.504,0.203 1.888,0.608c0.384,0.406 0.576,1.163 0.576,2.272c0,1.131 -0.192,1.899 -0.576,2.304c-0.384,0.406 -1.0133,0.608 -1.888,0.608c-0.832,0 -1.44,-0.202 -1.824,-0.608c-0.4053,-0.405 -0.608,-1.173 -0.608,-2.304c0,-1.109 0.2027,-1.866 0.608,-2.272c0.384,-0.405 0.992,-0.608 1.824,-0.608zm21.344,-11.036l-10.944,0c-1.1733,0 -2.1547,-0.149 -2.944,-0.448c-0.8107,-0.299 -1.4613,-0.757 -1.952,-1.376c-0.512,-0.64 -0.8747,-1.461 -1.088,-2.464c-0.2133,-1.003 -0.32,-2.208 -0.32,-3.616c0,-1.408 0.1067,-2.613 0.32,-3.616c0.2133,-1.003 0.576,-1.813 1.088,-2.432c0.4907,-0.64 1.1413,-1.109 1.952,-1.408c0.7893,-0.299 1.7707,-0.448 2.944,-0.448l10.944,0l0,5.088l-10.56,0c-0.448,0 -0.832,0.032 -1.152,0.096c-0.32,0.064 -0.5867,0.192 -0.8,0.384c-0.2133,0.192 -0.3627,0.48 -0.448,0.864c-0.1067,0.363 -0.16,0.853 -0.16,1.472c0,0.619 0.0533,1.12 0.16,1.504c0.0853,0.363 0.2347,0.64 0.448,0.832c0.2133,0.192 0.48,0.32 0.8,0.384c0.32,0.064 0.704,0.096 1.152,0.096l10.56,0l0,5.088zm-4.864,-35.131c0,-0.619 -0.0427,-1.12 -0.128,-1.504c-0.1067,-0.405 -0.2773,-0.715 -0.512,-0.928c-0.2347,-0.235 -0.5547,-0.395 -0.96,-0.48c-0.4053,-0.085 -0.9173,-0.128 -1.536,-0.128l-1.344,0c-0.768,0 -1.3973,0.032 -1.888,0.096c-0.4907,0.064 -0.8747,0.203 -1.152,0.416c-0.2773,0.213 -0.4693,0.523 -0.576,0.928c-0.1067,0.405 -0.16,0.939 -0.16,1.6c0,0.683 0.0533,1.227 0.16,1.632c0.1067,0.384 0.2987,0.693 0.576,0.928c0.2773,0.213 0.6613,0.352 1.152,0.416c0.4907,0.064 1.12,0.096 1.888,0.096l0.704,0c0.768,0 1.3973,-0.032 1.888,-0.096c0.4907,-0.085 0.8747,-0.235 1.152,-0.448c0.2773,-0.213 0.4693,-0.523 0.576,-0.928c0.1067,-0.405 0.16,-0.939 0.16,-1.6zm3.168,-3.04c0.2987,0.427 0.5333,0.949 0.704,1.568c0.1707,0.619 0.256,1.429 0.256,2.432c0,1.28 -0.1387,2.379 -0.416,3.296c-0.2987,0.917 -0.7573,1.675 -1.376,2.272c-0.6187,0.576 -1.408,1.003 -2.368,1.28c-0.9813,0.277 -2.1547,0.416 -3.52,0.416l-1.152,0c-1.3013,0 -2.432,-0.139 -3.392,-0.416c-0.96,-0.277 -1.76,-0.736 -2.4,-1.376c-0.64,-0.64 -1.1093,-1.483 -1.408,-2.528c-0.32,-1.045 -0.48,-2.347 -0.48,-3.904c0,-1.6 0.16,-2.923 0.48,-3.968c0.32,-1.045 0.8,-1.877 1.44,-2.496c0.6187,-0.619 1.3867,-1.045 2.304,-1.28c0.896,-0.256 1.92,-0.384 3.072,-0.384l8.576,0c1.2587,0 2.3253,0.149 3.2,0.448c0.896,0.277 1.6213,0.747 2.176,1.408c0.576,0.64 0.992,1.493 1.248,2.56c0.2773,1.045 0.416,2.325 0.416,3.84c0,0.363 0,0.736 0,1.12c0,0.363 0,0.789 0,1.28c0,0.469 -0.0107,1.035 -0.032,1.696c0,0.661 -0.0107,1.451 -0.032,2.368l-4.128,-0.768c0.0213,-0.768 0.032,-1.419 0.032,-1.952c0.0213,-0.555 0.032,-1.035 0.032,-1.44c0,-0.405 0,-0.757 0,-1.056c0,-0.299 0,-0.597 0,-0.896c0,-0.683 -0.0427,-1.248 -0.128,-1.696c-0.064,-0.448 -0.2027,-0.811 -0.416,-1.088c-0.2133,-0.277 -0.5227,-0.469 -0.928,-0.576c-0.4053,-0.107 -0.928,-0.16 -1.568,-0.16l-0.192,0zm-3.584,-48.4192l-11.456,-2.464l0,-4.928l16.736,4.864l0,4.9602l-10.56,2.496l10.56,2.56l0,5.088l-16.736,4.8l0,-5.152l11.424,-2.4l-11.424,-2.752l0,-4.384l11.456,-2.6882zm-11.968,-24.8453c0,-1.4933 0.128,-2.7627 0.384,-3.808c0.256,-1.0453 0.6933,-1.888 1.312,-2.528c0.6187,-0.6613 1.44,-1.1413 2.464,-1.44c1.024,-0.2987 2.304,-0.448 3.84,-0.448l1.76,0c1.5147,0 2.784,0.1493 3.808,0.448c1.024,0.2987 1.8453,0.7787 2.464,1.44c0.6187,0.64 1.056,1.4827 1.312,2.528c0.2773,1.0453 0.416,2.3147 0.416,3.808c0,1.4933 -0.1387,2.7627 -0.416,3.808c-0.256,1.0453 -0.6933,1.8987 -1.312,2.56c-0.6187,0.6613 -1.44,1.1413 -2.464,1.44c-1.024,0.2987 -2.2933,0.448 -3.808,0.448l-1.76,0c-1.536,0 -2.816,-0.1493 -3.84,-0.448c-1.024,-0.2987 -1.8453,-0.7787 -2.464,-1.44c-0.6187,-0.6613 -1.056,-1.5147 -1.312,-2.56c-0.256,-1.0453 -0.384,-2.3147 -0.384,-3.808zm7.84,-3.072c-0.832,0 -1.4933,0.0427 -1.984,0.128c-0.512,0.0853 -0.896,0.2453 -1.152,0.48c-0.2773,0.2347 -0.4587,0.5547 -0.544,0.96c-0.1067,0.384 -0.16,0.8853 -0.16,1.504c0,0.6187 0.0533,1.1307 0.16,1.536c0.0853,0.384 0.2667,0.6933 0.544,0.928c0.256,0.2347 0.64,0.4053 1.152,0.512c0.4907,0.0853 1.152,0.128 1.984,0.128l2.048,0c0.832,0 1.504,-0.0427 2.016,-0.128c0.512,-0.1067 0.9067,-0.2773 1.184,-0.512c0.256,-0.2347 0.4373,-0.544 0.544,-0.928c0.0853,-0.4053 0.128,-0.9173 0.128,-1.536c0,-0.6187 -0.0427,-1.12 -0.128,-1.504c-0.1067,-0.4053 -0.288,-0.7253 -0.544,-0.96c-0.2773,-0.2347 -0.672,-0.3947 -1.184,-0.48c-0.512,-0.0853 -1.184,-0.128 -2.016,-0.128l-2.048,0zm9.408,-21.3367l0,5.088l-10.528,0c-1.1947,0 -2.1973,-0.1494 -3.008,-0.448c-0.8107,-0.2987 -1.4613,-0.7467 -1.952,-1.344c-0.4907,-0.6187 -0.832,-1.376 -1.024,-2.272c-0.2133,-0.9174 -0.32,-1.9734 -0.32,-3.168c0,-0.6187 0,-1.216 0,-1.792c0,-0.5974 0.0213,-1.28 0.064,-2.048l4.128,0.768c-0.0213,0.192 -0.032,0.544 -0.032,1.056c-0.0213,0.512 -0.032,1.0133 -0.032,1.504c0,0.576 0.0533,1.0453 0.16,1.408c0.1067,0.3413 0.2667,0.608 0.48,0.8c0.2133,0.192 0.5013,0.32 0.864,0.384c0.3413,0.0426 0.7467,0.064 1.216,0.064l9.984,0zm-10.656,-20.8826l-6.08,-5.504l0,-6.016l7.52,7.104l9.216,-7.744l0,6.176l-7.328,5.984l7.328,0l0,5.088l-23.776,0l0,-5.088l13.12,0zm8.256,-26.84671c0.9173,0 1.6,0.224 2.048,0.672c0.448,0.448 0.672,1.17333 0.672,2.176c0,1.024 -0.224,1.76 -0.672,2.208c-0.448,0.448 -1.1307,0.672 -2.048,0.672c-0.9173,0 -1.6,-0.224 -2.048,-0.672c-0.448,-0.448 -0.672,-1.184 -0.672,-2.208c0,-1.00267 0.224,-1.728 0.672,-2.176c0.448,-0.448 1.1307,-0.672 2.048,-0.672z"/>
  </g>
 </g>
</svg>