<svg width="90" height="450" xmlns="http://www.w3.org/2000/svg" fill="none">
 <title>Drawing</title>
 <g id="Layer_1">
  <title>Layer 1</title>
  <g>
   <path fill="white" d="m59.7645,365.13449l0.228,0.974l-0.018,-1.952l-0.21,0.978zm-54.774,-11.781l-1,0l0,0.808l0.7897,0.17l0.2103,-0.978zm0,-23.562l0.2791,-0.96l-1.2791,-0.372l0,1.332l1,0zm80.019,23.256l1,0l0,-0.751l-0.721,-0.209l-0.279,0.96zm0,23.715l0.23,0.973l0.77,-0.182l0,-0.791l-1,0zm-50.49,11.934l-0.23,-0.973l-0.0056,1.945l0.2356,-0.972zm50.49,12.24l1,0l0,-0.787l-0.764,-0.185l-0.236,0.972zm0,24.327l0.276,0.961l0.724,-0.207l0,-0.754l-1,0zm-80.019,22.95l-1,0l0,1.327l1.2757,-0.366l-0.2757,-0.961zm0,-24.633l-0.2056,-0.979l-0.7944,0.167l0,0.812l1,0zm54.621,-11.475l0.206,0.979l0.028,-1.951l-0.234,0.972zm-54.621,-13.158l-1,0l0,0.788l0.7658,0.184l0.2342,-0.972zm0,-20.961l-0.2284,-0.974l-0.7716,0.182l0,0.792l1,0zm54.984,-13.83l-54.7737,-11.781l-0.4206,1.956l54.7743,11.781l0.42,-1.956zm-53.984,-10.803l0,-23.562l-2,0l0,23.562l2,0zm-1.2791,-22.602l80.0191,23.256l0.558,-1.92l-80.0189,-23.256l-0.5582,1.92zm79.2981,22.296l0,23.715l2,0l0,-23.715l-2,0zm0.77,22.742l-50.49,11.934l0.46,1.946l50.49,-11.934l-0.46,-1.946zm-50.4956,13.879l50.4896,12.24l0.472,-1.944l-50.4904,-12.24l-0.4712,1.944zm49.7256,11.268l0,24.327l2,0l0,-24.327l-2,0zm0.724,23.366l-80.0187,22.95l0.5514,1.922l80.0193,-22.95l-0.552,-1.922zm-78.743,23.911l0,-24.633l-2,0l0,24.633l2,0zm-0.7944,-23.654l54.6214,-11.475l-0.412,-1.958l-54.6206,11.475l0.4112,1.958zm54.6494,-13.426l-54.6208,-13.158l-0.4684,1.944l54.6212,13.158l0.468,-1.944zm-53.855,-12.186l0,-20.961l-2,0l0,20.961l2,0zm-0.7716,-19.987l54.7736,-12.852l-0.456,-1.948l-54.7744,12.852l0.4568,1.948z" opacity="0.1"/>
   <path fill="#222222" d="m59.7645,201.13449l0.228,0.974l-0.018,-1.952l-0.21,0.978zm-54.774,-11.781l-1,0l0,0.808l0.7897,0.17l0.2103,-0.978zm0,-23.562l0.2791,-0.96l-1.2791,-0.372l0,1.332l1,0zm80.019,23.256l1,0l0,-0.751l-0.721,-0.209l-0.279,0.96zm0,23.715l0.23,0.973l0.77,-0.182l0,-0.791l-1,0zm-50.49,11.934l-0.23,-0.973l-0.0056,1.945l0.2356,-0.972zm50.49,12.24l1,0l0,-0.787l-0.764,-0.185l-0.236,0.972zm0,24.327l0.276,0.961l0.724,-0.207l0,-0.754l-1,0zm-80.019,22.95l-1,0l0,1.327l1.2757,-0.366l-0.2757,-0.961zm0,-24.633l-0.2056,-0.979l-0.7944,0.167l0,0.812l1,0zm54.621,-11.475l0.206,0.979l0.028,-1.951l-0.234,0.972zm-54.621,-13.158l-1,0l0,0.788l0.7658,0.184l0.2342,-0.972zm0,-20.961l-0.2284,-0.974l-0.7716,0.182l0,0.792l1,0zm54.984,-13.83l-54.7737,-11.781l-0.4206,1.956l54.7743,11.781l0.42,-1.956zm-53.984,-10.803l0,-23.562l-2,0l0,23.562l2,0zm-1.2791,-22.602l80.0191,23.256l0.558,-1.92l-80.0189,-23.256l-0.5582,1.92zm79.2981,22.296l0,23.715l2,0l0,-23.715l-2,0zm0.77,22.742l-50.49,11.934l0.46,1.946l50.49,-11.934l-0.46,-1.946zm-50.4956,13.879l50.4896,12.24l0.472,-1.944l-50.4904,-12.24l-0.4712,1.944zm49.7256,11.268l0,24.327l2,0l0,-24.327l-2,0zm0.724,23.366l-80.0187,22.95l0.5514,1.922l80.0193,-22.95l-0.552,-1.922zm-78.743,23.911l0,-24.633l-2,0l0,24.633l2,0zm-0.7944,-23.654l54.6214,-11.475l-0.412,-1.958l-54.6206,11.475l0.4112,1.958zm54.6494,-13.426l-54.6208,-13.158l-0.4684,1.944l54.6212,13.158l0.468,-1.944zm-53.855,-12.186l0,-20.961l-2,0l0,20.961l2,0zm-0.7716,-19.987l54.7736,-12.852l-0.456,-1.948l-54.7744,12.852l0.4568,1.948z" opacity="0.1"/>
   <path fill="white" d="m59.7645,201.13449l0.228,0.974l-0.018,-1.952l-0.21,0.978zm-54.774,-11.781l-1,0l0,0.808l0.7897,0.17l0.2103,-0.978zm0,-23.562l0.2791,-0.96l-1.2791,-0.372l0,1.332l1,0zm80.019,23.256l1,0l0,-0.751l-0.721,-0.209l-0.279,0.96zm0,23.715l0.23,0.973l0.77,-0.182l0,-0.791l-1,0zm-50.49,11.934l-0.23,-0.973l-0.0056,1.945l0.2356,-0.972zm50.49,12.24l1,0l0,-0.787l-0.764,-0.185l-0.236,0.972zm0,24.327l0.276,0.961l0.724,-0.207l0,-0.754l-1,0zm-80.019,22.95l-1,0l0,1.327l1.2757,-0.366l-0.2757,-0.961zm0,-24.633l-0.2056,-0.979l-0.7944,0.167l0,0.812l1,0zm54.621,-11.475l0.206,0.979l0.028,-1.951l-0.234,0.972zm-54.621,-13.158l-1,0l0,0.788l0.7658,0.184l0.2342,-0.972zm0,-20.961l-0.2284,-0.974l-0.7716,0.182l0,0.792l1,0zm54.984,-13.83l-54.7737,-11.781l-0.4206,1.956l54.7743,11.781l0.42,-1.956zm-53.984,-10.803l0,-23.562l-2,0l0,23.562l2,0zm-1.2791,-22.602l80.0191,23.256l0.558,-1.92l-80.0189,-23.256l-0.5582,1.92zm79.2981,22.296l0,23.715l2,0l0,-23.715l-2,0zm0.77,22.742l-50.49,11.934l0.46,1.946l50.49,-11.934l-0.46,-1.946zm-50.4956,13.879l50.4896,12.24l0.472,-1.944l-50.4904,-12.24l-0.4712,1.944zm49.7256,11.268l0,24.327l2,0l0,-24.327l-2,0zm0.724,23.366l-80.0187,22.95l0.5514,1.922l80.0193,-22.95l-0.552,-1.922zm-78.743,23.911l0,-24.633l-2,0l0,24.633l2,0zm-0.7944,-23.654l54.6214,-11.475l-0.412,-1.958l-54.6206,11.475l0.4112,1.958zm54.6494,-13.426l-54.6208,-13.158l-0.4684,1.944l54.6212,13.158l0.468,-1.944zm-53.855,-12.186l0,-20.961l-2,0l0,20.961l2,0zm-0.7716,-19.987l54.7736,-12.852l-0.456,-1.948l-54.7744,12.852l0.4568,1.948z" opacity="0.1"/>
   <path fill="#222222" d="m59.7645,37.13449l0.228,0.9736l-0.018,-1.9512l-0.21,0.9776zm-54.774,-11.781l-1,0l0,0.8078l0.7897,0.1699l0.2103,-0.9777zm0,-23.56196l0.2791,-0.96027l-1.2791,-0.37174l0,1.33201l1,0zm80.019,23.25596l1,0l0,-0.7507l-0.721,-0.2095l-0.279,0.9602zm0,23.715l0.23,0.9732l0.77,-0.182l0,-0.7912l-1,0zm-50.49,11.934l-0.23,-0.9731l-0.0056,1.945l0.2356,-0.9719zm50.49,12.24l1,0l0,-0.7865l-0.764,-0.1853l-0.236,0.9718zm0,24.327l0.276,0.9613l0.724,-0.2078l0,-0.7535l-1,0zm-80.019,22.95l-1,0l0,1.327l1.2757,-0.366l-0.2757,-0.961zm0,-24.633l-0.2056,-0.9786l-0.7944,0.1669l0,0.8117l1,0zm54.621,-11.475l0.206,0.9787l0.028,-1.9509l-0.234,0.9722zm-54.621,-13.158l-1,0l0,0.7877l0.7658,0.1845l0.2342,-0.9722zm0,-20.961l-0.2284,-0.9735l-0.7716,0.181l0,0.7925l1,0zm54.984,-13.8296l-54.7737,-11.781l-0.4206,1.9553l54.7743,11.781l0.42,-1.9553zm-53.984,-10.8034l0,-23.56196l-2,0l0,23.56196l2,0zm-1.2791,-22.6017l80.0191,23.256l0.558,-1.9205l-80.0189,-23.25603l-0.5582,1.92053zm79.2981,22.2957l0,23.715l2,0l0,-23.715l-2,0zm0.77,22.7418l-50.49,11.9341l0.46,1.9463l50.49,-11.934l-0.46,-1.9464zm-50.4956,13.8791l50.4896,12.24l0.472,-1.9437l-50.4904,-12.24l-0.4712,1.9437zm49.7256,11.2681l0,24.327l2,0l0,-24.327l-2,0zm0.724,23.3658l-80.0187,22.9502l0.5514,1.922l80.0193,-22.9497l-0.552,-1.9225zm-78.743,23.9112l0,-24.633l-2,0l0,24.633l2,0zm-0.7944,-23.6543l54.6214,-11.475l-0.412,-1.9573l-54.6206,11.475l0.4112,1.9573zm54.6494,-13.4259l-54.6208,-13.158l-0.4684,1.9444l54.6212,13.158l0.468,-1.9444zm-53.855,-12.1858l0,-20.961l-2,0l0,20.961l2,0zm-0.7716,-19.9874l54.7736,-12.852l-0.456,-1.9471l-54.7744,12.852l0.4568,1.9471z" opacity="0.1"/>
  </g>
  <g>
   <path fill="#222222" d="m59.7645,365.423l0.2284,0.9736l-0.0181,-1.9512l-0.2103,0.9776zm-54.774,-11.781l-1,0l0,0.8078l0.78972,0.1699l0.21028,-0.9777zm0,-23.56196l0.27909,-0.96027l-1.27909,-0.37174l0,1.33201l1,0zm80.019,23.25596l1,0l0,-0.7507l-0.7209,-0.2095l-0.2791,0.9602zm0,23.715l0.23,0.9732l0.77,-0.182l0,-0.7912l-1,0zm-50.49,11.934l-0.23,-0.9731l-0.0056,1.945l0.2356,-0.9719zm50.49,12.24l1,0l0,-0.7865l-0.7644,-0.1853l-0.2356,0.9718zm0,24.327l0.2757,0.9613l0.7243,-0.2078l0,-0.7535l-1,0zm-80.019,22.95l-1,0l0,1.327l1.27569,-0.366l-0.27569,-0.961zm0,-24.633l-0.20559,-0.9786l-0.79441,0.1669l0,0.8117l1,0zm54.621,-11.475l0.2056,0.9787l0.0286,-1.9509l-0.2342,0.9722zm-54.621,-13.158l-1,0l0,0.7877l0.7658,0.1845l0.2342,-0.9722zm0,-20.961l-0.22844,-0.9735l-0.77156,0.181l0,0.7925l1,0zm54.9843,-13.8296l-54.77402,-11.781l-0.42056,1.9553l54.77398,11.781l0.4206,-1.9553zm-53.9843,-10.8034l0,-23.56196l-2,0l0,23.56196l2,0zm-1.27908,-22.6017l80.01898,23.256l0.5582,-1.9205l-80.01901,-23.25603l-0.55817,1.92053zm79.29808,22.2957l0,23.715l2,0l0,-23.715l-2,0zm0.77,22.7418l-50.49,11.9341l0.46,1.9463l50.49,-11.934l-0.46,-1.9464zm-50.4956,13.8791l50.49,12.24l0.4712,-1.9437l-50.49,-12.24l-0.4712,1.9437zm49.7256,11.2681l0,24.327l2,0l0,-24.327l-2,0zm0.7243,23.3658l-80.01899,22.9502l0.55138,1.922l80.01901,-22.9497l-0.5514,-1.9225zm-78.7433,23.9112l0,-24.633l-2,0l0,24.633l2,0zm-0.79441,-23.6543l54.62101,-11.475l-0.4112,-1.9573l-54.62099,11.475l0.41118,1.9573zm54.64961,-13.4259l-54.62101,-13.158l-0.46839,1.9444l54.621,13.158l0.4684,-1.9444zm-53.8552,-12.1858l0,-20.961l-2,0l0,20.961l2,0zm-0.77157,-19.9874l54.77397,-12.852l-0.4568,-1.9471l-54.77404,12.852l0.45687,1.9471z" opacity="0.1"/>
  </g>
 </g>

</svg>